<svg width="47" height="48" viewBox="0 0 47 48" fill="none" xmlns="http://www.w3.org/2000/svg">
<path d="M33.1331 10.1237C33.8654 10.5088 34.724 10.5752 35.5069 10.3074C36.2897 10.0395 36.9277 9.46111 37.2707 8.70817C37.4126 8.42288 37.3878 8.08293 37.2059 7.82131C37.024 7.55968 36.714 7.41798 36.3971 7.45163C36.0803 7.48528 35.807 7.68894 35.6841 7.98293C35.5344 8.31033 35.2527 8.55874 34.9091 8.66628C34.2423 8.87401 33.5333 8.50184 33.3255 7.835C33.1178 7.16816 33.49 6.45918 34.1568 6.25144C34.6171 6.10829 34.8742 5.61909 34.7311 5.15878C34.5879 4.69848 34.0987 4.44138 33.6384 4.58453C32.4757 4.94618 31.6455 5.97269 31.5348 7.18528C31.4242 8.39787 32.0551 9.55767 33.1331 10.1237Z" fill="#F9A502"/>
<path d="M26.6183 22.8046C26.6183 25.9892 28.1796 26.1716 28.3768 26.182H40.5819C40.7442 26.1742 42.3274 26.0075 42.3274 22.8046C42.3274 20.0817 40.2913 19.1557 38.1383 18.1791C37.4635 17.893 36.8102 17.5588 36.1834 17.179C35.5329 16.7262 34.956 16.1761 34.4728 15.5479C33.9911 16.1735 33.4163 16.7215 32.7684 17.1729C32.1397 17.5536 31.4843 17.8884 30.8074 18.1748C28.6544 19.1557 26.6183 20.0817 26.6183 22.8046Z" fill="#F9A502"/>
<path d="M33.1236 37.3052C35.3617 37.2997 37.5846 36.9382 39.7092 36.2344V27.9277H29.2365V36.9413C30.5182 37.1822 31.8194 37.3041 33.1236 37.3052ZM36.2183 30.5459C36.2183 30.0639 36.609 29.6732 37.091 29.6732C37.573 29.6732 37.9637 30.0639 37.9637 30.5459V32.2914C37.9637 32.7734 37.573 33.1641 37.091 33.1641C36.609 33.1641 36.2183 32.7734 36.2183 32.2914V30.5459ZM30.9819 30.5459C30.9819 30.0639 31.3726 29.6732 31.8546 29.6732C32.3366 29.6732 32.7274 30.0639 32.7274 30.5459V32.2914C32.7274 32.7734 32.3366 33.1641 31.8546 33.1641C31.3726 33.1641 30.9819 32.7734 30.9819 32.2914V30.5459Z" fill="#F9A502"/>
<path d="M34.4728 13.9642C34.9548 13.9642 35.3456 13.5735 35.3456 13.0915C35.3456 12.6095 34.9548 12.2188 34.4728 12.2188C33.9908 12.2188 33.6001 12.6095 33.6001 13.0915C33.6001 13.5735 33.9908 13.9642 34.4728 13.9642Z" fill="#F9A502"/>
<path d="M24.0001 16.5827H20.5092V33.1157C22.6035 34.6804 24.9712 35.8409 27.491 36.5376V27.7414C26.4568 27.367 24.8728 26.2359 24.8728 22.8053C24.8266 20.8422 25.8226 19.0013 27.491 17.966V13.0918H20.5092V14.8373H24.0001C24.4821 14.8373 24.8728 15.228 24.8728 15.71C24.8728 16.192 24.4821 16.5827 24.0001 16.5827Z" fill="#F9A502"/>
<path d="M45.5014 35.1958C44.0662 36.1637 42.5401 36.9897 40.9449 37.6621C40.9179 37.6743 40.8899 37.6796 40.862 37.6892C33.5016 40.3576 25.2862 39.0544 19.1128 34.2393C19.0729 34.2134 19.0352 34.1842 19.0002 34.152C14.2047 30.3982 11.1257 24.8692 10.4596 18.8157C9.79352 12.7623 11.5967 6.69606 15.4613 1.98938C15.7227 1.67405 15.7297 1.21933 15.478 0.896154C15.2264 0.572974 14.7838 0.468304 14.414 0.644508C5.83046 4.78809 0.392509 13.4961 0.436421 23.0273C0.497356 34.1618 7.88462 43.926 18.5829 47.0126C29.2812 50.0993 40.7344 45.7708 46.7171 36.3801C46.9234 36.0333 46.8651 35.5903 46.5761 35.3088C46.287 35.0272 45.8427 34.9805 45.5014 35.1958Z" fill="#F9A502"/>
<path d="M19.7516 11.3462H28.2764C28.6133 11.3156 29.2364 10.8025 29.2364 9.07708C29.2364 7.3229 28.1795 6.68843 26.4384 5.84799C25.9519 5.63032 25.4825 5.37622 25.0342 5.08785C24.6478 4.80612 24.3001 4.47485 24 4.10254C23.7009 4.47352 23.354 4.80336 22.9685 5.08348C22.5194 5.37256 22.0491 5.62725 21.5616 5.84538C19.8162 6.68232 18.7637 7.31679 18.7637 9.07447C18.7637 10.7981 19.3824 11.3121 19.7516 11.3462Z" fill="#F9A502"/>
</svg>
