<svg width="48" height="48" viewBox="0 0 48 48" fill="none" xmlns="http://www.w3.org/2000/svg">
<path d="M44.0925 21.8026L39.7575 17.4751V11.3476C39.7558 10.5246 39.4282 9.73577 38.8462 9.15382C38.2643 8.57188 37.4755 8.24422 36.6525 8.24258H30.525L26.1975 3.90758C25.6132 3.32749 24.8233 3.00195 24 3.00195C23.1767 3.00195 22.3867 3.32749 21.8025 3.90758L17.475 8.24258H11.3475C10.5245 8.24422 9.73568 8.57188 9.15373 9.15382C8.57179 9.73577 8.24413 10.5246 8.24249 11.3476V17.4751L3.90749 21.8026C3.32738 22.3868 3.00183 23.1768 3.00183 24.0001C3.00183 24.8234 3.32738 25.6133 3.90749 26.1976L8.24249 30.5251V36.6526C8.24414 37.4756 8.5718 38.2644 9.15374 38.8463C9.73569 39.4283 10.5245 39.7559 11.3475 39.7576H17.475L21.8025 44.0926C22.3867 44.6728 23.1766 44.9985 24 44.9985C24.8234 44.9985 25.6133 44.6728 26.1975 44.0926L30.525 39.7576H36.6525C37.4755 39.7559 38.2643 39.4283 38.8462 38.8463C39.4282 38.2644 39.7558 37.4756 39.7575 36.6526V30.5251L44.0925 26.1976C44.6726 25.6133 44.9981 24.8234 44.9981 24.0001C44.9981 23.1768 44.6726 22.3868 44.0925 21.8026ZM20.49 14.9626C20.4939 14.7663 20.5747 14.5793 20.7149 14.4419C20.8551 14.3044 21.0437 14.2274 21.24 14.2274C21.4364 14.2275 21.6249 14.3044 21.7651 14.4419C21.9053 14.5794 21.9861 14.7663 21.99 14.9626V16.1401C21.9936 16.3644 22.0853 16.5784 22.2453 16.7357C22.4052 16.8931 22.6206 16.9813 22.845 16.9813C23.0694 16.9813 23.2848 16.8931 23.4447 16.7357C23.6047 16.5783 23.6964 16.3644 23.7 16.14V14.9626C23.7029 14.7656 23.7832 14.5777 23.9236 14.4394C24.0639 14.3011 24.253 14.2236 24.45 14.2236C24.647 14.2236 24.8361 14.3012 24.9764 14.4394C25.1168 14.5777 25.1971 14.7656 25.2 14.9626C25.242 15.4031 25.0469 16.4307 25.455 16.7475C25.5754 16.8645 25.7275 16.9436 25.8925 16.975C26.0575 17.0063 26.228 16.9885 26.3829 16.9238C26.5379 16.8591 26.6704 16.7504 26.7641 16.611C26.8578 16.4717 26.9085 16.3079 26.91 16.14V14.9626C26.91 14.7637 26.989 14.5729 27.1297 14.4323C27.2703 14.2916 27.4611 14.2126 27.66 14.2126C27.8589 14.2126 28.0497 14.2916 28.1903 14.4323C28.331 14.5729 28.41 14.7637 28.41 14.9626V16.1401C28.4086 16.5981 28.2741 17.0459 28.0228 17.4289C27.7715 17.8118 27.4143 18.1135 26.9947 18.297C26.575 18.4806 26.1111 18.5383 25.6593 18.4629C25.2075 18.3875 24.7873 18.1824 24.45 17.8726C24.1127 18.1825 23.6925 18.3876 23.2407 18.4629C22.7889 18.5383 22.3249 18.4807 21.9053 18.2971C21.4856 18.1135 21.1284 17.8118 20.8771 17.4289C20.6259 17.0459 20.4914 16.5981 20.49 16.1401V14.9626ZM31.62 29.8276C31.6118 30.661 31.3413 31.4707 30.8469 32.1418C30.3525 32.8128 29.6594 33.3111 28.8658 33.566C28.0722 33.8208 27.2185 33.8192 26.4259 33.5614C25.6332 33.3037 24.9419 32.8028 24.45 32.13C23.9622 32.8141 23.2691 33.3249 22.4712 33.5884C21.6733 33.8518 20.8123 33.8541 20.013 33.595C19.2138 33.3358 18.5179 32.8287 18.0265 32.1472C17.535 31.4657 17.2735 30.6453 17.28 29.8051L13.5375 27.5926C13.187 27.3825 12.897 27.0852 12.6956 26.7296C12.4942 26.3741 12.3884 25.9724 12.3884 25.5638C12.3884 25.1552 12.4942 24.7535 12.6956 24.398C12.897 24.0425 13.1871 23.7452 13.5376 23.5351L17.4675 21.2176C17.5693 21.1059 17.7023 21.0273 17.8492 20.9921C17.9962 20.9568 18.1503 20.9664 18.2917 21.0198C18.4331 21.0731 18.5552 21.1677 18.6423 21.2912C18.7293 21.4147 18.7773 21.5615 18.78 21.7126V29.8276C18.78 30.48 19.0392 31.1057 19.5005 31.567C19.9618 32.0284 20.5876 32.2876 21.24 32.2876C21.8924 32.2876 22.5181 32.0284 22.9795 31.567C23.4408 31.1057 23.7 30.48 23.7 29.8276V21.7126C23.7029 21.5156 23.7832 21.3277 23.9236 21.1894C24.0639 21.0511 24.253 20.9736 24.45 20.9736C24.647 20.9736 24.8361 21.0512 24.9764 21.1894C25.1168 21.3277 25.1971 21.5156 25.2 21.7126V29.8276C25.2 30.48 25.4592 31.1057 25.9205 31.5671C26.3818 32.0284 27.0076 32.2876 27.66 32.2876C28.3124 32.2876 28.9381 32.0284 29.3995 31.5671C29.8608 31.1057 30.12 30.48 30.12 29.8276V21.7126C30.1232 21.5158 30.2036 21.3281 30.3439 21.19C30.4842 21.052 30.6732 20.9746 30.87 20.9746C31.0669 20.9746 31.2558 21.052 31.3961 21.19C31.5364 21.3281 31.6168 21.5158 31.62 21.7126V29.8276ZM35.625 33.0376C35.6219 33.2345 35.5416 33.4223 35.4012 33.5604C35.2609 33.6986 35.0719 33.776 34.875 33.776C34.678 33.776 34.489 33.6986 34.3487 33.5604C34.2084 33.4222 34.128 33.2344 34.125 33.0375V21.7126C34.128 21.5157 34.2084 21.3279 34.3487 21.1897C34.4891 21.0516 34.6781 20.9741 34.875 20.9741C35.0719 20.9741 35.261 21.0516 35.4013 21.1897C35.5416 21.3279 35.6219 21.5157 35.625 21.7126V33.0376ZM17.28 23.0701V28.0651L14.295 26.3026C14.165 26.2288 14.057 26.122 13.9818 25.9928C13.9066 25.8637 13.867 25.717 13.867 25.5676C13.867 25.4182 13.9066 25.2714 13.9818 25.1423C14.057 25.0132 14.165 24.9063 14.295 24.8326L17.28 23.0701Z" fill="#F9A502"/>
</svg>
