<svg width="40" height="40" viewBox="0 0 40 40" fill="none" xmlns="http://www.w3.org/2000/svg">
<g opacity="0.5">
<rect width="40" height="40" rx="12" fill="#171717" fill-opacity="0.9"/>
</g>
<path d="M9.293 20.707C9.20036 20.6139 9.12696 20.5035 9.077 20.382C9.02618 20.261 9 20.1312 9 20C9 19.8688 9.02618 19.7389 9.077 19.618C9.12696 19.4965 9.20036 19.3861 9.293 19.293L17.293 11.293C17.3853 11.1975 17.4956 11.1213 17.6176 11.0689C17.7396 11.0165 17.8708 10.9889 18.0036 10.9877C18.1364 10.9866 18.2681 11.0119 18.391 11.0622C18.5139 11.1124 18.6255 11.1867 18.7194 11.2806C18.8133 11.3745 18.8875 11.4861 18.9378 11.609C18.9881 11.7319 19.0134 11.8636 19.0123 11.9964C19.0111 12.1292 18.9835 12.2604 18.9311 12.3824C18.8787 12.5044 18.8025 12.6147 18.707 12.707L12.414 19H30C30.2652 19 30.5196 19.1053 30.7071 19.2929C30.8946 19.4804 31 19.7348 31 20C31 20.2652 30.8946 20.5196 30.7071 20.7071C30.5196 20.8946 30.2652 21 30 21H12.414L18.707 27.293C18.8892 27.4816 18.99 27.7342 18.9877 27.9964C18.9854 28.2586 18.8802 28.5094 18.6948 28.6948C18.5094 28.8802 18.2586 28.9854 17.9964 28.9877C17.7342 28.9899 17.4816 28.8891 17.293 28.707L9.293 20.707Z" fill="#F2F8FF"/>
</svg>
