<svg width="40" height="40" viewBox="0 0 40 40" fill="none" xmlns="http://www.w3.org/2000/svg">
<path d="M20 40C31.0457 40 40 31.0457 40 20C40 8.9543 31.0457 0 20 0C8.9543 0 0 8.9543 0 20C0 31.0457 8.9543 40 20 40Z" fill="#F9A502"/>
<path d="M26.25 27.5C26.1671 27.5 26.0876 27.4671 26.029 27.4085C25.9704 27.3499 25.9375 27.2704 25.9375 27.1875C25.9375 27.1046 25.9704 27.0251 26.029 26.9665C26.0876 26.9079 26.1671 26.875 26.25 26.875C26.4158 26.875 26.5747 26.8092 26.6919 26.6919C26.8092 26.5747 26.875 26.4158 26.875 26.25V13.75C26.875 13.5842 26.8092 13.4253 26.6919 13.3081C26.5747 13.1908 26.4158 13.125 26.25 13.125H13.75C13.5842 13.125 13.4253 13.1908 13.3081 13.3081C13.1908 13.4253 13.125 13.5842 13.125 13.75V24.0625C13.125 24.1454 13.0921 24.2249 13.0335 24.2835C12.9749 24.3421 12.8954 24.375 12.8125 24.375C12.7296 24.375 12.6501 24.3421 12.5915 24.2835C12.5329 24.2249 12.5 24.1454 12.5 24.0625V13.75C12.5 13.4185 12.6317 13.1005 12.8661 12.8661C13.1005 12.6317 13.4185 12.5 13.75 12.5H26.25C26.5815 12.5 26.8995 12.6317 27.1339 12.8661C27.3683 13.1005 27.5 13.4185 27.5 13.75V26.25C27.5 26.5815 27.3683 26.8995 27.1339 27.1339C26.8995 27.3683 26.5815 27.5 26.25 27.5Z" fill="white"/>
<path d="M20.9375 27.5H13.75C13.4185 27.5 13.1005 27.3683 12.8661 27.1339C12.6317 26.8995 12.5 26.5815 12.5 26.25V25C12.5 24.9171 12.5329 24.8376 12.5915 24.779C12.6501 24.7204 12.7296 24.6875 12.8125 24.6875C12.8954 24.6875 12.9749 24.7204 13.0335 24.779C13.0921 24.8376 13.125 24.9171 13.125 25V26.25C13.125 26.4158 13.1908 26.5747 13.3081 26.6919C13.4253 26.8092 13.5842 26.875 13.75 26.875H20.9375C21.0204 26.875 21.0999 26.9079 21.1585 26.9665C21.2171 27.0251 21.25 27.1046 21.25 27.1875C21.25 27.2704 21.2171 27.3499 21.1585 27.4085C21.0999 27.4671 21.0204 27.5 20.9375 27.5Z" fill="white"/>
<path d="M26.25 15.625H24.6875C24.6046 15.625 24.5251 15.5921 24.4665 15.5335C24.4079 15.4749 24.375 15.3954 24.375 15.3125C24.375 15.2296 24.4079 15.1501 24.4665 15.0915C24.5251 15.0329 24.6046 15 24.6875 15H26.25C26.3329 15 26.4124 15.0329 26.471 15.0915C26.5296 15.1501 26.5625 15.2296 26.5625 15.3125C26.5625 15.3954 26.5296 15.4749 26.471 15.5335C26.4124 15.5921 26.3329 15.625 26.25 15.625Z" fill="white"/>
<path d="M23.75 15.625H13.75C13.6671 15.625 13.5876 15.5921 13.529 15.5335C13.4704 15.4749 13.4375 15.3954 13.4375 15.3125C13.4375 15.2296 13.4704 15.1501 13.529 15.0915C13.5876 15.0329 13.6671 15 13.75 15H23.75C23.8329 15 23.9124 15.0329 23.971 15.0915C24.0296 15.1501 24.0625 15.2296 24.0625 15.3125C24.0625 15.3954 24.0296 15.4749 23.971 15.5335C23.9124 15.5921 23.8329 15.625 23.75 15.625Z" fill="white"/>
<path d="M15 14.375H14.375C14.2921 14.375 14.2126 14.3421 14.154 14.2835C14.0954 14.2249 14.0625 14.1454 14.0625 14.0625C14.0625 13.9796 14.0954 13.9001 14.154 13.8415C14.2126 13.7829 14.2921 13.75 14.375 13.75H15C15.0829 13.75 15.1624 13.7829 15.221 13.8415C15.2796 13.9001 15.3125 13.9796 15.3125 14.0625C15.3125 14.1454 15.2796 14.2249 15.221 14.2835C15.1624 14.3421 15.0829 14.375 15 14.375Z" fill="white"/>
<path d="M16.875 14.375H16.25C16.1671 14.375 16.0876 14.3421 16.029 14.2835C15.9704 14.2249 15.9375 14.1454 15.9375 14.0625C15.9375 13.9796 15.9704 13.9001 16.029 13.8415C16.0876 13.7829 16.1671 13.75 16.25 13.75H16.875C16.9579 13.75 17.0374 13.7829 17.096 13.8415C17.1546 13.9001 17.1875 13.9796 17.1875 14.0625C17.1875 14.1454 17.1546 14.2249 17.096 14.2835C17.0374 14.3421 16.9579 14.375 16.875 14.375Z" fill="white"/>
<path d="M18.75 14.375H18.125C18.0421 14.375 17.9626 14.3421 17.904 14.2835C17.8454 14.2249 17.8125 14.1454 17.8125 14.0625C17.8125 13.9796 17.8454 13.9001 17.904 13.8415C17.9626 13.7829 18.0421 13.75 18.125 13.75H18.75C18.8329 13.75 18.9124 13.7829 18.971 13.8415C19.0296 13.9001 19.0625 13.9796 19.0625 14.0625C19.0625 14.1454 19.0296 14.2249 18.971 14.2835C18.9124 14.3421 18.8329 14.375 18.75 14.375Z" fill="white"/>
<path d="M24.6875 27.5C24.6046 27.5 24.5251 27.467 24.4666 27.4084L23.125 26.0669L22.0959 27.0959C22.0568 27.135 22.0081 27.163 21.9546 27.1771C21.9012 27.1912 21.8449 27.1909 21.7916 27.1761C21.7384 27.1614 21.69 27.1328 21.6513 27.0932C21.6127 27.0536 21.5853 27.0045 21.5719 26.9509L20.3219 21.9509C20.3087 21.8986 20.3094 21.8437 20.3238 21.7916C20.3382 21.7396 20.3659 21.6922 20.404 21.654C20.4422 21.6159 20.4896 21.5882 20.5416 21.5738C20.5937 21.5594 20.6486 21.5587 20.7009 21.5719L25.7009 22.8219C25.7545 22.8353 25.8036 22.8627 25.8432 22.9013C25.8828 22.94 25.9114 22.9884 25.9261 23.0416C25.9409 23.0949 25.9412 23.1512 25.9271 23.2046C25.913 23.2581 25.885 23.3068 25.8459 23.3459L24.8169 24.375L26.1584 25.7166C26.217 25.7752 26.2499 25.8546 26.2499 25.9375C26.2499 26.0204 26.217 26.0998 26.1584 26.1584L24.9084 27.4084C24.8498 27.467 24.7704 27.5 24.6875 27.5ZM23.125 25.3125C23.2079 25.3125 23.2873 25.3454 23.3459 25.4041L24.6875 26.7456L25.4956 25.9375L24.1541 24.5959C24.0955 24.5373 24.0626 24.4579 24.0626 24.375C24.0626 24.2921 24.0955 24.2127 24.1541 24.1541L25.0137 23.2944L21.0547 22.3047L22.0444 26.2637L22.9041 25.4041C22.9626 25.3454 23.0421 25.3125 23.125 25.3125Z" fill="white"/>
<path d="M20.625 20.9375C20.5421 20.9375 20.4626 20.9046 20.404 20.846C20.3454 20.7874 20.3125 20.7079 20.3125 20.625V20C20.3125 19.9171 20.3454 19.8376 20.404 19.779C20.4626 19.7204 20.5421 19.6875 20.625 19.6875C20.7079 19.6875 20.7874 19.7204 20.846 19.779C20.9046 19.8376 20.9375 19.9171 20.9375 20V20.625C20.9375 20.7079 20.9046 20.7874 20.846 20.846C20.7874 20.9046 20.7079 20.9375 20.625 20.9375Z" fill="white"/>
<path d="M19.7409 21.3036C19.658 21.3036 19.5785 21.2707 19.5199 21.2121L19.0781 20.7702C19.0482 20.7414 19.0244 20.7069 19.008 20.6688C18.9917 20.6306 18.983 20.5896 18.9827 20.5481C18.9823 20.5066 18.9902 20.4655 19.0059 20.4271C19.0216 20.3887 19.0449 20.3538 19.0742 20.3244C19.1035 20.2951 19.1384 20.2719 19.1768 20.2562C19.2152 20.2405 19.2564 20.2326 19.2979 20.2329C19.3394 20.2333 19.3804 20.2419 19.4185 20.2583C19.4566 20.2747 19.4911 20.2985 19.5199 20.3283L19.9618 20.7702C20.0055 20.8139 20.0353 20.8696 20.0473 20.9302C20.0594 20.9908 20.0532 21.0536 20.0295 21.1107C20.0059 21.1678 19.9658 21.2166 19.9145 21.2509C19.8631 21.2853 19.8027 21.3036 19.7409 21.3036Z" fill="white"/>
<path d="M19.375 22.1875H18.75C18.6671 22.1875 18.5876 22.1546 18.529 22.096C18.4704 22.0374 18.4375 21.9579 18.4375 21.875C18.4375 21.7921 18.4704 21.7126 18.529 21.654C18.5876 21.5954 18.6671 21.5625 18.75 21.5625H19.375C19.4579 21.5625 19.5374 21.5954 19.596 21.654C19.6546 21.7126 19.6875 21.7921 19.6875 21.875C19.6875 21.9579 19.6546 22.0374 19.596 22.096C19.5374 22.1546 19.4579 22.1875 19.375 22.1875Z" fill="white"/>
<path d="M19.299 23.5132C19.2372 23.5132 19.1768 23.4949 19.1254 23.4605C19.074 23.4262 19.034 23.3774 19.0104 23.3203C18.9867 23.2632 18.9805 23.2004 18.9926 23.1398C19.0046 23.0792 19.0344 23.0235 19.0781 22.9798L19.5199 22.5379C19.5789 22.481 19.6578 22.4495 19.7398 22.4502C19.8217 22.4509 19.9001 22.4838 19.958 22.5417C20.016 22.5997 20.0488 22.678 20.0495 22.76C20.0502 22.8419 20.0187 22.9209 19.9618 22.9798L19.5199 23.4217C19.4614 23.4803 19.3819 23.5132 19.299 23.5132Z" fill="white"/>
<path d="M21.509 21.3033C21.4472 21.3033 21.3868 21.2849 21.3354 21.2506C21.284 21.2162 21.244 21.1674 21.2203 21.1103C21.1967 21.0533 21.1905 20.9904 21.2025 20.9298C21.2146 20.8692 21.2443 20.8135 21.288 20.7698L21.7299 20.328C21.7888 20.271 21.8678 20.2395 21.9497 20.2402C22.0317 20.241 22.11 20.2738 22.168 20.3318C22.2259 20.3897 22.2588 20.4681 22.2595 20.55C22.2602 20.632 22.2287 20.7109 22.1718 20.7698L21.7299 21.2117C21.6713 21.2703 21.5918 21.3033 21.509 21.3033Z" fill="white"/>
<path d="M25.625 19.375H14.375C14.2921 19.375 14.2126 19.3421 14.154 19.2835C14.0954 19.2249 14.0625 19.1454 14.0625 19.0625V16.5625C14.0625 16.4796 14.0954 16.4001 14.154 16.3415C14.2126 16.2829 14.2921 16.25 14.375 16.25H25.625C25.7079 16.25 25.7874 16.2829 25.846 16.3415C25.9046 16.4001 25.9375 16.4796 25.9375 16.5625V19.0625C25.9375 19.1454 25.9046 19.2249 25.846 19.2835C25.7874 19.3421 25.7079 19.375 25.625 19.375ZM14.6875 18.75H25.3125V16.875H14.6875V18.75Z" fill="white"/>
<path d="M17.5 20.625H14.375C14.2921 20.625 14.2126 20.5921 14.154 20.5335C14.0954 20.4749 14.0625 20.3954 14.0625 20.3125C14.0625 20.2296 14.0954 20.1501 14.154 20.0915C14.2126 20.0329 14.2921 20 14.375 20H17.5C17.5829 20 17.6624 20.0329 17.721 20.0915C17.7796 20.1501 17.8125 20.2296 17.8125 20.3125C17.8125 20.3954 17.7796 20.4749 17.721 20.5335C17.6624 20.5921 17.5829 20.625 17.5 20.625Z" fill="white"/>
<path d="M17.5 22.1875H14.375C14.2921 22.1875 14.2126 22.1546 14.154 22.096C14.0954 22.0374 14.0625 21.9579 14.0625 21.875C14.0625 21.7921 14.0954 21.7126 14.154 21.654C14.2126 21.5954 14.2921 21.5625 14.375 21.5625H17.5C17.5829 21.5625 17.6624 21.5954 17.721 21.654C17.7796 21.7126 17.8125 21.7921 17.8125 21.875C17.8125 21.9579 17.7796 22.0374 17.721 22.096C17.6624 22.1546 17.5829 22.1875 17.5 22.1875Z" fill="white"/>
<path d="M17.5 23.75H14.375C14.2921 23.75 14.2126 23.7171 14.154 23.6585C14.0954 23.5999 14.0625 23.5204 14.0625 23.4375C14.0625 23.3546 14.0954 23.2751 14.154 23.2165C14.2126 23.1579 14.2921 23.125 14.375 23.125H17.5C17.5829 23.125 17.6624 23.1579 17.721 23.2165C17.7796 23.2751 17.8125 23.3546 17.8125 23.4375C17.8125 23.5204 17.7796 23.5999 17.721 23.6585C17.6624 23.7171 17.5829 23.75 17.5 23.75Z" fill="white"/>
<path d="M20 25.3125H14.375C14.2921 25.3125 14.2126 25.2796 14.154 25.221C14.0954 25.1624 14.0625 25.0829 14.0625 25C14.0625 24.9171 14.0954 24.8376 14.154 24.779C14.2126 24.7204 14.2921 24.6875 14.375 24.6875H20C20.0829 24.6875 20.1624 24.7204 20.221 24.779C20.2796 24.8376 20.3125 24.9171 20.3125 25C20.3125 25.0829 20.2796 25.1624 20.221 25.221C20.1624 25.2796 20.0829 25.3125 20 25.3125Z" fill="white"/>
</svg>
