<svg width="40" height="40" viewBox="0 0 40 40" fill="none" xmlns="http://www.w3.org/2000/svg">
    <defs>
        <clipPath id="clip0_150_6755">
            <rect width="20" height="20" fill="white" transform="translate(10 10)" />
        </clipPath>
    </defs>
    <path
        d="M20 40C31.0457 40 40 31.0457 40 20C40 8.9543 31.0457 0 20 0C8.9543 0 0 8.9543 0 20C0 31.0457 8.9543 40 20 40Z"
        fill="#F9A502" />
    <g clip-path="url(#clip0_150_6755)">
        <mask id="path-2-inside-1_150_6755" fill="white">
            <path
                d="M11.9931 17.9185H11.7309C11.2719 17.918 10.8319 17.7354 10.5074 17.4109C10.1829 17.0863 10.0004 16.6463 10 16.1873V14.9722C10 14.91 10.0247 14.8504 10.0686 14.8064C10.1126 14.7625 10.1722 14.7378 10.2344 14.7378C10.2965 14.7378 10.3561 14.7625 10.4001 14.8064C10.4441 14.8504 10.4688 14.91 10.4688 14.9722V16.1873C10.469 16.522 10.6021 16.8429 10.8387 17.0796C11.0753 17.3162 11.3962 17.4494 11.7309 17.4497H11.9931C12.3278 17.4494 12.6487 17.3162 12.8853 17.0796C13.1219 16.8429 13.2549 16.522 13.2552 16.1873V14.9722C13.2552 14.91 13.2799 14.8504 13.3239 14.8064C13.3678 14.7625 13.4274 14.7378 13.4896 14.7378C13.5518 14.7378 13.6114 14.7625 13.6553 14.8064C13.6993 14.8504 13.724 14.91 13.724 14.9722V16.1873C13.7236 16.6463 13.5411 17.0863 13.2166 17.4109C12.8921 17.7354 12.4521 17.918 11.9931 17.9185Z" />
        </mask>
        <path
            d="M11.9931 17.9185H11.7309C11.2719 17.918 10.8319 17.7354 10.5074 17.4109C10.1829 17.0863 10.0004 16.6463 10 16.1873V14.9722C10 14.91 10.0247 14.8504 10.0686 14.8064C10.1126 14.7625 10.1722 14.7378 10.2344 14.7378C10.2965 14.7378 10.3561 14.7625 10.4001 14.8064C10.4441 14.8504 10.4688 14.91 10.4688 14.9722V16.1873C10.469 16.522 10.6021 16.8429 10.8387 17.0796C11.0753 17.3162 11.3962 17.4494 11.7309 17.4497H11.9931C12.3278 17.4494 12.6487 17.3162 12.8853 17.0796C13.1219 16.8429 13.2549 16.522 13.2552 16.1873V14.9722C13.2552 14.91 13.2799 14.8504 13.3239 14.8064C13.3678 14.7625 13.4274 14.7378 13.4896 14.7378C13.5518 14.7378 13.6114 14.7625 13.6553 14.8064C13.6993 14.8504 13.724 14.91 13.724 14.9722V16.1873C13.7236 16.6463 13.5411 17.0863 13.2166 17.4109C12.8921 17.7354 12.4521 17.918 11.9931 17.9185Z"
            fill="white" />
        <path
            d="M11.9931 17.9185V19.9185L11.9954 19.9185L11.9931 17.9185ZM11.7309 17.9185L11.7286 19.9185H11.7309V17.9185ZM10 16.1873H8L8 16.1892L10 16.1873ZM10 14.9722H8H10ZM10.4688 14.9722H12.4688H10.4688ZM10.4688 16.1873L8.46875 16.1873L8.46875 16.1891L10.4688 16.1873ZM11.7309 17.4497L11.7286 19.4497H11.7309V17.4497ZM11.9931 17.4497V19.4497L11.9954 19.4497L11.9931 17.4497ZM13.2552 16.1873L15.2552 16.1891V16.1873H13.2552ZM13.724 16.1873L15.724 16.1892V16.1873H13.724ZM11.9931 15.9185H11.7309V19.9185H11.9931V15.9185ZM11.7331 15.9185C11.8039 15.9186 11.8717 15.9467 11.9218 15.9968L9.09308 18.8249C9.7921 19.5241 10.7399 19.9174 11.7286 19.9185L11.7331 15.9185ZM11.9218 15.9968C11.9718 16.0468 11.9999 16.1147 12 16.1854L8 16.1892C8.00094 17.1779 8.39405 18.1258 9.09308 18.8249L11.9218 15.9968ZM12 16.1873V14.9722H8V16.1873H12ZM12 14.9722C12 15.4404 11.814 15.8895 11.4829 16.2207L8.65443 13.3922C8.23541 13.8113 8 14.3796 8 14.9722H12ZM11.4829 16.2207C11.1517 16.5518 10.7027 16.7378 10.2344 16.7378V12.7378C9.64178 12.7378 9.07346 12.9732 8.65443 13.3922L11.4829 16.2207ZM10.2344 16.7378C9.7661 16.7378 9.31701 16.5518 8.98589 16.2207L11.8143 13.3922C11.3953 12.9732 10.827 12.7378 10.2344 12.7378V16.7378ZM8.98589 16.2207C8.65477 15.8895 8.46875 15.4404 8.46875 14.9722H12.4688C12.4688 14.3796 12.2333 13.8113 11.8143 13.3922L8.98589 16.2207ZM8.46875 14.9722V16.1873H12.4688V14.9722H8.46875ZM8.46875 16.1891C8.4695 17.0535 8.81316 17.8823 9.42433 18.4936L12.2531 15.6655C12.391 15.8035 12.4686 15.9905 12.4687 16.1856L8.46875 16.1891ZM9.42433 18.4936C10.0355 19.1049 10.8642 19.4488 11.7286 19.4497L11.7331 15.4497C11.9282 15.45 12.1152 15.5276 12.2531 15.6655L9.42433 18.4936ZM11.7309 19.4497H11.9931V15.4497H11.7309V19.4497ZM11.9954 19.4497C12.8598 19.4488 13.6885 19.1049 14.2997 18.4936L11.4709 15.6655C11.6088 15.5276 11.7958 15.45 11.9909 15.4497L11.9954 19.4497ZM14.2997 18.4936C14.9108 17.8823 15.2545 17.0535 15.2552 16.1891L11.2552 16.1856C11.2554 15.9905 11.333 15.8035 11.4709 15.6655L14.2997 18.4936ZM15.2552 16.1873V14.9722H11.2552V16.1873H15.2552ZM15.2552 14.9722C15.2552 15.4404 15.0692 15.8895 14.7381 16.2207L11.9097 13.3922C11.4906 13.8113 11.2552 14.3796 11.2552 14.9722H15.2552ZM14.7381 16.2207C14.407 16.5518 13.9579 16.7378 13.4896 16.7378V12.7378C12.897 12.7378 12.3287 12.9732 11.9097 13.3922L14.7381 16.2207ZM13.4896 16.7378C13.0213 16.7378 12.5722 16.5518 12.2411 16.2207L15.0696 13.3922C14.6505 12.9732 14.0822 12.7378 13.4896 12.7378V16.7378ZM12.2411 16.2207C11.91 15.8895 11.724 15.4404 11.724 14.9722H15.724C15.724 14.3796 15.4886 13.8113 15.0696 13.3922L12.2411 16.2207ZM11.724 14.9722V16.1873H15.724V14.9722H11.724ZM11.724 16.1854C11.7241 16.1147 11.7522 16.0468 11.8022 15.9968L14.6309 18.8249C15.3299 18.1258 15.723 17.1779 15.724 16.1892L11.724 16.1854ZM11.8022 15.9968C11.8523 15.9467 11.9201 15.9186 11.9909 15.9185L11.9954 19.9185C12.984 19.9174 13.9319 19.5241 14.6309 18.8249L11.8022 15.9968Z"
            fill="white" mask="url(#path-2-inside-1_150_6755)" />
        <mask id="path-4-inside-2_150_6755" fill="white">
            <path
                d="M15.2483 17.9185H14.9859C14.527 17.918 14.087 17.7354 13.7625 17.4108C13.438 17.0863 13.2556 16.6463 13.2551 16.1873V14.9722C13.2551 14.91 13.2798 14.8504 13.3238 14.8064C13.3677 14.7625 13.4273 14.7378 13.4895 14.7378C13.5517 14.7378 13.6113 14.7625 13.6552 14.8064C13.6992 14.8504 13.7239 14.91 13.7239 14.9722V16.1873C13.7242 16.522 13.8572 16.8429 14.0938 17.0795C14.3304 17.3162 14.6512 17.4494 14.9859 17.4497H15.2483C15.5829 17.4494 15.9037 17.3162 16.1403 17.0795C16.3769 16.8429 16.51 16.522 16.5103 16.1873V14.9722C16.5103 14.91 16.535 14.8504 16.5789 14.8064C16.6229 14.7625 16.6825 14.7378 16.7447 14.7378C16.8068 14.7378 16.8664 14.7625 16.9104 14.8064C16.9543 14.8504 16.979 14.91 16.979 14.9722V16.1873C16.9786 16.6463 16.7961 17.0863 16.4716 17.4108C16.1472 17.7354 15.7072 17.918 15.2483 17.9185Z" />
        </mask>
        <path
            d="M15.2483 17.9185H14.9859C14.527 17.918 14.087 17.7354 13.7625 17.4108C13.438 17.0863 13.2556 16.6463 13.2551 16.1873V14.9722C13.2551 14.91 13.2798 14.8504 13.3238 14.8064C13.3677 14.7625 13.4273 14.7378 13.4895 14.7378C13.5517 14.7378 13.6113 14.7625 13.6552 14.8064C13.6992 14.8504 13.7239 14.91 13.7239 14.9722V16.1873C13.7242 16.522 13.8572 16.8429 14.0938 17.0795C14.3304 17.3162 14.6512 17.4494 14.9859 17.4497H15.2483C15.5829 17.4494 15.9037 17.3162 16.1403 17.0795C16.3769 16.8429 16.51 16.522 16.5103 16.1873V14.9722C16.5103 14.91 16.535 14.8504 16.5789 14.8064C16.6229 14.7625 16.6825 14.7378 16.7447 14.7378C16.8068 14.7378 16.8664 14.7625 16.9104 14.8064C16.9543 14.8504 16.979 14.91 16.979 14.9722V16.1873C16.9786 16.6463 16.7961 17.0863 16.4716 17.4108C16.1472 17.7354 15.7072 17.918 15.2483 17.9185Z"
            fill="white" />
        <path
            d="M15.2483 17.9185V19.9185L15.2506 19.9185L15.2483 17.9185ZM14.9859 17.9185L14.9836 19.9185H14.9859V17.9185ZM13.2551 16.1873H11.2551L11.2551 16.1892L13.2551 16.1873ZM13.7239 16.1873L11.7239 16.1873L11.7239 16.1891L13.7239 16.1873ZM14.9859 17.4497L14.9836 19.4497H14.9859V17.4497ZM15.2483 17.4497V19.4497L15.2506 19.4497L15.2483 17.4497ZM16.5103 16.1873L18.5103 16.1891V16.1873H16.5103ZM16.979 16.1873L18.979 16.1892V16.1873H16.979ZM15.2483 15.9185H14.9859V19.9185H15.2483V15.9185ZM14.9883 15.9185C15.059 15.9186 15.1269 15.9467 15.1769 15.9968L12.3481 18.8249C13.0471 19.524 13.9949 19.9173 14.9836 19.9185L14.9883 15.9185ZM15.1769 15.9968C15.2269 16.0468 15.2551 16.1147 15.2551 16.1854L11.2551 16.1892C11.2561 17.1778 11.6492 18.1257 12.3481 18.8249L15.1769 15.9968ZM15.2551 16.1873V14.9722H11.2551V16.1873H15.2551ZM15.2551 14.9722C15.2551 15.4404 15.0691 15.8895 14.738 16.2207L11.9096 13.3922C11.4905 13.8113 11.2551 14.3796 11.2551 14.9722H15.2551ZM14.738 16.2207C14.4069 16.5518 13.9578 16.7378 13.4895 16.7378V12.7378C12.8969 12.7378 12.3286 12.9732 11.9096 13.3922L14.738 16.2207ZM13.4895 16.7378C13.0212 16.7378 12.5721 16.5518 12.241 16.2207L15.0694 13.3922C14.6504 12.9732 14.0821 12.7378 13.4895 12.7378V16.7378ZM12.241 16.2207C11.9099 15.8895 11.7239 15.4404 11.7239 14.9722H15.7239C15.7239 14.3796 15.4885 13.8113 15.0694 13.3922L12.241 16.2207ZM11.7239 14.9722V16.1873H15.7239V14.9722H11.7239ZM11.7239 16.1891C11.7246 17.0534 12.0683 17.8822 12.6794 18.4935L15.5082 15.6655C15.6462 15.8035 15.7237 15.9905 15.7239 16.1856L11.7239 16.1891ZM12.6794 18.4935C13.2905 19.1048 14.1192 19.4487 14.9836 19.4497L14.9883 15.4497C15.1833 15.45 15.3703 15.5276 15.5082 15.6655L12.6794 18.4935ZM14.9859 19.4497H15.2483V15.4497H14.9859V19.4497ZM15.2506 19.4497C16.115 19.4487 16.9437 19.1048 17.5548 18.4935L14.7259 15.6655C14.8638 15.5276 15.0508 15.45 15.2459 15.4497L15.2506 19.4497ZM17.5548 18.4935C18.1659 17.8822 18.5095 17.0534 18.5103 16.1891L14.5103 16.1856C14.5105 15.9905 14.588 15.8035 14.7259 15.6655L17.5548 18.4935ZM18.5103 16.1873V14.9722H14.5103V16.1873H18.5103ZM18.5103 14.9722C18.5103 15.4404 18.3243 15.8895 17.9931 16.2207L15.1647 13.3922C14.7457 13.8113 14.5103 14.3796 14.5103 14.9722H18.5103ZM17.9931 16.2207C17.662 16.5518 17.2129 16.7378 16.7447 16.7378V12.7378C16.1521 12.7378 15.5837 12.9732 15.1647 13.3922L17.9931 16.2207ZM16.7447 16.7378C16.2764 16.7378 15.8273 16.5518 15.4962 16.2207L18.3246 13.3922C17.9056 12.9732 17.3373 12.7378 16.7447 12.7378V16.7378ZM15.4962 16.2207C15.1651 15.8895 14.979 15.4404 14.979 14.9722H18.979C18.979 14.3796 18.7436 13.8113 18.3246 13.3922L15.4962 16.2207ZM14.979 14.9722V16.1873H18.979V14.9722H14.979ZM14.979 16.1854C14.9791 16.1147 15.0072 16.0468 15.0573 15.9968L17.886 18.8249C18.585 18.1257 18.9781 17.1778 18.979 16.1892L14.979 16.1854ZM15.0573 15.9968C15.1073 15.9467 15.1751 15.9186 15.2459 15.9185L15.2506 19.9185C16.2392 19.9173 17.187 19.524 17.886 18.8249L15.0573 15.9968Z"
            fill="white" mask="url(#path-4-inside-2_150_6755)" />
        <path d="M20.2345 15.2065V15.2065L20.0001 14.9722L20.2345 15.2065Z" fill="white" stroke="white"
            stroke-width="2" />
        <mask id="path-7-inside-3_150_6755" fill="white">
            <path
                d="M21.7587 17.9185H21.4965C21.0375 17.918 20.5975 17.7354 20.273 17.4109C19.9485 17.0863 19.7661 16.6463 19.7656 16.1873V14.9722C19.7656 14.91 19.7903 14.8504 19.8343 14.8064C19.8782 14.7625 19.9378 14.7378 20 14.7378C20.0622 14.7378 20.1218 14.7625 20.1657 14.8064C20.2097 14.8504 20.2344 14.91 20.2344 14.9722V16.1873C20.2347 16.5219 20.3678 16.8427 20.6044 17.0794C20.8411 17.316 21.1619 17.4491 21.4965 17.4494H21.7587C22.0934 17.4491 22.4142 17.316 22.6508 17.0794C22.8874 16.8427 23.0205 16.5219 23.0209 16.1873V14.9722C23.0209 14.91 23.0456 14.8504 23.0895 14.8064C23.1335 14.7625 23.1931 14.7378 23.2552 14.7378C23.3174 14.7378 23.377 14.7625 23.421 14.8064C23.4649 14.8504 23.4896 14.91 23.4896 14.9722V16.1873C23.4892 16.6463 23.3067 17.0863 22.9822 17.4109C22.6577 17.7354 22.2177 17.918 21.7587 17.9185Z" />
        </mask>
        <path
            d="M21.7587 17.9185H21.4965C21.0375 17.918 20.5975 17.7354 20.273 17.4109C19.9485 17.0863 19.7661 16.6463 19.7656 16.1873V14.9722C19.7656 14.91 19.7903 14.8504 19.8343 14.8064C19.8782 14.7625 19.9378 14.7378 20 14.7378C20.0622 14.7378 20.1218 14.7625 20.1657 14.8064C20.2097 14.8504 20.2344 14.91 20.2344 14.9722V16.1873C20.2347 16.5219 20.3678 16.8427 20.6044 17.0794C20.8411 17.316 21.1619 17.4491 21.4965 17.4494H21.7587C22.0934 17.4491 22.4142 17.316 22.6508 17.0794C22.8874 16.8427 23.0205 16.5219 23.0209 16.1873V14.9722C23.0209 14.91 23.0456 14.8504 23.0895 14.8064C23.1335 14.7625 23.1931 14.7378 23.2552 14.7378C23.3174 14.7378 23.377 14.7625 23.421 14.8064C23.4649 14.8504 23.4896 14.91 23.4896 14.9722V16.1873C23.4892 16.6463 23.3067 17.0863 22.9822 17.4109C22.6577 17.7354 22.2177 17.918 21.7587 17.9185Z"
            fill="white" />
        <path
            d="M21.7587 17.9185V19.9185L21.761 19.9185L21.7587 17.9185ZM21.4965 17.9185L21.4942 19.9185H21.4965V17.9185ZM19.7656 16.1873H17.7656L17.7656 16.1892L19.7656 16.1873ZM20.2344 16.1873H18.2344L18.2344 16.1895L20.2344 16.1873ZM21.4965 17.4494L21.4943 19.4494H21.4965V17.4494ZM21.7587 17.4494V19.4494L21.761 19.4494L21.7587 17.4494ZM23.0209 16.1873L25.0209 16.1895V16.1873H23.0209ZM23.4896 16.1873L25.4896 16.1892V16.1873H23.4896ZM21.7587 15.9185H21.4965V19.9185H21.7587V15.9185ZM21.4987 15.9185C21.5695 15.9186 21.6373 15.9467 21.6874 15.9968L18.8587 18.8249C19.5577 19.5241 20.5056 19.9174 21.4942 19.9185L21.4987 15.9185ZM21.6874 15.9968C21.7374 16.0468 21.7656 16.1147 21.7656 16.1854L17.7656 16.1892C17.7666 17.1779 18.1597 18.1258 18.8587 18.8249L21.6874 15.9968ZM21.7656 16.1873V14.9722H17.7656V16.1873H21.7656ZM21.7656 14.9722C21.7656 15.4404 21.5796 15.8895 21.2485 16.2207L18.4201 13.3922C18.001 13.8113 17.7656 14.3796 17.7656 14.9722H21.7656ZM21.2485 16.2207C20.9174 16.5518 20.4683 16.7378 20 16.7378V12.7378C19.4074 12.7378 18.8391 12.9732 18.4201 13.3922L21.2485 16.2207ZM20 16.7378C19.5317 16.7378 19.0826 16.5518 18.7515 16.2207L21.5799 13.3922C21.1609 12.9732 20.5926 12.7378 20 12.7378V16.7378ZM18.7515 16.2207C18.4204 15.8895 18.2344 15.4404 18.2344 14.9722H22.2344C22.2344 14.3796 21.999 13.8113 21.5799 13.3922L18.7515 16.2207ZM18.2344 14.9722V16.1873H22.2344V14.9722H18.2344ZM18.2344 16.1895C18.2353 17.0538 18.5791 17.8824 19.1902 18.4936L22.0187 15.6651C22.1566 15.8031 22.2342 15.9901 22.2344 16.1851L18.2344 16.1895ZM19.1902 18.4936C19.8014 19.1047 20.63 19.4485 21.4943 19.4494L21.4987 15.4494C21.6938 15.4497 21.8807 15.5272 22.0187 15.6651L19.1902 18.4936ZM21.4965 19.4494H21.7587V15.4494H21.4965V19.4494ZM21.761 19.4494C22.6253 19.4485 23.4539 19.1047 24.065 18.4936L21.2366 15.6651C21.3745 15.5272 21.5615 15.4497 21.7565 15.4494L21.761 19.4494ZM24.065 18.4936C24.6761 17.8824 25.0199 17.0538 25.0209 16.1895L21.0209 16.1851C21.0211 15.9901 21.0987 15.8031 21.2366 15.6651L24.065 18.4936ZM25.0209 16.1873V14.9722H21.0209V16.1873H25.0209ZM25.0209 14.9722C25.0209 15.4404 24.8348 15.8895 24.5037 16.2207L21.6753 13.3922C21.2563 13.8113 21.0209 14.3796 21.0209 14.9722H25.0209ZM24.5037 16.2207C24.1726 16.5518 23.7235 16.7378 23.2552 16.7378V12.7378C22.6626 12.7378 22.0943 12.9732 21.6753 13.3922L24.5037 16.2207ZM23.2552 16.7378C22.787 16.7378 22.3379 16.5518 22.0067 16.2207L24.8352 13.3922C24.4162 12.9732 23.8478 12.7378 23.2552 12.7378V16.7378ZM22.0067 16.2207C21.6756 15.8896 21.4896 15.4405 21.4896 14.9722H25.4896C25.4896 14.3796 25.2542 13.8112 24.8352 13.3922L22.0067 16.2207ZM21.4896 14.9722V16.1873H25.4896V14.9722H21.4896ZM21.4896 16.1854C21.4897 16.1147 21.5178 16.0468 21.5679 15.9968L24.3965 18.8249C25.0956 18.1258 25.4887 17.1779 25.4896 16.1892L21.4896 16.1854ZM21.5679 15.9968C21.6179 15.9467 21.6857 15.9186 21.7565 15.9185L21.761 19.9185C22.7497 19.9174 23.6975 19.5241 24.3965 18.8249L21.5679 15.9968Z"
            fill="white" mask="url(#path-7-inside-3_150_6755)" />
        <mask id="path-9-inside-4_150_6755" fill="white">
            <path
                d="M25.0139 17.9185H24.7515C24.2926 17.918 23.8526 17.7354 23.5281 17.4108C23.2037 17.0863 23.0212 16.6463 23.0208 16.1873V14.9722C23.0208 14.91 23.0454 14.8504 23.0894 14.8064C23.1334 14.7625 23.193 14.7378 23.2551 14.7378C23.3173 14.7378 23.3769 14.7625 23.4209 14.8064C23.4648 14.8504 23.4895 14.91 23.4895 14.9722V16.1873C23.4899 16.5219 23.623 16.8427 23.8595 17.0793C24.0961 17.3159 24.4169 17.449 24.7515 17.4494H25.0139C25.3485 17.449 25.6693 17.3159 25.9059 17.0793C26.1425 16.8427 26.2755 16.5219 26.2759 16.1873V14.9722C26.2759 14.91 26.3006 14.8504 26.3446 14.8064C26.3885 14.7625 26.4481 14.7378 26.5103 14.7378C26.5724 14.7378 26.6321 14.7625 26.676 14.8064C26.72 14.8504 26.7447 14.91 26.7447 14.9722V16.1873C26.7442 16.6463 26.5617 17.0863 26.2373 17.4108C25.9128 17.7354 25.4728 17.918 25.0139 17.9185Z" />
        </mask>
        <path
            d="M25.0139 17.9185H24.7515C24.2926 17.918 23.8526 17.7354 23.5281 17.4108C23.2037 17.0863 23.0212 16.6463 23.0208 16.1873V14.9722C23.0208 14.91 23.0454 14.8504 23.0894 14.8064C23.1334 14.7625 23.193 14.7378 23.2551 14.7378C23.3173 14.7378 23.3769 14.7625 23.4209 14.8064C23.4648 14.8504 23.4895 14.91 23.4895 14.9722V16.1873C23.4899 16.5219 23.623 16.8427 23.8595 17.0793C24.0961 17.3159 24.4169 17.449 24.7515 17.4494H25.0139C25.3485 17.449 25.6693 17.3159 25.9059 17.0793C26.1425 16.8427 26.2755 16.5219 26.2759 16.1873V14.9722C26.2759 14.91 26.3006 14.8504 26.3446 14.8064C26.3885 14.7625 26.4481 14.7378 26.5103 14.7378C26.5724 14.7378 26.6321 14.7625 26.676 14.8064C26.72 14.8504 26.7447 14.91 26.7447 14.9722V16.1873C26.7442 16.6463 26.5617 17.0863 26.2373 17.4108C25.9128 17.7354 25.4728 17.918 25.0139 17.9185Z"
            fill="white" />
        <path
            d="M25.0139 17.9185V19.9185L25.0162 19.9185L25.0139 17.9185ZM24.7515 17.9185L24.7492 19.9185H24.7515V17.9185ZM23.0208 16.1873H21.0208L21.0208 16.1892L23.0208 16.1873ZM23.4895 16.1873H21.4895L21.4895 16.1895L23.4895 16.1873ZM24.7515 17.4494L24.7492 19.4494H24.7515V17.4494ZM25.0139 17.4494V19.4494L25.0162 19.4494L25.0139 17.4494ZM26.2759 16.1873L28.2759 16.1895V16.1873H26.2759ZM26.7447 16.1873L28.7447 16.1892V16.1873H26.7447ZM25.0139 15.9185H24.7515V19.9185H25.0139V15.9185ZM24.7539 15.9185C24.8246 15.9186 24.8925 15.9467 24.9425 15.9968L22.1138 18.8249C22.8128 19.524 23.7606 19.9173 24.7492 19.9185L24.7539 15.9185ZM24.9425 15.9968C24.9925 16.0468 25.0207 16.1147 25.0208 16.1854L21.0208 16.1892C21.0217 17.1778 21.4148 18.1257 22.1138 18.8249L24.9425 15.9968ZM25.0208 16.1873V14.9722H21.0208V16.1873H25.0208ZM25.0208 14.9722C25.0208 15.4404 24.8347 15.8895 24.5036 16.2207L21.6752 13.3922C21.2562 13.8113 21.0208 14.3796 21.0208 14.9722H25.0208ZM24.5036 16.2207C24.1725 16.5518 23.7234 16.7378 23.2551 16.7378V12.7378C22.6625 12.7378 22.0942 12.9732 21.6752 13.3922L24.5036 16.2207ZM23.2551 16.7378C22.7868 16.7378 22.3378 16.5518 22.0066 16.2207L24.8351 13.3922C24.416 12.9732 23.8477 12.7378 23.2551 12.7378V16.7378ZM22.0066 16.2207C21.6755 15.8896 21.4895 15.4405 21.4895 14.9722H25.4895C25.4895 14.3796 25.2541 13.8112 24.8351 13.3922L22.0066 16.2207ZM21.4895 14.9722V16.1873H25.4895V14.9722H21.4895ZM21.4895 16.1895C21.4905 17.0538 21.8342 17.8824 22.4453 18.4935L25.2738 15.6652C25.4117 15.8031 25.4893 15.9901 25.4895 16.1851L21.4895 16.1895ZM22.4453 18.4935C23.0564 19.1046 23.8849 19.4484 24.7492 19.4494L24.7539 15.4494C24.9489 15.4497 25.1359 15.5272 25.2738 15.6652L22.4453 18.4935ZM24.7515 19.4494H25.0139V15.4494H24.7515V19.4494ZM25.0162 19.4494C25.8805 19.4484 26.709 19.1046 27.3201 18.4935L24.4916 15.6652C24.6295 15.5272 24.8165 15.4497 25.0115 15.4494L25.0162 19.4494ZM27.3201 18.4935C27.9312 17.8824 28.2749 17.0538 28.2759 16.1895L24.2759 16.1851C24.2761 15.9901 24.3537 15.8031 24.4916 15.6652L27.3201 18.4935ZM28.2759 16.1873V14.9722H24.2759V16.1873H28.2759ZM28.2759 14.9722C28.2759 15.4405 28.0899 15.8896 27.7588 16.2207L24.9303 13.3922C24.5113 13.8112 24.2759 14.3796 24.2759 14.9722H28.2759ZM27.7588 16.2207C27.4277 16.5518 26.9786 16.7378 26.5103 16.7378V12.7378C25.9177 12.7378 25.3494 12.9732 24.9303 13.3922L27.7588 16.2207ZM26.5103 16.7378C26.042 16.7378 25.5929 16.5518 25.2618 16.2207L28.0902 13.3922C27.6712 12.9732 27.1029 12.7378 26.5103 12.7378V16.7378ZM25.2618 16.2207C24.9307 15.8895 24.7447 15.4404 24.7447 14.9722H28.7447C28.7447 14.3796 28.5093 13.8113 28.0902 13.3922L25.2618 16.2207ZM24.7447 14.9722V16.1873H28.7447V14.9722H24.7447ZM24.7447 16.1854C24.7447 16.1147 24.7729 16.0468 24.8229 15.9968L27.6516 18.8249C28.3506 18.1257 28.7437 17.1778 28.7447 16.1892L24.7447 16.1854ZM24.8229 15.9968C24.8729 15.9467 24.9408 15.9186 25.0115 15.9185L25.0162 19.9185C26.0049 19.9173 26.9527 19.524 27.6516 18.8249L24.8229 15.9968Z"
            fill="white" mask="url(#path-9-inside-4_150_6755)" />
        <mask id="path-11-inside-5_150_6755" fill="white">
            <path
                d="M28.2692 17.9185H28.007C27.548 17.918 27.108 17.7354 26.7835 17.4109C26.459 17.0863 26.2766 16.6463 26.2761 16.1873V14.9722C26.2761 14.91 26.3008 14.8504 26.3448 14.8064C26.3887 14.7625 26.4483 14.7378 26.5105 14.7378C26.5727 14.7378 26.6323 14.7625 26.6762 14.8064C26.7202 14.8504 26.7449 14.91 26.7449 14.9722V16.1873C26.7452 16.5219 26.8783 16.8427 27.1149 17.0794C27.3516 17.316 27.6724 17.4491 28.007 17.4494H28.2692C28.6039 17.4491 28.9247 17.316 29.1613 17.0794C29.3979 16.8427 29.531 16.5219 29.5314 16.1873V14.9722C29.5314 14.91 29.5561 14.8504 29.6 14.8064C29.644 14.7625 29.7036 14.7378 29.7657 14.7378C29.8279 14.7378 29.8875 14.7625 29.9315 14.8064C29.9754 14.8504 30.0001 14.91 30.0001 14.9722V16.1873C29.9997 16.6463 29.8172 17.0863 29.4927 17.4109C29.1682 17.7354 28.7282 17.918 28.2692 17.9185Z" />
        </mask>
        <path
            d="M28.2692 17.9185H28.007C27.548 17.918 27.108 17.7354 26.7835 17.4109C26.459 17.0863 26.2766 16.6463 26.2761 16.1873V14.9722C26.2761 14.91 26.3008 14.8504 26.3448 14.8064C26.3887 14.7625 26.4483 14.7378 26.5105 14.7378C26.5727 14.7378 26.6323 14.7625 26.6762 14.8064C26.7202 14.8504 26.7449 14.91 26.7449 14.9722V16.1873C26.7452 16.5219 26.8783 16.8427 27.1149 17.0794C27.3516 17.316 27.6724 17.4491 28.007 17.4494H28.2692C28.6039 17.4491 28.9247 17.316 29.1613 17.0794C29.3979 16.8427 29.531 16.5219 29.5314 16.1873V14.9722C29.5314 14.91 29.5561 14.8504 29.6 14.8064C29.644 14.7625 29.7036 14.7378 29.7657 14.7378C29.8279 14.7378 29.8875 14.7625 29.9315 14.8064C29.9754 14.8504 30.0001 14.91 30.0001 14.9722V16.1873C29.9997 16.6463 29.8172 17.0863 29.4927 17.4109C29.1682 17.7354 28.7282 17.918 28.2692 17.9185Z"
            fill="white" />
        <path
            d="M28.2692 17.9185V19.9185L28.2715 19.9185L28.2692 17.9185ZM28.007 17.9185L28.0047 19.9185H28.007V17.9185ZM26.2761 16.1873H24.2761L24.2761 16.1892L26.2761 16.1873ZM26.7449 16.1873H24.7449L24.7449 16.1895L26.7449 16.1873ZM28.007 17.4494L28.0048 19.4494H28.007V17.4494ZM28.2692 17.4494V19.4494L28.2715 19.4494L28.2692 17.4494ZM29.5314 16.1873L31.5314 16.1895V16.1873H29.5314ZM30.0001 16.1873L32.0001 16.1892V16.1873H30.0001ZM28.2692 15.9185H28.007V19.9185H28.2692V15.9185ZM28.0092 15.9185C28.08 15.9186 28.1478 15.9467 28.1979 15.9968L25.3692 18.8249C26.0682 19.5241 27.0161 19.9174 28.0047 19.9185L28.0092 15.9185ZM28.1979 15.9968C28.2479 16.0468 28.2761 16.1147 28.2761 16.1854L24.2761 16.1892C24.2771 17.1779 24.6702 18.1258 25.3692 18.8249L28.1979 15.9968ZM28.2761 16.1873V14.9722H24.2761V16.1873H28.2761ZM28.2761 14.9722C28.2761 15.4405 28.0901 15.8896 27.759 16.2207L24.9306 13.3922C24.5115 13.8112 24.2761 14.3796 24.2761 14.9722H28.2761ZM27.759 16.2207C27.4279 16.5518 26.9788 16.7378 26.5105 16.7378V12.7378C25.9179 12.7378 25.3496 12.9732 24.9306 13.3922L27.759 16.2207ZM26.5105 16.7378C26.0422 16.7378 25.5931 16.5518 25.262 16.2207L28.0904 13.3922C27.6714 12.9732 27.1031 12.7378 26.5105 12.7378V16.7378ZM25.262 16.2207C24.9309 15.8895 24.7449 15.4404 24.7449 14.9722H28.7449C28.7449 14.3796 28.5095 13.8113 28.0904 13.3922L25.262 16.2207ZM24.7449 14.9722V16.1873H28.7449V14.9722H24.7449ZM24.7449 16.1895C24.7458 17.0538 25.0896 17.8824 25.7007 18.4936L28.5292 15.6651C28.6671 15.8031 28.7447 15.9901 28.7449 16.1851L24.7449 16.1895ZM25.7007 18.4936C26.3119 19.1047 27.1405 19.4485 28.0048 19.4494L28.0092 15.4494C28.2043 15.4497 28.3912 15.5272 28.5292 15.6651L25.7007 18.4936ZM28.007 19.4494H28.2692V15.4494H28.007V19.4494ZM28.2715 19.4494C29.1358 19.4485 29.9644 19.1047 30.5755 18.4936L27.7471 15.6651C27.885 15.5272 28.072 15.4497 28.267 15.4494L28.2715 19.4494ZM30.5755 18.4936C31.1866 17.8824 31.5304 17.0538 31.5314 16.1895L27.5314 16.1851C27.5316 15.9901 27.6092 15.8031 27.7471 15.6651L30.5755 18.4936ZM31.5314 16.1873V14.9722H27.5314V16.1873H31.5314ZM31.5314 14.9722C31.5314 15.4404 31.3453 15.8895 31.0142 16.2207L28.1858 13.3922C27.7668 13.8113 27.5314 14.3796 27.5314 14.9722H31.5314ZM31.0142 16.2207C30.6831 16.5518 30.234 16.7378 29.7657 16.7378V12.7378C29.1731 12.7378 28.6048 12.9732 28.1858 13.3922L31.0142 16.2207ZM29.7657 16.7378C29.2975 16.7378 28.8484 16.5518 28.5172 16.2207L31.3457 13.3922C30.9266 12.9732 30.3583 12.7378 29.7657 12.7378V16.7378ZM28.5172 16.2207C28.1861 15.8895 28.0001 15.4404 28.0001 14.9722H32.0001C32.0001 14.3796 31.7647 13.8113 31.3457 13.3922L28.5172 16.2207ZM28.0001 14.9722V16.1873H32.0001V14.9722H28.0001ZM28.0001 16.1854C28.0002 16.1147 28.0283 16.0468 28.0783 15.9968L30.907 18.8249C31.6061 18.1258 31.9992 17.1779 32.0001 16.1892L28.0001 16.1854ZM28.0783 15.9968C28.1284 15.9467 28.1962 15.9186 28.267 15.9185L28.2715 19.9185C29.2602 19.9174 30.208 19.5241 30.907 18.8249L28.0783 15.9968Z"
            fill="white" mask="url(#path-11-inside-5_150_6755)" />
        <mask id="path-13-inside-6_150_6755" fill="white">
            <path
                d="M29.7656 15.2066C29.7288 15.2067 29.6924 15.198 29.6596 15.1814C29.6267 15.1647 29.5982 15.1406 29.5765 15.1108L27.3812 12.1182H12.6187L10.4234 15.1108C10.4053 15.1361 10.3825 15.1575 10.3561 15.1738C10.3297 15.1901 10.3004 15.2011 10.2697 15.206C10.2391 15.2109 10.2078 15.2097 10.1776 15.2024C10.1475 15.1951 10.1191 15.1819 10.0941 15.1636C10.069 15.1452 10.0479 15.1221 10.0319 15.0955C10.0159 15.0689 10.0053 15.0394 10.0008 15.0088C9.99627 14.9781 9.99788 14.9468 10.0055 14.9167C10.0132 14.8867 10.0267 14.8584 10.0454 14.8336L12.311 11.7452C12.3328 11.7155 12.3612 11.6914 12.3941 11.6747C12.4269 11.6581 12.4632 11.6494 12.5 11.6494H27.5C27.5368 11.6494 27.5731 11.6581 27.6059 11.6747C27.6388 11.6914 27.6672 11.7155 27.689 11.7452L29.9546 14.8336C29.9802 14.8686 29.9956 14.9099 29.9992 14.9531C30.0027 14.9962 29.9942 15.0395 29.9747 15.0782C29.9551 15.1168 29.9252 15.1492 29.8883 15.1719C29.8514 15.1946 29.8089 15.2066 29.7656 15.2066Z" />
        </mask>
        <path
            d="M29.7656 15.2066C29.7288 15.2067 29.6924 15.198 29.6596 15.1814C29.6267 15.1647 29.5982 15.1406 29.5765 15.1108L27.3812 12.1182H12.6187L10.4234 15.1108C10.4053 15.1361 10.3825 15.1575 10.3561 15.1738C10.3297 15.1901 10.3004 15.2011 10.2697 15.206C10.2391 15.2109 10.2078 15.2097 10.1776 15.2024C10.1475 15.1951 10.1191 15.1819 10.0941 15.1636C10.069 15.1452 10.0479 15.1221 10.0319 15.0955C10.0159 15.0689 10.0053 15.0394 10.0008 15.0088C9.99627 14.9781 9.99788 14.9468 10.0055 14.9167C10.0132 14.8867 10.0267 14.8584 10.0454 14.8336L12.311 11.7452C12.3328 11.7155 12.3612 11.6914 12.3941 11.6747C12.4269 11.6581 12.4632 11.6494 12.5 11.6494H27.5C27.5368 11.6494 27.5731 11.6581 27.6059 11.6747C27.6388 11.6914 27.6672 11.7155 27.689 11.7452L29.9546 14.8336C29.9802 14.8686 29.9956 14.9099 29.9992 14.9531C30.0027 14.9962 29.9942 15.0395 29.9747 15.0782C29.9551 15.1168 29.9252 15.1492 29.8883 15.1719C29.8514 15.1946 29.8089 15.2066 29.7656 15.2066Z"
            fill="white" />
        <path
            d="M29.7656 15.2066L29.7654 13.2066L29.7624 13.2066L29.7656 15.2066ZM29.5765 15.1108L31.1905 13.9298L31.1891 13.9278L29.5765 15.1108ZM27.3812 12.1182L28.9938 10.9352L28.3945 10.1182H27.3812V12.1182ZM12.6187 12.1182V10.1182H11.6055L11.0061 10.9352L12.6187 12.1182ZM10.4234 15.1108L8.81075 13.9278L8.80338 13.9379L8.79613 13.948L10.4234 15.1108ZM10.0454 14.8336L11.6435 16.0361L11.6508 16.0264L11.658 16.0166L10.0454 14.8336ZM12.311 11.7452L13.9236 12.9282L13.9239 12.9279L12.311 11.7452ZM12.5 11.6494V9.64941H12.4998L12.5 11.6494ZM27.5 11.6494L27.5002 9.64941H27.5V11.6494ZM27.689 11.7452L26.0761 12.9279L26.0764 12.9282L27.689 11.7452ZM29.9546 14.8336L31.5675 13.651L31.5672 13.6506L29.9546 14.8336ZM29.7624 13.2066C30.0406 13.2062 30.315 13.2714 30.5631 13.3971L28.756 16.9656C29.0699 17.1246 29.4169 17.2072 29.7688 17.2066L29.7624 13.2066ZM30.5631 13.3971C30.8113 13.5228 31.0263 13.7053 31.1905 13.9298L27.9624 16.2918C28.1702 16.5758 28.4421 16.8067 28.756 16.9656L30.5631 13.3971ZM31.1891 13.9278L28.9938 10.9352L25.7685 13.3011L27.9639 16.2938L31.1891 13.9278ZM27.3812 10.1182H12.6187V14.1182H27.3812V10.1182ZM11.0061 10.9352L8.81075 13.9278L12.036 16.2938L14.2314 13.3012L11.0061 10.9352ZM8.79613 13.948C8.93201 13.7579 9.10427 13.5966 9.30294 13.4735L11.4092 16.8741C11.6606 16.7183 11.8786 16.5143 12.0506 16.2736L8.79613 13.948ZM9.30294 13.4735C9.50161 13.3505 9.72273 13.2681 9.95349 13.2311L10.586 17.1808C10.878 17.1341 11.1578 17.0298 11.4092 16.8741L9.30294 13.4735ZM9.95349 13.2311C10.1842 13.1942 10.42 13.2034 10.6472 13.2583L9.70808 17.1465C9.99556 17.2159 10.294 17.2276 10.586 17.1808L9.95349 13.2311ZM10.6472 13.2583C10.8744 13.3131 11.0884 13.4126 11.2768 13.5508L8.91131 16.7763C9.14979 16.9512 9.42061 17.077 9.70808 17.1465L10.6472 13.2583ZM11.2768 13.5508C11.4653 13.689 11.6244 13.8632 11.745 14.0634L8.31882 16.1276C8.47144 16.381 8.67283 16.6014 8.91131 16.7763L11.2768 13.5508ZM11.745 14.0634C11.8656 14.2635 11.9453 14.4857 11.9794 14.7169L8.02222 15.3007C8.06538 15.5932 8.16619 15.8743 8.31882 16.1276L11.745 14.0634ZM11.9794 14.7169C12.0135 14.948 12.0014 15.1837 11.9437 15.4102L8.06736 14.4233C7.9944 14.7099 7.97905 15.0081 8.02222 15.3007L11.9794 14.7169ZM11.9437 15.4102C11.886 15.6366 11.784 15.8494 11.6435 16.0361L8.44728 13.6311C8.26946 13.8674 8.14033 14.1367 8.06736 14.4233L11.9437 15.4102ZM11.658 16.0166L13.9236 12.9282L10.6984 10.5622L8.43277 13.6506L11.658 16.0166ZM13.9239 12.9279C13.7599 13.1515 13.5456 13.3333 13.2982 13.4587L11.4899 9.89077C11.1769 10.0494 10.9057 10.2795 10.6982 10.5625L13.9239 12.9279ZM13.2982 13.4587C13.0509 13.5841 12.7775 13.6494 12.5002 13.6494L12.4998 9.64941C12.1489 9.64945 11.8029 9.73213 11.4899 9.89077L13.2982 13.4587ZM12.5 13.6494H27.5V9.64941H12.5V13.6494ZM27.4998 13.6494C27.2225 13.6494 26.9491 13.5841 26.7018 13.4587L28.5101 9.89077C28.1971 9.73213 27.8511 9.64945 27.5002 9.64941L27.4998 13.6494ZM26.7018 13.4587C26.4544 13.3333 26.2401 13.1515 26.0761 12.9279L29.3018 10.5625C29.0943 10.2795 28.8231 10.0494 28.5101 9.89077L26.7018 13.4587ZM26.0764 12.9282L28.342 16.0166L31.5672 13.6506L29.3016 10.5622L26.0764 12.9282ZM28.3418 16.0163C28.1488 15.7532 28.0326 15.4418 28.0059 15.1166L31.9925 14.7895C31.9587 14.378 31.8116 13.9839 31.5675 13.651L28.3418 16.0163ZM28.0059 15.1166C27.9792 14.7914 28.0432 14.4652 28.1906 14.1742L31.7587 15.9821C31.9453 15.6138 32.0263 15.201 31.9925 14.7895L28.0059 15.1166ZM28.1906 14.1742C28.3381 13.8832 28.5633 13.6387 28.8413 13.4679L30.9353 16.876C31.2871 16.6598 31.5721 16.3504 31.7587 15.9821L28.1906 14.1742ZM28.8413 13.4679C29.1193 13.2971 29.4392 13.2066 29.7654 13.2066L29.7658 17.2066C30.1787 17.2066 30.5835 17.0921 30.9353 16.876L28.8413 13.4679Z"
            fill="white" mask="url(#path-13-inside-6_150_6755)" />
        <mask id="path-15-inside-7_150_6755" fill="white">
            <path
                d="M28.4695 27.0624C28.4073 27.0624 28.3477 27.0377 28.3038 26.9937C28.2598 26.9498 28.2351 26.8901 28.2351 26.828V17.6704C28.2351 17.6083 28.2598 17.5486 28.3038 17.5047C28.3477 17.4607 28.4073 17.436 28.4695 17.436C28.5316 17.436 28.5913 17.4607 28.6352 17.5047C28.6792 17.5486 28.7039 17.6083 28.7039 17.6704V26.828C28.7039 26.8901 28.6792 26.9498 28.6352 26.9937C28.5913 27.0377 28.5316 27.0624 28.4695 27.0624Z" />
        </mask>
        <path
            d="M28.4695 27.0624C28.4073 27.0624 28.3477 27.0377 28.3038 26.9937C28.2598 26.9498 28.2351 26.8901 28.2351 26.828V17.6704C28.2351 17.6083 28.2598 17.5486 28.3038 17.5047C28.3477 17.4607 28.4073 17.436 28.4695 17.436C28.5316 17.436 28.5913 17.4607 28.6352 17.5047C28.6792 17.5486 28.7039 17.6083 28.7039 17.6704V26.828C28.7039 26.8901 28.6792 26.9498 28.6352 26.9937C28.5913 27.0377 28.5316 27.0624 28.4695 27.0624Z"
            fill="white" />
        <path
            d="M28.4695 27.0624V29.0624V27.0624ZM28.4695 25.0624C28.9377 25.0624 29.3868 25.2484 29.718 25.5795L26.8895 28.4079C27.3086 28.827 27.8769 29.0624 28.4695 29.0624V25.0624ZM29.718 25.5795C30.0491 25.9106 30.2351 26.3597 30.2351 26.828H26.2351C26.2351 27.4206 26.4705 27.9889 26.8895 28.4079L29.718 25.5795ZM30.2351 26.828V17.6704H26.2351V26.828H30.2351ZM30.2351 17.6704C30.2351 18.1387 30.0491 18.5878 29.718 18.9189L26.8895 16.0905C26.4705 16.5095 26.2351 17.0778 26.2351 17.6704H30.2351ZM29.718 18.9189C29.3868 19.25 28.9377 19.436 28.4695 19.436V15.436C27.8769 15.436 27.3086 15.6714 26.8895 16.0905L29.718 18.9189ZM28.4695 19.436C28.0012 19.436 27.5521 19.25 27.221 18.9189L30.0494 16.0905C29.6304 15.6714 29.0621 15.436 28.4695 15.436V19.436ZM27.221 18.9189C26.8899 18.5878 26.7039 18.1387 26.7039 17.6704H30.7039C30.7039 17.0778 30.4685 16.5095 30.0494 16.0905L27.221 18.9189ZM26.7039 17.6704V26.828H30.7039V17.6704H26.7039ZM26.7039 26.828C26.7039 26.3597 26.8899 25.9106 27.221 25.5795L30.0494 28.4079C30.4685 27.9889 30.7039 27.4206 30.7039 26.828H26.7039ZM27.221 25.5795C27.5521 25.2484 28.0012 25.0624 28.4695 25.0624V29.0624C29.0621 29.0624 29.6304 28.827 30.0494 28.4079L27.221 25.5795Z"
            fill="white" mask="url(#path-15-inside-7_150_6755)" />
        <mask id="path-17-inside-8_150_6755" fill="white">
            <path
                d="M11.5303 27.0625C11.4681 27.0625 11.4085 27.0378 11.3645 26.9938C11.3206 26.9499 11.2959 26.8902 11.2959 26.8281V17.6709C11.2959 17.6087 11.3206 17.5491 11.3645 17.5052C11.4085 17.4612 11.4681 17.4365 11.5303 17.4365C11.5924 17.4365 11.652 17.4612 11.696 17.5052C11.74 17.5491 11.7646 17.6087 11.7646 17.6709V26.8281C11.7646 26.8902 11.74 26.9499 11.696 26.9938C11.652 27.0378 11.5924 27.0625 11.5303 27.0625Z" />
        </mask>
        <path
            d="M11.5303 27.0625C11.4681 27.0625 11.4085 27.0378 11.3645 26.9938C11.3206 26.9499 11.2959 26.8902 11.2959 26.8281V17.6709C11.2959 17.6087 11.3206 17.5491 11.3645 17.5052C11.4085 17.4612 11.4681 17.4365 11.5303 17.4365C11.5924 17.4365 11.652 17.4612 11.696 17.5052C11.74 17.5491 11.7646 17.6087 11.7646 17.6709V26.8281C11.7646 26.8902 11.74 26.9499 11.696 26.9938C11.652 27.0378 11.5924 27.0625 11.5303 27.0625Z"
            fill="white" />
        <path
            d="M11.5303 27.0625V29.0625V27.0625ZM11.2959 17.6709H9.2959H11.2959ZM11.7646 17.6709H13.7646H11.7646ZM11.7646 26.8281H13.7646H11.7646ZM11.5303 25.0625C11.9985 25.0625 12.4476 25.2485 12.7788 25.5796L9.95033 28.408C10.3694 28.8271 10.9377 29.0625 11.5303 29.0625V25.0625ZM12.7788 25.5796C13.1099 25.9107 13.2959 26.3598 13.2959 26.8281H9.2959C9.2959 27.4207 9.5313 27.989 9.95033 28.408L12.7788 25.5796ZM13.2959 26.8281V17.6709H9.2959V26.8281H13.2959ZM13.2959 17.6709C13.2959 18.1392 13.1099 18.5883 12.7788 18.9194L9.95033 16.091C9.5313 16.51 9.2959 17.0783 9.2959 17.6709H13.2959ZM12.7788 18.9194C12.4476 19.2505 11.9985 19.4365 11.5303 19.4365V15.4365C10.9377 15.4365 10.3694 15.6719 9.95033 16.091L12.7788 18.9194ZM11.5303 19.4365C11.062 19.4365 10.6129 19.2505 10.2818 18.9194L13.1102 16.091C12.6912 15.6719 12.1229 15.4365 11.5303 15.4365V19.4365ZM10.2818 18.9194C9.95067 18.5883 9.76465 18.1392 9.76465 17.6709H13.7646C13.7646 17.0783 13.5292 16.51 13.1102 16.091L10.2818 18.9194ZM9.76465 17.6709V26.8281H13.7646V17.6709H9.76465ZM9.76465 26.8281C9.76465 26.3598 9.95067 25.9107 10.2818 25.5796L13.1102 28.408C13.5292 27.989 13.7646 27.4207 13.7646 26.8281H9.76465ZM10.2818 25.5796C10.6129 25.2485 11.062 25.0625 11.5303 25.0625V29.0625C12.1229 29.0625 12.6912 28.8271 13.1102 28.408L10.2818 25.5796Z"
            fill="white" mask="url(#path-17-inside-8_150_6755)" />
        <mask id="path-19-inside-9_150_6755" fill="white">
            <path
                d="M27.245 25.9875H12.7549C12.6927 25.9875 12.6331 25.9628 12.5892 25.9189C12.5452 25.8749 12.5205 25.8153 12.5205 25.7532V17.4757C12.5205 17.4136 12.5452 17.354 12.5892 17.31C12.6331 17.2661 12.6927 17.2414 12.7549 17.2414C12.817 17.2414 12.8767 17.2661 12.9206 17.31C12.9646 17.354 12.9893 17.4136 12.9893 17.4757V25.5188H27.0106V17.4756C27.0106 17.4134 27.0353 17.3538 27.0792 17.3099C27.1232 17.2659 27.1828 17.2412 27.245 17.2412C27.3071 17.2412 27.3667 17.2659 27.4107 17.3099C27.4546 17.3538 27.4793 17.4134 27.4793 17.4756V25.7532C27.4793 25.8153 27.4546 25.8749 27.4107 25.9189C27.3667 25.9628 27.3071 25.9875 27.245 25.9875Z" />
        </mask>
        <path
            d="M27.245 25.9875H12.7549C12.6927 25.9875 12.6331 25.9628 12.5892 25.9189C12.5452 25.8749 12.5205 25.8153 12.5205 25.7532V17.4757C12.5205 17.4136 12.5452 17.354 12.5892 17.31C12.6331 17.2661 12.6927 17.2414 12.7549 17.2414C12.817 17.2414 12.8767 17.2661 12.9206 17.31C12.9646 17.354 12.9893 17.4136 12.9893 17.4757V25.5188H27.0106V17.4756C27.0106 17.4134 27.0353 17.3538 27.0792 17.3099C27.1232 17.2659 27.1828 17.2412 27.245 17.2412C27.3071 17.2412 27.3667 17.2659 27.4107 17.3099C27.4546 17.3538 27.4793 17.4134 27.4793 17.4756V25.7532C27.4793 25.8153 27.4546 25.8749 27.4107 25.9189C27.3667 25.9628 27.3071 25.9875 27.245 25.9875Z"
            fill="white" />
        <path
            d="M12.9893 25.5188H10.9893V27.5188H12.9893V25.5188ZM27.0106 25.5188V27.5188H29.0106V25.5188H27.0106ZM27.245 23.9875H12.7549V27.9875H27.245V23.9875ZM12.7549 23.9875C13.2232 23.9875 13.6722 24.1736 14.0034 24.5047L11.1749 27.3331C11.594 27.7521 12.1623 27.9875 12.7549 27.9875V23.9875ZM14.0034 24.5047C14.3345 24.8358 14.5205 25.2849 14.5205 25.7532H10.5205C10.5205 26.3458 10.7559 26.9141 11.1749 27.3331L14.0034 24.5047ZM14.5205 25.7532V17.4757H10.5205V25.7532H14.5205ZM14.5205 17.4757C14.5205 17.944 14.3345 18.3931 14.0034 18.7242L11.1749 15.8958C10.7559 16.3148 10.5205 16.8832 10.5205 17.4757H14.5205ZM14.0034 18.7242C13.6722 19.0554 13.2232 19.2414 12.7549 19.2414V15.2414C12.1623 15.2414 11.594 15.4768 11.1749 15.8958L14.0034 18.7242ZM12.7549 19.2414C12.2866 19.2414 11.8375 19.0553 11.5064 18.7242L14.3348 15.8958C13.9158 15.4768 13.3475 15.2414 12.7549 15.2414V19.2414ZM11.5064 18.7242C11.1753 18.3931 10.9893 17.944 10.9893 17.4757H14.9893C14.9893 16.8831 14.7539 16.3148 14.3348 15.8958L11.5064 18.7242ZM10.9893 17.4757V25.5188H14.9893V17.4757H10.9893ZM12.9893 27.5188H27.0106V23.5188H12.9893V27.5188ZM29.0106 25.5188V17.4756H25.0106V25.5188H29.0106ZM29.0106 17.4756C29.0106 17.9439 28.8246 18.393 28.4934 18.7241L25.665 15.8956C25.246 16.3147 25.0106 16.883 25.0106 17.4756H29.0106ZM28.4934 18.7241C28.1623 19.0552 27.7132 19.2412 27.245 19.2412V15.2412C26.6524 15.2412 26.084 15.4766 25.665 15.8956L28.4934 18.7241ZM27.245 19.2412C26.7767 19.2412 26.3276 19.0552 25.9965 18.7241L28.8249 15.8956C28.4059 15.4766 27.8375 15.2412 27.245 15.2412V19.2412ZM25.9965 18.7241C25.6653 18.3929 25.4793 17.9438 25.4793 17.4756H29.4793C29.4793 16.883 29.244 16.3147 28.8249 15.8956L25.9965 18.7241ZM25.4793 17.4756V25.7532H29.4793V17.4756H25.4793ZM25.4793 25.7532C25.4793 25.2849 25.6653 24.8358 25.9965 24.5047L28.8249 27.3331C29.244 26.9141 29.4793 26.3457 29.4793 25.7532H25.4793ZM25.9965 24.5047C26.3276 24.1735 26.7767 23.9875 27.245 23.9875V27.9875C27.8375 27.9875 28.4059 27.7521 28.8249 27.3331L25.9965 24.5047Z"
            fill="white" mask="url(#path-19-inside-9_150_6755)" />
        <mask id="path-21-inside-10_150_6755" fill="white">
            <path
                d="M28.826 28.3503H11.174C10.8627 28.3499 10.5643 28.2261 10.3442 28.006C10.1242 27.7859 10.0004 27.4875 10 27.1763V26.8271C10 26.765 10.0247 26.7054 10.0686 26.6614C10.1126 26.6175 10.1722 26.5928 10.2344 26.5928H17.9297C17.9918 26.5928 18.0515 26.6175 18.0954 26.6614C18.1394 26.7054 18.1641 26.765 18.1641 26.8271V27.0623H21.8359V26.8271C21.8359 26.765 21.8606 26.7054 21.9046 26.6614C21.9485 26.6175 22.0082 26.5928 22.0703 26.5928H29.7656C29.8278 26.5928 29.8874 26.6175 29.9314 26.6614C29.9753 26.7054 30 26.765 30 26.8271V27.1763C29.9996 27.4875 29.8758 27.7859 29.6558 28.006C29.4357 28.2261 29.1373 28.3499 28.826 28.3503ZM10.4688 27.0615V27.1763C10.469 27.3633 10.5434 27.5425 10.6756 27.6747C10.8078 27.8069 10.987 27.8813 11.174 27.8815H28.826C29.013 27.8813 29.1922 27.8069 29.3244 27.6747C29.4566 27.5425 29.531 27.3633 29.5312 27.1763V27.0615H22.3047V27.2967C22.3047 27.3588 22.28 27.4185 22.236 27.4624C22.1921 27.5064 22.1325 27.5311 22.0703 27.5311H17.9297C17.8675 27.5311 17.8079 27.5064 17.764 27.4624C17.72 27.4185 17.6953 27.3588 17.6953 27.2967V27.0615H10.4688Z" />
        </mask>
        <path
            d="M28.826 28.3503H11.174C10.8627 28.3499 10.5643 28.2261 10.3442 28.006C10.1242 27.7859 10.0004 27.4875 10 27.1763V26.8271C10 26.765 10.0247 26.7054 10.0686 26.6614C10.1126 26.6175 10.1722 26.5928 10.2344 26.5928H17.9297C17.9918 26.5928 18.0515 26.6175 18.0954 26.6614C18.1394 26.7054 18.1641 26.765 18.1641 26.8271V27.0623H21.8359V26.8271C21.8359 26.765 21.8606 26.7054 21.9046 26.6614C21.9485 26.6175 22.0082 26.5928 22.0703 26.5928H29.7656C29.8278 26.5928 29.8874 26.6175 29.9314 26.6614C29.9753 26.7054 30 26.765 30 26.8271V27.1763C29.9996 27.4875 29.8758 27.7859 29.6558 28.006C29.4357 28.2261 29.1373 28.3499 28.826 28.3503ZM10.4688 27.0615V27.1763C10.469 27.3633 10.5434 27.5425 10.6756 27.6747C10.8078 27.8069 10.987 27.8813 11.174 27.8815H28.826C29.013 27.8813 29.1922 27.8069 29.3244 27.6747C29.4566 27.5425 29.531 27.3633 29.5312 27.1763V27.0615H22.3047V27.2967C22.3047 27.3588 22.28 27.4185 22.236 27.4624C22.1921 27.5064 22.1325 27.5311 22.0703 27.5311H17.9297C17.8675 27.5311 17.8079 27.5064 17.764 27.4624C17.72 27.4185 17.6953 27.3588 17.6953 27.2967V27.0615H10.4688Z"
            fill="white" />
        <path
            d="M28.826 28.3503V30.3503L28.8283 30.3503L28.826 28.3503ZM11.174 28.3503L11.1717 30.3503H11.174V28.3503ZM10 27.1763H8L8 27.1785L10 27.1763ZM10 26.8271H8H10ZM17.9297 26.5928V28.5928V26.5928ZM18.1641 27.0623H16.1641V29.0623H18.1641V27.0623ZM21.8359 27.0623V29.0623H23.8359V27.0623H21.8359ZM29.7656 26.5928V28.5928V26.5928ZM30 27.1763L32 27.1785V27.1763H30ZM10.4688 27.0615V25.0615H8.46875V27.0615H10.4688ZM10.4688 27.1763H8.46875L8.46875 27.1787L10.4688 27.1763ZM11.174 27.8815L11.1716 29.8815H11.174V27.8815ZM28.826 27.8815V29.8815L28.8284 29.8815L28.826 27.8815ZM29.5312 27.1763L31.5312 27.1787V27.1763H29.5312ZM29.5312 27.0615H31.5312V25.0615H29.5312V27.0615ZM22.3047 27.0615V25.0615H20.3047V27.0615H22.3047ZM17.9297 27.5311V29.5311V27.5311ZM17.6953 27.0615H19.6953V25.0615H17.6953V27.0615ZM28.826 26.3503H11.174V30.3503H28.826V26.3503ZM11.1762 26.3503C11.3946 26.3505 11.604 26.4374 11.7585 26.5918L8.93003 29.4202C9.52463 30.0149 10.3308 30.3493 11.1717 30.3503L11.1762 26.3503ZM11.7585 26.5918C11.9129 26.7463 11.9998 26.9556 12 27.174L8 27.1785C8.00095 28.0194 8.33542 28.8256 8.93003 29.4202L11.7585 26.5918ZM12 27.1763V26.8271H8V27.1763H12ZM12 26.8271C12 27.2954 11.814 27.7445 11.4829 28.0756L8.65443 25.2472C8.23541 25.6662 8 26.2346 8 26.8271H12ZM11.4829 28.0756C11.1517 28.4068 10.7026 28.5928 10.2344 28.5928V24.5928C9.64179 24.5928 9.07346 24.8282 8.65443 25.2472L11.4829 28.0756ZM10.2344 28.5928H17.9297V24.5928H10.2344V28.5928ZM17.9297 28.5928C17.4614 28.5928 17.0123 28.4068 16.6812 28.0756L19.5096 25.2472C19.0906 24.8282 18.5223 24.5928 17.9297 24.5928V28.5928ZM16.6812 28.0756C16.3501 27.7445 16.1641 27.2954 16.1641 26.8271H20.1641C20.1641 26.2346 19.9287 25.6662 19.5096 25.2472L16.6812 28.0756ZM16.1641 26.8271V27.0623H20.1641V26.8271H16.1641ZM18.1641 29.0623H21.8359V25.0623H18.1641V29.0623ZM23.8359 27.0623V26.8271H19.8359V27.0623H23.8359ZM23.8359 26.8271C23.8359 27.2954 23.6499 27.7445 23.3188 28.0756L20.4904 25.2472C20.0713 25.6662 19.8359 26.2346 19.8359 26.8271H23.8359ZM23.3188 28.0756C22.9877 28.4068 22.5386 28.5928 22.0703 28.5928V24.5928C21.4777 24.5928 20.9094 24.8282 20.4904 25.2472L23.3188 28.0756ZM22.0703 28.5928H29.7656V24.5928H22.0703V28.5928ZM29.7656 28.5928C29.2974 28.5928 28.8483 28.4068 28.5171 28.0756L31.3456 25.2472C30.9265 24.8282 30.3582 24.5928 29.7656 24.5928V28.5928ZM28.5171 28.0756C28.186 27.7445 28 27.2954 28 26.8271H32C32 26.2346 31.7646 25.6662 31.3456 25.2472L28.5171 28.0756ZM28 26.8271V27.1763H32V26.8271H28ZM28 27.174C28.0002 26.9556 28.0871 26.7462 28.2415 26.5918L31.07 29.4202C31.6646 28.8256 31.999 28.0195 32 27.1785L28 27.174ZM28.2415 26.5918C28.396 26.4374 28.6054 26.3505 28.8238 26.3503L28.8283 30.3503C29.6692 30.3493 30.4754 30.0149 31.07 29.4202L28.2415 26.5918ZM8.46875 27.0615V27.1763H12.4688V27.0615H8.46875ZM8.46875 27.1787C8.46962 27.8953 8.75466 28.5822 9.26135 29.0889L12.0898 26.2605C12.332 26.5028 12.4683 26.8312 12.4687 27.1739L8.46875 27.1787ZM9.26135 29.0889C9.76803 29.5956 10.455 29.8807 11.1716 29.8815L11.1764 25.8815C11.519 25.8819 11.8475 26.0182 12.0898 26.2605L9.26135 29.0889ZM11.174 29.8815H28.826V25.8815H11.174V29.8815ZM28.8284 29.8815C29.545 29.8807 30.232 29.5956 30.7387 29.0889L27.9102 26.2605C28.1525 26.0182 28.481 25.8819 28.8236 25.8815L28.8284 29.8815ZM30.7387 29.0889C31.2453 28.5822 31.5304 27.8953 31.5312 27.1787L27.5313 27.1739C27.5317 26.8312 27.668 26.5028 27.9102 26.2605L30.7387 29.0889ZM31.5312 27.1763V27.0615H27.5312V27.1763H31.5312ZM29.5312 25.0615H22.3047V29.0615H29.5312V25.0615ZM20.3047 27.0615V27.2967H24.3047V27.0615H20.3047ZM20.3047 27.2967C20.3047 26.8284 20.4907 26.3793 20.8218 26.0482L23.6503 28.8766C24.0693 28.4576 24.3047 27.8893 24.3047 27.2967H20.3047ZM20.8218 26.0482C21.153 25.7171 21.602 25.5311 22.0703 25.5311V29.5311C22.6629 29.5311 23.2312 29.2957 23.6503 28.8766L20.8218 26.0482ZM22.0703 25.5311H17.9297V29.5311H22.0703V25.5311ZM17.9297 25.5311C18.398 25.5311 18.847 25.7171 19.1782 26.0482L16.3497 28.8766C16.7688 29.2957 17.3371 29.5311 17.9297 29.5311V25.5311ZM19.1782 26.0482C19.5093 26.3793 19.6953 26.8284 19.6953 27.2967H15.6953C15.6953 27.8893 15.9307 28.4576 16.3497 28.8766L19.1782 26.0482ZM19.6953 27.2967V27.0615H15.6953V27.2967H19.6953ZM17.6953 25.0615H10.4688V29.0615H17.6953V25.0615Z"
            fill="white" mask="url(#path-21-inside-10_150_6755)" />
        <mask id="path-23-inside-11_150_6755" fill="white">
            <path
                d="M24.0445 24.7329H15.9551C15.8929 24.7329 15.8333 24.7082 15.7894 24.6642C15.7454 24.6203 15.7207 24.5607 15.7207 24.4985V18.7305C15.7207 18.6683 15.7454 18.6087 15.7894 18.5647C15.8333 18.5208 15.8929 18.4961 15.9551 18.4961H24.0445C24.1067 18.4961 24.1663 18.5208 24.2103 18.5647C24.2542 18.6087 24.2789 18.6683 24.2789 18.7305V24.4985C24.2789 24.5607 24.2542 24.6203 24.2103 24.6642C24.1663 24.7082 24.1067 24.7329 24.0445 24.7329ZM16.1895 24.2641H23.8102V18.9648H16.1895V24.2641Z" />
        </mask>
        <path
            d="M24.0445 24.7329H15.9551C15.8929 24.7329 15.8333 24.7082 15.7894 24.6642C15.7454 24.6203 15.7207 24.5607 15.7207 24.4985V18.7305C15.7207 18.6683 15.7454 18.6087 15.7894 18.5647C15.8333 18.5208 15.8929 18.4961 15.9551 18.4961H24.0445C24.1067 18.4961 24.1663 18.5208 24.2103 18.5647C24.2542 18.6087 24.2789 18.6683 24.2789 18.7305V24.4985C24.2789 24.5607 24.2542 24.6203 24.2103 24.6642C24.1663 24.7082 24.1067 24.7329 24.0445 24.7329ZM16.1895 24.2641H23.8102V18.9648H16.1895V24.2641Z"
            fill="white" />
        <path
            d="M16.1895 24.2641H14.1895V26.2641H16.1895V24.2641ZM23.8102 24.2641V26.2641H25.8102V24.2641H23.8102ZM23.8102 18.9648H25.8102V16.9648H23.8102V18.9648ZM16.1895 18.9648V16.9648H14.1895V18.9648H16.1895ZM24.0445 22.7329H15.9551V26.7329H24.0445V22.7329ZM15.9551 22.7329C16.4234 22.7329 16.8724 22.9189 17.2036 23.25L14.3751 26.0785C14.7942 26.4975 15.3625 26.7329 15.9551 26.7329V22.7329ZM17.2036 23.25C17.5347 23.5811 17.7207 24.0302 17.7207 24.4985H13.7207C13.7207 25.0911 13.9561 25.6594 14.3751 26.0785L17.2036 23.25ZM17.7207 24.4985V18.7305H13.7207V24.4985H17.7207ZM17.7207 18.7305C17.7207 19.1987 17.5347 19.6478 17.2036 19.979L14.3751 17.1505C13.9561 17.5695 13.7207 18.1379 13.7207 18.7305H17.7207ZM17.2036 19.979C16.8724 20.3101 16.4234 20.4961 15.9551 20.4961V16.4961C15.3625 16.4961 14.7942 16.7315 14.3751 17.1505L17.2036 19.979ZM15.9551 20.4961H24.0445V16.4961H15.9551V20.4961ZM24.0445 20.4961C23.5763 20.4961 23.1272 20.3101 22.796 19.979L25.6245 17.1505C25.2054 16.7315 24.6371 16.4961 24.0445 16.4961V20.4961ZM22.796 19.979C22.4649 19.6478 22.2789 19.1987 22.2789 18.7305H26.2789C26.2789 18.1379 26.0435 17.5696 25.6245 17.1505L22.796 19.979ZM22.2789 18.7305V24.4985H26.2789V18.7305H22.2789ZM22.2789 24.4985C22.2789 24.0302 22.4649 23.5812 22.796 23.25L25.6245 26.0785C26.0435 25.6594 26.2789 25.0911 26.2789 24.4985H22.2789ZM22.796 23.25C23.1272 22.9189 23.5763 22.7329 24.0445 22.7329V26.7329C24.6371 26.7329 25.2054 26.4975 25.6245 26.0785L22.796 23.25ZM16.1895 26.2641H23.8102V22.2641H16.1895V26.2641ZM25.8102 24.2641V18.9648H21.8102V24.2641H25.8102ZM23.8102 16.9648H16.1895V20.9648H23.8102V16.9648ZM14.1895 18.9648V24.2641H18.1895V18.9648H14.1895Z"
            fill="white" mask="url(#path-23-inside-11_150_6755)" />
        <path
            d="M22.0928 19.2815C22.0488 19.2376 21.9892 19.2129 21.9271 19.2129C21.8649 19.2129 21.8053 19.2376 21.7613 19.2815C21.7174 19.3255 21.6927 19.3851 21.6927 19.4473V19.6816V19.6816V20.1761C21.7677 20.2003 21.8468 20.2129 21.9271 20.2129C22.0074 20.2129 22.0864 20.2003 22.1614 20.1761V19.6816V19.4473C22.1614 19.3851 22.1367 19.3255 22.0928 19.2815ZM22.0928 19.2815L22.082 19.2923L22.0928 19.2815ZM17.8386 20.1761V19.6816V19.4473C17.8386 19.3851 17.8633 19.3255 17.9073 19.2815C17.9512 19.2376 18.0108 19.2129 18.073 19.2129C18.1352 19.2129 18.1948 19.2376 18.2387 19.2815C18.2827 19.3255 18.3074 19.3851 18.3074 19.4473V19.6816V20.1761C18.2323 20.2003 18.1533 20.2129 18.073 20.2129C17.9927 20.2129 17.9137 20.2003 17.8386 20.1761Z"
            fill="white" stroke="white" stroke-width="2" />
        <path
            d="M21.5395 19.6774C21.5238 19.6275 21.5132 19.5759 21.5079 19.5233C21.5054 19.4982 21.5041 19.4728 21.5041 19.4473C21.5041 19.4218 21.5054 19.3964 21.5079 19.3712C21.5132 19.3186 21.5238 19.267 21.5395 19.2171C21.5541 19.2143 21.569 19.2129 21.584 19.2129H21.8184H22.0354H22.2698C22.2848 19.2129 22.2997 19.2143 22.3142 19.2171C22.3299 19.267 22.3406 19.3186 22.3458 19.3712C22.3483 19.3964 22.3496 19.4218 22.3496 19.4473C22.3496 19.4728 22.3483 19.4982 22.3458 19.5233C22.3406 19.5759 22.3299 19.6275 22.3142 19.6774C22.2997 19.6802 22.2848 19.6816 22.2698 19.6816H22.0354H21.8184H21.584C21.569 19.6816 21.5541 19.6802 21.5395 19.6774Z"
            fill="white" stroke="white" stroke-width="2" />
        <path
            d="M17.6855 19.6774C17.6698 19.6275 17.6592 19.5759 17.6539 19.5233C17.6514 19.4982 17.6501 19.4728 17.6501 19.4473C17.6501 19.4218 17.6514 19.3964 17.6539 19.3712C17.6592 19.3187 17.6698 19.267 17.6855 19.2171C17.7001 19.2143 17.715 19.2129 17.73 19.2129H17.9644H18.1814H18.4158C18.4308 19.2129 18.4457 19.2143 18.4602 19.2171C18.4759 19.267 18.4866 19.3187 18.4918 19.3712C18.4943 19.3964 18.4956 19.4218 18.4956 19.4473C18.4956 19.4728 18.4943 19.4982 18.4918 19.5233C18.4866 19.5759 18.4759 19.6275 18.4602 19.6774C18.4457 19.6802 18.4308 19.6816 18.4158 19.6816H18.1814H17.9644H17.73C17.715 19.6816 17.7001 19.6802 17.6855 19.6774Z"
            fill="white" stroke="white" stroke-width="2" />
    </g>

</svg>