<svg width="40" height="40" viewBox="0 0 40 40" fill="none" xmlns="http://www.w3.org/2000/svg">
    <defs>
        <clipPath id="clip0_150_6746">
            <rect width="40" height="40" fill="white" />
        </clipPath>
    </defs>
    <g clip-path="url(#clip0_150_6746)">
        <path
            d="M20 40C31.0457 40 40 31.0457 40 20C40 8.9543 31.0457 0 20 0C8.9543 0 0 8.9543 0 20C0 31.0457 8.9543 40 20 40Z"
            fill="#F9A502" />
        <path
            d="M23.9132 25.8517H11.1896C10.8816 25.8513 10.5864 25.7288 10.3687 25.511C10.151 25.2932 10.0286 24.998 10.0283 24.69V15.3102C10.0287 15.0023 10.1511 14.7071 10.3688 14.4894C10.5865 14.2717 10.8817 14.1493 11.1896 14.1489H23.9132C24.2211 14.1493 24.5162 14.2718 24.7339 14.4895C24.9516 14.7072 25.0741 15.0023 25.0744 15.3102V17.8539L25.4672 17.6367C25.5397 17.5965 25.6252 17.5868 25.7049 17.6097C25.7846 17.6326 25.8519 17.6862 25.892 17.7588C25.9321 17.8313 25.9418 17.9168 25.9189 17.9964C25.896 18.0761 25.8424 18.1434 25.7699 18.1835L24.9132 18.6574C24.8657 18.6837 24.812 18.6972 24.7577 18.6964C24.7033 18.6957 24.6501 18.6808 24.6032 18.6532C24.5564 18.6255 24.5175 18.5862 24.4906 18.539C24.4636 18.4917 24.4494 18.4383 24.4494 18.3839V15.3102C24.4493 15.168 24.3927 15.0317 24.2922 14.9312C24.1917 14.8307 24.0554 14.7741 23.9132 14.7739H11.1896C11.0474 14.7741 10.9111 14.8306 10.8106 14.9312C10.71 15.0317 10.6535 15.168 10.6533 15.3102V24.69C10.6535 24.8322 10.71 24.9685 10.8106 25.069C10.9111 25.1696 11.0474 25.2261 11.1896 25.2263H23.9132C24.0554 25.2261 24.1917 25.1695 24.2922 25.069C24.3927 24.9685 24.4493 24.8322 24.4494 24.69V21.6181C24.4494 21.5638 24.4636 21.5104 24.4906 21.4631C24.5175 21.4159 24.5564 21.3766 24.6032 21.349C24.65 21.3214 24.7033 21.3064 24.7576 21.3057C24.812 21.3049 24.8656 21.3184 24.9132 21.3447L29.3469 23.7957V16.2047L27.6981 17.1168C27.6256 17.1569 27.5401 17.1666 27.4604 17.1437C27.3808 17.1208 27.3135 17.0672 27.2734 16.9947C27.2332 16.9221 27.2236 16.8367 27.2465 16.757C27.2694 16.6774 27.323 16.6101 27.3955 16.5699L29.3558 15.4855C29.419 15.4505 29.4902 15.4327 29.5625 15.4337C29.6347 15.4347 29.7054 15.4545 29.7676 15.4911C29.8298 15.5278 29.8814 15.5801 29.9172 15.6428C29.953 15.7055 29.9719 15.7765 29.9719 15.8487V24.1516C29.9719 24.2238 29.9531 24.2947 29.9173 24.3574C29.8815 24.4201 29.8299 24.4724 29.7677 24.5091C29.7055 24.5458 29.6349 24.5656 29.5627 24.5666C29.4905 24.5676 29.4193 24.5498 29.3561 24.5149L25.0744 22.1477V24.6898C25.0742 24.9978 24.9519 25.2931 24.7342 25.5109C24.5165 25.7287 24.2212 25.8513 23.9132 25.8517Z"
            fill="white" />
        <path
            d="M26.3398 17.8236C26.2705 17.8237 26.2032 17.8007 26.1483 17.7583C26.0935 17.7159 26.0544 17.6564 26.037 17.5894C26.0197 17.5223 26.0251 17.4513 26.0525 17.3877C26.0799 17.324 26.1277 17.2712 26.1883 17.2377L26.556 17.0346C26.5919 17.014 26.6316 17.0007 26.6727 16.9956C26.7139 16.9904 26.7556 16.9935 26.7955 17.0047C26.8354 17.0159 26.8727 17.0348 26.9052 17.0605C26.9378 17.0862 26.9648 17.1182 26.9849 17.1544C27.0049 17.1907 27.0176 17.2306 27.0221 17.2718C27.0266 17.313 27.0228 17.3547 27.011 17.3944C26.9993 17.4342 26.9797 17.4712 26.9535 17.5033C26.9273 17.5354 26.895 17.562 26.8584 17.5814L26.4907 17.7846C26.4446 17.8102 26.3926 17.8236 26.3398 17.8236Z"
            fill="white" />
    </g>

</svg>