<svg width="40" height="40" viewBox="0 0 40 40" fill="none" xmlns="http://www.w3.org/2000/svg">
<path d="M20 40C31.0457 40 40 31.0457 40 20C40 8.9543 31.0457 0 20 0C8.9543 0 0 8.9543 0 20C0 31.0457 8.9543 40 20 40Z" fill="#F9A502"/>
<path d="M20 16C19.4067 16 18.8266 15.8534 18.3333 15.5787C17.8399 15.304 17.4554 14.9135 17.2284 14.4567C17.0013 13.9999 16.9419 13.4972 17.0576 13.0123C17.1734 12.5273 17.4591 12.0819 17.8787 11.7322C18.2982 11.3826 18.8328 11.1445 19.4147 11.048C19.9967 10.9516 20.5999 11.0011 21.1481 11.1903C21.6962 11.3795 22.1648 11.7 22.4944 12.1111C22.8241 12.5222 23 13.0055 23 13.5C22.9991 14.1628 22.6828 14.7983 22.1203 15.2669C21.5579 15.7356 20.7954 15.9993 20 16ZM20 11.625C19.555 11.625 19.12 11.735 18.75 11.941C18.38 12.147 18.0916 12.4399 17.9213 12.7825C17.751 13.1251 17.7064 13.5021 17.7932 13.8658C17.8801 14.2295 18.0943 14.5636 18.409 14.8258C18.7237 15.088 19.1246 15.2666 19.561 15.339C19.9975 15.4113 20.4499 15.3742 20.861 15.2323C21.2722 15.0904 21.6236 14.85 21.8708 14.5417C22.118 14.2334 22.25 13.8708 22.25 13.5C22.2494 13.0029 22.0122 12.5262 21.5903 12.1747C21.1685 11.8232 20.5966 11.6255 20 11.625Z" fill="white"/>
<path d="M23.6923 19C23.6107 19 23.5324 18.9684 23.4747 18.9121C23.417 18.8559 23.3846 18.7796 23.3846 18.7V17.5C23.3846 17.1943 22.1898 16.6 20 16.6C17.8102 16.6 16.6154 17.1943 16.6154 17.5V18.7C16.6154 18.7796 16.583 18.8559 16.5253 18.9121C16.4676 18.9684 16.3893 19 16.3077 19C16.2261 19 16.1478 18.9684 16.0901 18.9121C16.0324 18.8559 16 18.7796 16 18.7V17.5C16 16.5154 18.0123 16 20 16C21.9877 16 24 16.5154 24 17.5V18.7C24 18.7796 23.9676 18.8559 23.9099 18.9121C23.8522 18.9684 23.7739 19 23.6923 19Z" fill="white"/>
<path d="M24.9 27C24.8072 27 24.7182 26.9665 24.6525 26.9068C24.5869 26.8471 24.55 26.7662 24.55 26.6818V22.5455C24.55 22.4906 24.5657 22.4366 24.5954 22.3888C24.6251 22.341 24.668 22.301 24.7198 22.2728L26.3 21.4108V20.6364H13.7V21.4108L15.2802 22.2728C15.332 22.301 15.3749 22.341 15.4046 22.3888C15.4343 22.4366 15.45 22.4906 15.45 22.5455V26.6818C15.45 26.7662 15.4131 26.8471 15.3475 26.9068C15.2818 26.9665 15.1928 27 15.1 27C15.0072 27 14.9182 26.9665 14.8525 26.9068C14.7869 26.8471 14.75 26.7662 14.75 26.6818V22.7255L13.1697 21.8636C13.118 21.8353 13.0751 21.7953 13.0454 21.7476C13.0157 21.6998 13 21.6458 13 21.5909V20.3182C13 20.2338 13.0369 20.1529 13.1025 20.0932C13.1682 20.0335 13.2572 20 13.35 20H26.65C26.7428 20 26.8319 20.0335 26.8975 20.0932C26.9631 20.1529 27 20.2338 27 20.3182V21.5909C27 21.6458 26.9843 21.6998 26.9546 21.7476C26.9249 21.7953 26.882 21.8353 26.8302 21.8636L25.25 22.7255V26.6818C25.25 26.7662 25.2131 26.8471 25.1475 26.9068C25.0819 26.9665 24.9928 27 24.9 27Z" fill="white"/>
<path d="M23.125 22.5H16.875C16.7921 22.5 16.7126 22.4671 16.654 22.4085C16.5954 22.3499 16.5625 22.2704 16.5625 22.1875C16.5625 22.1046 16.5954 22.0251 16.654 21.9665C16.7126 21.9079 16.7921 21.875 16.875 21.875H23.125C23.2079 21.875 23.2874 21.9079 23.346 21.9665C23.4046 22.0251 23.4375 22.1046 23.4375 22.1875C23.4375 22.2704 23.4046 22.3499 23.346 22.4085C23.2874 22.4671 23.2079 22.5 23.125 22.5Z" fill="white"/>
</svg>
