<svg width="40" height="40" viewBox="0 0 40 40" fill="none" xmlns="http://www.w3.org/2000/svg">
<path d="M20 40C31.0457 40 40 31.0457 40 20C40 8.9543 31.0457 0 20 0C8.9543 0 0 8.9543 0 20C0 31.0457 8.9543 40 20 40Z" fill="#F9A502"/>
<path d="M20.0079 26.5408C19.9381 26.5408 19.8702 26.5179 19.8145 26.4757C19.5105 26.2455 12.3839 20.8023 12.3812 17.9015C12.3783 15.0227 14.731 13.4672 16.946 13.4651H16.9499C18.4966 13.4651 19.5374 14.3952 19.9971 14.9133C20.4563 14.3939 21.4966 13.4607 23.0454 13.4592H23.05C24.1638 13.4596 25.2436 13.8432 26.1081 14.5455C26.7961 15.1173 27.6169 16.1615 27.6187 17.8867C27.6215 20.7877 20.5047 26.2445 20.2019 26.4754C20.1461 26.5178 20.078 26.5408 20.0079 26.5408ZM16.9497 14.1051H16.9467C15.0427 14.1069 13.0188 15.4378 13.0212 17.9008C13.0233 19.9808 17.8899 24.1807 20.0075 25.8173C22.1222 24.176 26.9807 19.9671 26.9787 17.888C26.9772 16.4103 26.2822 15.5227 25.6987 15.0384C24.9498 14.4306 24.0145 14.099 23.05 14.0992H23.046C21.2844 14.101 20.274 15.5891 20.2639 15.6042C20.2348 15.648 20.1952 15.684 20.1488 15.7089C20.1024 15.7338 20.0505 15.7469 19.9979 15.7469C19.9453 15.7463 19.8937 15.7331 19.8473 15.7083C19.8009 15.6836 19.7612 15.648 19.7315 15.6047C19.7219 15.5903 18.699 14.1051 16.9497 14.1051Z" fill="white"/>
<path d="M25.184 16.9002C24.8395 16.2755 24.2779 15.7988 23.6056 15.5602L23.8296 14.9607C24.6487 15.254 25.3318 15.8374 25.7496 16.6005L25.184 16.9002Z" fill="white"/>
</svg>
