<svg width="24" height="24" viewBox="0 0 24 24" fill="none" xmlns="http://www.w3.org/2000/svg">
<path d="M19.5 23.25C19.7956 23.2504 20.0883 23.1925 20.3615 23.0795C20.6347 22.9666 20.8829 22.8009 21.0919 22.5919C21.3009 22.3829 21.4666 22.1347 21.5795 21.8615C21.6925 21.5883 21.7504 21.2956 21.75 21V3C21.7504 2.70442 21.6925 2.41166 21.5795 2.1385C21.4666 1.86534 21.3009 1.61714 21.0919 1.40813C20.8829 1.19912 20.6347 1.0334 20.3615 0.920469C20.0883 0.807536 19.7956 0.749607 19.5 0.750002H4.5C4.20442 0.749607 3.91166 0.807536 3.6385 0.920469C3.36534 1.0334 3.11714 1.19912 2.90813 1.40813C2.69912 1.61714 2.5334 1.86534 2.42047 2.1385C2.30754 2.41166 2.24961 2.70442 2.25 3V21C2.24961 21.2956 2.30754 21.5883 2.42047 21.8615C2.5334 22.1347 2.69912 22.3829 2.90813 22.5919C3.11714 22.8009 3.36534 22.9666 3.6385 23.0795C3.91166 23.1925 4.20442 23.2504 4.5 23.25H19.5ZM11.25 2.25H12.75V7.785L14.67 6.825C14.773 6.77563 14.8858 6.75 15 6.75C15.1142 6.75 15.227 6.77563 15.33 6.825L17.25 7.785V2.25H18.75V9C18.748 9.12889 18.714 9.25526 18.6512 9.36782C18.5884 9.48038 18.4986 9.57561 18.39 9.645C18.2698 9.70939 18.1363 9.74532 18 9.75C17.886 9.74829 17.7736 9.72275 17.67 9.675L15 8.34L12.33 9.675C12.2158 9.7259 12.0914 9.74969 11.9665 9.74448C11.8416 9.73928 11.7196 9.70523 11.61 9.645C11.5014 9.57561 11.4116 9.48038 11.3488 9.36782C11.286 9.25526 11.252 9.12889 11.25 9V2.25Z" fill="#B1AFAF"/>
</svg>
