<svg width="24" height="24" viewBox="0 0 24 24" fill="none" xmlns="http://www.w3.org/2000/svg">
<g clip-path="url(#clip0_259_6440)">
<path d="M11.25 23.0961C11.1582 23.0675 11.068 23.0338 10.98 22.995C9.46848 22.1984 7.76442 21.8399 6.06002 21.96C5.2662 22.0191 4.48406 22.1856 3.73502 22.455C3.39939 22.5735 3.04017 22.6095 2.68771 22.5599C2.33525 22.5103 1.99991 22.3765 1.71002 22.17C1.41197 21.9603 1.16902 21.6816 1.00187 21.3577C0.834722 21.0338 0.748321 20.6743 0.750025 20.3099V3.92987C0.750156 3.50829 0.86641 3.09488 1.08603 2.73502C1.30565 2.37516 1.62015 2.08275 1.99502 1.88987C3.42485 1.15958 5.00408 0.769572 6.60949 0.750265C8.2149 0.730959 9.80305 1.08288 11.25 1.77857V23.0961ZM22.005 1.88987C20.5752 1.15955 18.9959 0.769548 17.3905 0.750294C15.7851 0.731039 14.1969 1.08306 12.75 1.77887V23.0961C12.8419 23.0675 12.932 23.0338 13.02 22.995C14.5292 22.1909 16.234 21.8271 17.94 21.945C18.7334 22.0166 19.5145 22.188 20.265 22.455C20.6007 22.5735 20.9599 22.6095 21.3123 22.5599C21.6648 22.5103 22.0001 22.3765 22.29 22.17C22.5864 21.9621 22.8284 21.686 22.9955 21.3648C23.1626 21.0437 23.2499 20.687 23.25 20.325V3.91487C23.2478 3.49569 23.1306 3.08516 22.911 2.72807C22.6915 2.37098 22.3781 2.08104 22.005 1.88987Z" fill="#F9A502"/>
</g>
<defs>
<clipPath id="clip0_259_6440">
<rect width="24" height="24" fill="white"/>
</clipPath>
</defs>
</svg>
