<svg width="24" height="24" viewBox="0 0 24 24" fill="none" xmlns="http://www.w3.org/2000/svg">
<path fill-rule="evenodd" clip-rule="evenodd" d="M11.1054 2.57141H12.8947C14.063 2.5714 14.9922 2.5714 15.7418 2.63265C16.5095 2.69537 17.164 2.82656 17.7634 3.13195C18.7311 3.62501 19.5178 4.41177 20.0109 5.37946C20.3163 5.97882 20.4475 6.63339 20.5102 7.40105C20.5715 8.15069 20.5715 9.07985 20.5714 10.2482V17.6583C20.5715 18.5213 20.5715 19.2283 20.5217 19.7757C20.4723 20.3177 20.3642 20.8745 20.0163 21.314C19.5333 21.9242 18.8 22.2828 18.0219 22.2894C17.4613 22.2942 16.9555 22.0377 16.4974 21.7439C16.0347 21.4472 15.4766 21.0131 14.7954 20.4832L13.1577 19.2095C12.4929 18.6924 12.3497 18.6016 12.224 18.5676C12.0773 18.5279 11.9227 18.5279 11.776 18.5676C11.6503 18.6016 11.5071 18.6924 10.8423 19.2095L9.20462 20.4833C8.52338 21.0131 7.96532 21.4472 7.50266 21.7439C7.04459 22.0377 6.53871 22.2942 5.97814 22.2894C5.2 22.2828 4.46672 21.9242 3.98376 21.314C3.63584 20.8745 3.5277 20.3177 3.47838 19.7757C3.42856 19.2283 3.42858 18.5213 3.42859 17.6583V10.2482C3.42858 9.07987 3.42858 8.1507 3.48983 7.40105C3.55255 6.63339 3.68374 5.97882 3.98913 5.37946C4.48219 4.41177 5.26895 3.62501 6.23664 3.13195C6.83599 2.82656 7.49057 2.69537 8.25823 2.63265C9.00788 2.5714 9.93705 2.5714 11.1054 2.57141ZM8.39783 4.34124C7.73618 4.3953 7.33232 4.49766 7.01491 4.65939C6.36978 4.9881 5.84528 5.5126 5.51657 6.15773C5.35484 6.47514 5.25248 6.879 5.19842 7.54065C5.14354 8.2123 5.14288 9.07144 5.14288 10.2857V17.615C5.14288 18.5319 5.14373 19.1602 5.18561 19.6204C5.22882 20.0951 5.30574 20.222 5.32793 20.2501C5.48892 20.4535 5.73335 20.573 5.99273 20.5752C6.02848 20.5755 6.1759 20.5583 6.57717 20.3009C6.96614 20.0515 7.46255 19.6665 8.18631 19.1035L9.78983 17.8564C9.82545 17.8287 9.86071 17.8011 9.89567 17.7739C10.3905 17.3878 10.8242 17.0493 11.328 16.9129C11.7681 16.7937 12.232 16.7937 12.6721 16.9129C13.1758 17.0493 13.6096 17.3878 14.1044 17.7739C14.1393 17.8011 14.1746 17.8286 14.2102 17.8563L15.8137 19.1035C16.5375 19.6665 17.0339 20.0515 17.4229 20.3009C17.8241 20.5583 17.9716 20.5755 18.0073 20.5752C18.2667 20.573 18.5111 20.4535 18.6721 20.2501C18.6943 20.222 18.7712 20.0951 18.8144 19.6204C18.8563 19.1602 18.8572 18.5319 18.8572 17.615V10.2857C18.8572 9.07144 18.8565 8.2123 18.8016 7.54065C18.7476 6.879 18.6452 6.47514 18.4835 6.15773C18.1548 5.5126 17.6303 4.9881 16.9851 4.65939C16.6677 4.49766 16.2639 4.3953 15.6022 4.34124C14.9306 4.28636 14.0714 4.2857 12.8572 4.2857H11.1429C9.92862 4.2857 9.06948 4.28636 8.39783 4.34124Z" fill="#1A1C1F"/>
</svg>
