<svg width="24" height="24" viewBox="0 0 24 24" fill="none" xmlns="http://www.w3.org/2000/svg">
<g clip-path="url(#clip0_259_6610)">
<path d="M11.25 23.0964C11.1582 23.0678 11.068 23.034 10.98 22.9953C9.46848 22.1986 7.76442 21.8401 6.06002 21.9603C5.2662 22.0193 4.48406 22.1858 3.73502 22.4553C3.39939 22.5738 3.04017 22.6097 2.68771 22.5601C2.33525 22.5105 1.99991 22.3768 1.71002 22.1703C1.41197 21.9605 1.16902 21.6818 1.00187 21.3579C0.834722 21.0341 0.748321 20.6746 0.750025 20.3101V3.93011C0.750156 3.50853 0.86641 3.09513 1.08603 2.73527C1.30565 2.37541 1.62015 2.08299 1.99502 1.89011C3.42485 1.15983 5.00408 0.769816 6.60949 0.750509C8.2149 0.731203 9.80305 1.08312 11.25 1.77881V23.0964ZM22.005 1.89011C20.5752 1.1598 18.9959 0.769793 17.3905 0.750538C15.7851 0.731283 14.1969 1.0833 12.75 1.77911V23.0964C12.8419 23.0678 12.932 23.034 13.02 22.9953C14.5292 22.1912 16.234 21.8273 17.94 21.9453C18.7334 22.0169 19.5145 22.1882 20.265 22.4553C20.6007 22.5738 20.9599 22.6097 21.3123 22.5601C21.6648 22.5105 22.0001 22.3768 22.29 22.1703C22.5864 21.9624 22.8284 21.6862 22.9955 21.3651C23.1626 21.0439 23.2499 20.6873 23.25 20.3253V3.91511C23.2478 3.49593 23.1306 3.08541 22.911 2.72832C22.6915 2.37122 22.3781 2.08128 22.005 1.89011Z" fill="#B1AFAF"/>
</g>
<defs>
<clipPath id="clip0_259_6610">
<rect width="24" height="24" fill="white"/>
</clipPath>
</defs>
</svg>
