<svg width="24" height="24" viewBox="0 0 24 24" fill="none" xmlns="http://www.w3.org/2000/svg">
<path fill-rule="evenodd" clip-rule="evenodd" d="M11.1054 2.57141H12.8947C14.063 2.5714 14.9922 2.5714 15.7418 2.63265C16.5095 2.69537 17.164 2.82656 17.7634 3.13195C18.7311 3.62501 19.5178 4.41177 20.0109 5.37946C20.3163 5.97882 20.4475 6.63339 20.5102 7.40105C20.5715 8.15069 20.5715 9.07985 20.5714 10.2482V17.6583C20.5715 18.5213 20.5715 19.2283 20.5217 19.7757C20.4723 20.3177 20.3642 20.8745 20.0163 21.314C19.5333 21.9242 18.8 22.2828 18.0219 22.2894C17.4613 22.2942 16.9555 22.0377 16.4974 21.7439C16.0347 21.4472 15.4766 21.0131 14.7954 20.4832L13.1577 19.2095C12.4929 18.6924 12.3497 18.6016 12.224 18.5676C12.0773 18.5279 11.9227 18.5279 11.776 18.5676C11.6503 18.6016 11.5071 18.6924 10.8423 19.2095L9.20462 20.4833C8.52338 21.0132 7.96532 21.4472 7.50266 21.7439C7.04459 22.0377 6.53871 22.2942 5.97814 22.2894C5.2 22.2828 4.46672 21.9242 3.98376 21.314C3.63584 20.8745 3.5277 20.3177 3.47838 19.7757C3.42856 19.2283 3.42858 18.5213 3.42859 17.6583V10.2482C3.42858 9.07987 3.42858 8.1507 3.48983 7.40105C3.55255 6.63339 3.68374 5.97882 3.98913 5.37946C4.48219 4.41177 5.26895 3.62501 6.23664 3.13195C6.83599 2.82656 7.49057 2.69537 8.25823 2.63265C9.00788 2.5714 9.93705 2.5714 11.1054 2.57141Z" fill="#F9A502"/>
</svg>
