<svg width="160" height="77" viewBox="0 0 160 77" fill="none" xmlns="http://www.w3.org/2000/svg">
    <defs>
        <linearGradient id="paint0_linear_309_4848" x1="65.7497" y1="0.03956" x2="92.2487" y2="81.13"
            gradientUnits="userSpaceOnUse">
            <stop stop-color="#00A9EB" />
            <stop offset="1" stop-color="#0060D4" />
        </linearGradient>
        <linearGradient id="paint1_linear_309_4848" x1="112.721" y1="20.8996" x2="157.663" y2="74.7959"
            gradientUnits="userSpaceOnUse">
            <stop stop-color="#93C22B" />
            <stop offset="0.07" stop-color="#8ABF2B" />
            <stop offset="1" stop-color="#25A136" />
        </linearGradient>
        <linearGradient id="paint2_linear_309_4848" x1="113.904" y1="16.6623" x2="155.346" y2="81.1851"
            gradientUnits="userSpaceOnUse">
            <stop stop-color="#A7D63F" />
            <stop offset="0.07" stop-color="#9ED33F" />
            <stop offset="1" stop-color="#39B54A" />
        </linearGradient>
    </defs>
    <path
        d="M29.5705 73.6305C44.7406 73.6305 57.0378 61.4044 57.0378 46.3233C57.0378 38.7825 53.9635 31.9557 48.9926 27.0138L48.9872 27.0084L46.8886 24.9227L46.8832 24.9173C41.913 19.9787 35.0489 16.925 27.4672 16.925C20.8761 16.925 14.8268 19.2331 10.0931 23.0808C3.93238 28.0879 0 35.7026 0 44.2309C0 51.5978 2.93983 58.2781 7.71003 63.1905L6.14181 67.8308L3.95062 74.3143L6.05397 76.4068L11.8519 72.725L16.0248 70.0757C20.0234 72.3341 24.6436 73.6305 29.5705 73.6305Z"
        fill="#FF4141" />
    <path
        d="M27.4665 16.9243C12.2971 16.9243 0 29.1498 0 44.2308C0 51.5977 2.93983 58.2781 7.71003 63.1904L6.14181 67.8307L3.95062 74.3143L9.74852 70.6325L13.9208 67.9832C17.9187 70.2416 22.5389 71.538 27.4665 71.538C42.6359 71.538 54.9331 59.3125 54.9331 44.2315C54.9331 29.1505 42.6359 16.9243 27.4665 16.9243Z"
        fill="#FF4141" />
    <path
        d="M29.4543 50.3961H22.4612V49.7008C22.4612 48.5179 22.5963 47.5573 22.8659 46.8191C23.1355 46.0815 23.5375 45.4078 24.0713 44.7972C24.6051 44.1873 25.8037 43.1138 27.6692 41.5776C28.6631 40.7729 29.1597 40.0346 29.1597 39.3636C29.1597 38.6925 28.9604 38.1712 28.5618 37.7991C28.1631 37.427 27.5591 37.2409 26.749 37.2409C25.878 37.2409 25.1571 37.5277 24.5868 38.1007C24.0166 38.6744 23.651 39.6739 23.4916 41.1013L16.3518 40.2234C16.5971 37.6137 17.5511 35.5125 19.2133 33.9205C20.8754 32.3285 23.424 31.5332 26.8591 31.5332C29.5334 31.5332 31.6928 32.0881 33.3367 33.1978C35.5698 34.6977 36.686 36.6981 36.686 39.1983C36.686 40.2348 36.3975 41.2357 35.8211 42.1989C35.2441 43.1629 34.0664 44.3397 32.2881 45.7302C31.0489 46.7063 30.2665 47.4895 29.9415 48.0813C29.6165 48.6731 29.4537 49.4442 29.4537 50.3954L29.4543 50.3961ZM22.222 52.244H29.7118V58.8122H22.222V52.244Z"
        fill="white" />
    <path
        d="M91.1291 74.4948L93.2338 76.588L93.1372 68.5225L93.0676 62.7503C100.211 58.955 105.944 52.5165 108.628 44.2482C112.492 32.3458 109.016 19.8388 100.693 11.5638L100.684 11.5557L98.5878 9.47267L98.5797 9.46461C95.0683 5.97631 90.6953 3.24103 85.6468 1.62081C74.7753 -1.86748 63.4018 0.661582 55.1701 7.35269C50.5114 11.1392 46.8594 16.2592 44.8737 22.3759C41.0109 34.2743 44.4838 46.7779 52.8019 55.0529L52.8087 55.0597L54.8985 57.1387L54.9053 57.1454L54.912 57.1521C58.4248 60.6444 62.8011 63.3831 67.8537 65.004C73.2746 66.7431 78.8185 66.9782 84.0373 65.9551L85.9643 68.2753L91.1298 74.4948H91.1291Z"
        fill="url(#paint0_linear_309_4848)" />
    <path
        d="M85.6461 1.62086C102.67 7.08337 112.017 25.2315 106.523 42.1564C103.839 50.4241 98.106 56.8626 90.9629 60.6579L91.0325 66.4301L91.1291 74.4956L85.9636 68.276L82.2461 63.8003C76.9361 64.8952 71.2794 64.6863 65.7497 62.9122C48.7256 57.4497 39.3791 39.3016 44.873 22.3767C50.3675 5.45106 68.622 -3.84098 85.6461 1.62086Z"
        fill="#1B51CC" />
    <path
        d="M79.661 40.2519H70.2192V39.3135C70.2192 37.7161 70.4017 36.4197 70.7659 35.4229C71.13 34.4267 71.6726 33.5172 72.3935 32.6936C73.1138 31.8701 74.7327 30.4211 77.2509 28.3462C78.5928 27.2593 79.2637 26.2631 79.2637 25.357C79.2637 24.4508 78.9941 23.7475 78.4563 23.2451C77.9178 22.7426 77.1023 22.4914 76.009 22.4914C74.8327 22.4914 73.8597 22.8783 73.0895 23.6521C72.3192 24.4266 71.826 25.7768 71.6111 27.7033L61.9707 26.5177C62.3018 22.9938 63.5896 20.1571 65.8342 18.0076C68.0787 15.8587 71.5199 14.7839 76.1584 14.7839C79.7691 14.7839 82.6846 15.5336 84.9042 17.0315C87.919 19.0568 89.4264 21.7578 89.4264 25.134C89.4264 26.5338 89.0372 27.8847 88.2589 29.1852C87.4798 30.4863 85.89 32.0756 83.488 33.9524C81.8144 35.2704 80.759 36.3283 80.3198 37.1264C79.8806 37.9251 79.661 38.9669 79.661 40.2513V40.2519ZM69.8963 42.7467H80.009V51.6149H69.8963V42.7467Z"
        fill="white" />
    <path
        d="M150.251 70.5848L156.049 74.2666L153.858 67.783L152.29 63.1427C157.06 58.2304 160 51.55 160 44.1825C160 36.8149 156.925 29.8148 151.955 24.8729L151.949 24.8675L149.85 22.7818L149.844 22.7764C144.874 17.8379 138.01 14.7842 130.428 14.7842C123.837 14.7842 117.788 17.0922 113.054 20.9399C106.894 25.9477 102.962 33.5624 102.962 42.0907C102.962 49.6289 106.034 56.453 111.002 61.3942L111.007 61.3996L113.1 63.4813L113.106 63.4867L113.111 63.492C118.082 68.4339 124.949 71.4903 132.534 71.4903C137.461 71.4903 142.082 70.1939 146.08 67.9355L150.252 70.5848H150.251Z"
        fill="url(#paint1_linear_309_4848)" />
    <path
        d="M130.428 14.7842C145.598 14.7842 157.895 27.0097 157.895 42.0907C157.895 49.4576 154.955 56.1379 150.185 61.0503L151.753 65.6906L153.944 72.1742L148.146 68.4924L143.974 65.8431C139.976 68.1014 135.356 69.3979 130.428 69.3979C115.259 69.3979 102.962 57.1724 102.962 42.0914C102.962 27.0103 115.259 14.7849 130.428 14.7849V14.7842Z"
        fill="url(#paint2_linear_309_4848)" />
    <path
        d="M132.77 47.9333H126.064V47.267C126.064 46.1331 126.193 45.2121 126.453 44.5041C126.712 43.7968 127.097 43.1506 127.609 42.5655C128.12 41.9811 129.27 40.9514 131.058 39.4783C132.011 38.7064 132.487 37.9991 132.487 37.3556C132.487 36.7121 132.296 36.2123 131.914 35.8556C131.531 35.4989 130.952 35.3209 130.176 35.3209C129.341 35.3209 128.649 35.5957 128.103 36.1451C127.556 36.6953 127.206 37.6538 127.053 39.0222L120.206 38.1805C120.441 35.6783 121.356 33.6631 122.95 32.1369C124.544 30.6107 126.988 29.8477 130.282 29.8477C132.846 29.8477 134.916 30.3797 136.493 31.4437C138.634 32.8819 139.704 34.8003 139.704 37.1977C139.704 38.1919 139.428 39.1511 138.875 40.0748C138.322 40.9984 137.193 42.1269 135.487 43.4603C134.299 44.396 133.549 45.147 133.237 45.7146C132.926 46.2822 132.77 47.0218 132.77 47.934V47.9333ZM125.835 49.7054H133.017V56.0028H125.835V49.7054Z"
        fill="white" />

</svg>