<svg width="259" height="274" viewBox="0 0 259 274" fill="none" xmlns="http://www.w3.org/2000/svg">
<g clip-path="url(#clip0_150_6583)">
<path d="M0 242.437C11.2876 240.871 22.5751 239.306 34.6935 237.625V273.297H27.8887C25.676 268.221 29.4786 261.44 23.9282 256.803C19.8851 259.429 21.6725 263.457 21.1126 266.876C20.7303 269.206 19.5513 273.456 19.0883 273.408C14.7097 272.95 17.2382 269.31 16.8739 267.076C16.2548 263.291 16.7016 259.321 15.9838 255.567C15.6626 253.888 13.6025 252.538 12.3661 251.082C5.82861 255.608 5.17002 257.46 4.27097 273.326C2.89995 273.496 1.44997 273.676 0 273.855L0 242.437Z" fill="white" fill-opacity="0.4"/>
<path d="M201.34 0C204.097 14.0329 206.984 29.4563 210.246 44.7993C211.031 48.4878 213.057 51.9132 214.817 56.2049C206.795 60.2138 210.984 68.6521 210.49 75.8699C210.32 78.345 211.027 80.6752 213.941 77.5343C214.83 78.9213 215.564 80.4461 216.637 81.6774C222.171 88.029 221.884 93.058 214.702 97.4445C210.887 99.7747 209.938 102.388 210.176 106.427C210.471 111.406 210.246 116.415 210.246 122.52C212.274 121.177 213.125 120.614 213.753 120.198C215.339 122.079 217.033 124.087 218.727 126.097C219.318 125.859 219.906 125.621 220.497 125.385C222.573 117.893 224.651 110.402 226.77 102.76C228.725 110.874 230.638 118.819 232.874 128.1C230.731 131.991 230.896 135.702 234.372 139.547C230.837 145.261 231.099 151.702 235.264 157.136C237.489 160.04 237.484 162.449 234.738 165.103C230.28 169.413 230.354 178.705 234.677 182.946C237.616 185.831 237.92 188.562 234.716 191.591C230.067 195.988 230.654 203.68 235.599 207.664C238.478 209.981 241.873 212.152 243.642 215.195C245.119 217.736 244.847 221.473 244.597 224.621C244.561 225.065 240.265 225.251 237.932 225.408C236.604 225.498 235.257 225.285 233.665 225.194C233.272 226.896 232.911 228.46 232.551 230.026C232.01 224.678 231.852 219.252 226.758 216.417C227.935 220.109 229.292 223.912 230.257 227.812C230.433 228.524 229.012 229.628 228.328 230.554C227.781 229.688 226.7 228.769 226.778 227.962C227.149 224.152 225.394 223.144 221.826 222.804C213.424 222.006 205.071 220.709 196.145 219.54C196.034 217.534 195.835 215.59 195.833 213.647C195.811 190.515 195.781 167.382 195.858 144.25C195.87 140.748 195.384 138.196 191.564 138.791C192.328 140.982 193.695 143.094 193.71 145.213C193.864 168.344 193.812 191.476 193.791 214.608C193.791 215.891 193.572 217.176 192.294 218.563C192.21 216.959 192.053 215.354 192.052 213.75C192.039 191.8 191.998 169.85 192.104 147.901C192.12 144.629 191.42 142.441 188.473 140.361C180.434 134.684 180.262 130.758 186.781 123.273C187.582 122.353 188.016 121.117 188.612 120.041C189.338 120.726 190.008 121.356 190.853 122.153C191.305 121.303 191.718 120.888 191.723 120.467C191.791 114.559 191.937 108.646 191.734 102.746C191.686 101.335 190.781 99.5331 189.678 98.6454C180.665 91.4007 180.443 90.2697 186.907 80.7199C187.47 79.8895 187.853 78.9374 188.324 78.0426C189.161 78.5992 189.993 79.1558 191.759 80.3352C191.759 73.2176 192.106 67.011 191.544 60.8849C191.381 59.097 188.633 57.5436 187.957 56.8259C189.633 51.856 191.291 47.6502 192.459 43.3138C194.171 36.9623 195.709 30.5516 196.997 24.1034C198.697 15.6042 200.084 7.04239 201.34 0ZM221.171 134.289C220.89 134.205 220.608 134.119 220.326 134.035C218.085 135.994 216.061 138.317 213.541 139.813C210.871 141.399 209.916 143.201 209.941 146.269C210.115 167.836 210.105 189.404 210.185 210.971C210.191 212.34 210.449 213.709 210.612 215.295C221.453 210.148 223.878 202.264 217.073 190.783C215.381 187.929 215.529 185.844 217.679 183.596C221.53 179.569 221.712 169.264 217.857 165.304C215.201 162.575 214.336 159.627 217.267 156.937C222.917 151.751 220.865 146.274 218.799 141.243C219.689 138.636 220.432 136.463 221.173 134.29L221.171 134.289ZM187.065 128.009C195.637 127.373 204.59 126.708 213.311 126.061C205.773 121.322 190.324 122.686 187.065 128.009ZM187.569 85.1673C195.811 84.5194 204.219 83.8572 212.068 83.2398C206.722 78.9947 192.527 79.9718 187.569 85.1673ZM195.42 120.669C195.42 113.147 195.531 105.62 195.276 98.1067C195.246 97.1921 193.249 96.3456 191.7 95.0946C195.806 104.027 192.551 112.573 195.42 120.669ZM193.055 50.945C193.67 51.0649 194.286 51.1831 194.901 51.303C195.666 46.0753 196.429 40.8459 197.193 35.6182C196.865 35.5627 196.536 35.509 196.208 35.4536C195.158 40.6168 194.106 45.7818 193.057 50.945H193.055ZM193.268 55.9937C193.606 63.5551 193.92 70.6315 194.236 77.7061C195.436 71.342 195.528 65.0316 195.339 58.7319C195.311 57.7834 193.968 56.8742 193.27 55.9937H193.268Z" fill="white" fill-opacity="0.4"/>
<path d="M108.199 137.764C89.3708 148.415 82.9248 163.668 88.6906 183.686C84.565 184.38 80.5273 185.3 76.4448 185.59C75.3161 185.671 73.5484 184.13 72.9311 182.904C69.0442 175.176 69.8122 167.36 75.4345 161.157C82.6359 153.213 90.5228 145.777 98.7992 138.949C105.012 133.823 112.307 130.004 119.117 125.6C122.421 123.463 124.434 120.913 124.154 116.489C123.908 112.594 124.884 108.623 126.408 104.639C126.724 108.202 127.652 111.843 127.219 115.313C126.498 121.093 129.819 123.814 133.879 126.591C144.468 133.834 155.244 140.861 165.335 148.749C170.27 152.606 174.435 157.811 177.88 163.095C181.859 169.2 181.977 176.132 178.769 182.943C177.529 185.574 176.057 186.649 172.886 186.098C162.896 184.364 152.685 183.655 142.842 181.352C128.445 177.982 114.367 179.233 100.165 181.944C91.0468 183.686 90.286 183.029 89.0926 173.785C87.8777 164.389 91.6139 156.579 97.3133 149.582C100.689 145.438 104.552 141.691 108.197 137.764H108.199Z" fill="white" fill-opacity="0.4"/>
<path d="M189.43 207.805C171.966 205.265 156.075 203.009 140.215 200.557C138.753 200.331 137.358 199.01 136.147 197.953C133.434 195.581 130.855 193.056 127.603 191.034C133.434 197.348 138.257 203.875 136.032 213.231C136.59 213.251 137.148 213.271 137.706 213.29C138.273 210.262 138.839 207.234 139.542 203.478C147.702 204.632 156.149 205.811 164.594 207.023C170.788 207.912 176.983 208.809 183.167 209.765C189.615 210.762 189.609 210.794 189.01 218.475C185.676 218.144 182.32 217.811 178.964 217.478C178.83 218.187 178.693 218.896 178.559 219.603C183.332 220.377 188.093 221.224 192.879 221.908C197.902 222.625 202.946 223.196 207.984 223.81C213.161 224.442 218.34 225.049 224.138 225.739C222.191 233.163 226.894 233.383 232.016 233.732C239.099 234.213 246.139 235.323 253.22 235.873C256.64 236.137 257.769 237.446 256.477 241.243C254.011 241.002 251.4 240.774 248.798 240.483C239.888 239.48 230.973 238.51 222.08 237.374C220.796 237.209 218.551 236.173 218.568 235.592C218.695 231.108 215.51 231.515 212.692 231.15C180.482 226.981 148.278 222.779 116.064 218.634C114.295 218.407 112.468 218.606 110.017 218.606C104.474 208.152 109.188 199.841 116.201 191.533C114.363 193.06 112.169 194.318 110.763 196.17C108.075 199.716 104.547 200.891 100.361 201.457C87.8187 203.152 75.309 205.083 62.7492 206.926C61.1897 203.361 61.8627 201.044 64.8308 198.837C67.7756 196.648 70.0385 193.559 72.9331 191.288C74.8191 189.808 77.2023 188.51 79.5298 188.117C93.0371 185.833 106.536 182.927 120.154 182.073C129.426 181.493 138.894 183.875 148.262 185.035C152.289 185.534 156.276 186.331 160.292 186.927C176.181 189.28 176.26 189.194 187.088 200.383C188.443 201.784 188.441 204.492 189.426 207.8L189.43 207.805Z" fill="white" fill-opacity="0.4"/>
<path d="M215.21 234.287V273.316H201.692C199.811 265.674 204.096 256.916 196.448 250.462C188.703 256.642 193.459 265.594 191.328 273.313H180.577C181.491 259.385 181.882 245.202 166.018 238.24C150.682 245.1 151.382 258.904 152.434 273.112H114.797V221.287C148.376 225.634 181.699 229.947 215.21 234.285V234.287Z" fill="white" fill-opacity="0.4"/>
<path d="M48.1202 65.5952C50.1821 75.6818 50.9017 86.4808 55.2211 95.558C54.7456 100.132 54.1354 104.379 53.9757 108.642C53.9326 109.77 55.0542 111.202 56.025 112.061C60.8523 116.327 61.0659 120.129 56.5203 124.29C52.6531 127.83 52.9277 137.854 56.9851 141.254C61.2381 144.819 61.0031 149.086 56.7877 152.826C55.3952 154.061 54.3813 156.178 54.0565 158.041C53.5971 160.663 53.8985 163.426 53.9506 166.127C54.0134 169.341 53.5109 172.212 57.2346 174.71C61.5199 177.586 60.6765 181.631 57.0713 185.493C55.4687 187.209 54.2144 189.89 54.078 192.206C53.6868 198.939 53.6276 205.727 54.0457 212.456C54.349 217.319 53.1107 219.871 47.8348 219.418C46.6828 219.32 45.493 219.647 43.3306 219.889V184.999C42.8389 185.012 42.349 185.026 41.8573 185.038V220.029C34.2952 220.986 27.1476 222.006 19.9659 222.668C18.9484 222.761 17.2418 221.339 16.7591 220.227C15.0668 216.336 15.7649 212.555 18.6236 209.409C20.0843 207.8 21.8214 206.354 23.6608 205.194C27.3701 202.857 29.8465 200.05 29.1287 195.29C28.9654 194.203 29.4464 193.022 30.0709 191.728C29.7586 199.132 32.6029 204.342 40.3194 207.284C40.3194 200.464 40.4611 194.126 40.192 187.809C40.1417 186.637 38.5195 185.445 37.4715 184.416C33.3441 180.366 33.5684 176.314 38.2323 173.035C38.7007 172.706 39.6859 172.951 39.9892 172.575C41.7335 170.417 39.9623 154.598 37.8322 152.493C33.0444 147.761 33.3584 144.305 38.9214 140.413C39.4149 140.067 40.3032 139.577 40.2548 139.269C39.4203 133.914 42.8174 128.017 37.3746 123.187C33.0964 119.391 33.9524 115.377 38.6523 112.048C39.4975 111.449 40.4163 110.13 40.3463 109.215C40.0484 105.305 39.379 101.423 38.882 97.5267C38.803 96.9128 38.7958 96.2345 38.9735 95.6511C42.017 85.577 45.0946 75.5154 48.122 65.5898L48.1202 65.5952ZM41.9901 171.052C42.1964 171.041 42.4028 171.029 42.6074 171.018V152.01C42.401 152.028 42.1947 152.044 41.9901 152.062V171.052ZM37.9093 144.593C43.1763 144.347 48.445 144.101 53.7119 143.854C48.2745 141.508 42.9878 141.494 37.9093 144.593ZM38.2198 177.103C43.2911 176.836 48.3624 176.57 54.8317 176.228C48.2117 174.089 43.0794 173.839 38.2198 177.103Z" fill="white" fill-opacity="0.4"/>
<path d="M76.9205 273.332C74.3077 264.999 80.0161 255.013 71.3216 247.819C67.598 250.009 66.1929 253.411 66.078 257.44C65.9578 261.66 65.938 265.887 66.0708 270.105C66.1749 273.393 64.9457 274.436 60.6873 272.785C60.6873 261.912 60.7752 250.68 60.5401 239.455C60.5186 238.423 58.4441 237.433 57.3351 236.434C40.6945 244.153 43.1727 259.222 43.3037 273.203C42.1409 273.466 41.511 273.71 40.8739 273.73C40.0449 273.753 39.2122 273.599 38.0745 273.493V232.023C62.0995 228.821 86.2054 225.609 110.74 222.339V273.479H104.755C103.77 259.824 108.705 244.221 91.6625 236.252C84.7733 240.817 80.1758 246.854 80.9654 256.105C81.3673 260.803 81.0336 265.56 81.204 270.284C81.3279 273.742 79.79 274.368 76.9223 273.336L76.9205 273.332Z" fill="white" fill-opacity="0.4"/>
<path d="M163.451 61.4578C159.115 66.2989 159.262 74.127 163.504 78.7014C167.251 82.7425 166.964 85.5165 162.939 89.4985C161.69 90.7352 160.619 92.7754 160.567 94.4828C160.321 102.572 160.369 110.674 160.552 118.765C160.579 119.932 161.661 121.355 162.656 122.176C168.116 126.686 168.007 130.933 162.334 135.141C161.114 136.046 160.35 137.56 159.054 139.202C154.037 135.985 148.728 132.78 143.644 129.256C139.993 126.726 143.226 124.302 144.858 123.318C147.935 121.46 147.811 118.984 147.788 116.181C147.743 110.447 147.793 104.711 147.775 98.9767C147.763 94.694 148.42 90.5419 144.009 87.2292C140.82 84.8364 142.871 81.3054 144.922 78.6907C148.762 73.7977 148.992 66.7517 145.274 61.7299C148.676 57.4149 149.292 52.7832 146.95 47.7328C146.593 46.9632 146.663 45.8465 146.891 44.9838C149.416 35.4055 152.012 25.8468 154.465 16.7373C156.583 25.8933 156.606 36.4488 161.895 45.927C159.192 49.9896 158.792 57.542 163.447 61.4543L163.451 61.4578ZM149.6 112.369C149.721 112.308 149.841 112.247 149.961 112.186V88.7594L149.6 88.7719V112.369Z" fill="white" fill-opacity="0.4"/>
<path d="M28.9942 236.556C28.2955 228.5 31.2714 224.073 37.9219 223.275C42.6254 222.699 47.2983 221.709 52.0143 221.471C55.9587 221.273 57.4912 219.789 56.9475 215.903C56.7178 214.262 56.9098 212.564 56.9098 210.472C72.9636 208.149 88.7769 205.86 104.332 203.608C105.218 209.022 106.04 214.057 106.982 219.807C100.441 220.78 93.2255 221.937 85.9864 222.914C70.3884 225.022 54.7851 227.089 39.1673 229.049C36.5599 229.376 34.8551 229.723 34.4746 232.997C34.3347 234.194 31.406 235.071 28.996 236.556H28.9942Z" fill="white" fill-opacity="0.4"/>
<path d="M218.896 239.916C232.335 241.369 245.412 242.783 258.982 244.25C258.982 253.517 259.066 262.415 258.864 271.306C258.84 272.3 257.193 273.255 255.59 274C254.824 265.753 255.054 257.601 247.537 252.382C238.584 257.037 239.881 265.485 239.747 273.486H234.656C233.875 268.16 233.128 263.056 232.253 257.08C224.482 261.501 227.052 268.017 225.961 273.409H218.894V239.916H218.896Z" fill="white" fill-opacity="0.4"/>
<path d="M126.72 95.1913C112.623 96.5014 98.0438 83.8609 96.1452 68.679C94.4332 54.988 105.73 39.2495 118.805 37.1108C95.8724 50.7912 95.6912 84.566 126.72 95.1913Z" fill="white" fill-opacity="0.4"/>
<path d="M3.36841 239.35V233.684C10.9844 232.855 18.4083 232.046 26.8677 231.126C20.3195 239.846 11.5514 237.644 3.36841 239.35Z" fill="white" fill-opacity="0.4"/>
<path d="M250.589 233.163C246.255 232.752 241.902 232.471 237.604 231.825C236.696 231.689 235.989 230.217 235.188 229.362C236.057 228.852 236.947 227.873 237.789 227.912C241.324 228.077 244.881 228.36 248.355 229C249.602 229.23 250.638 230.59 251.772 231.433C251.377 232.009 250.984 232.585 250.589 233.163Z" fill="white" fill-opacity="0.4"/>
<path d="M11.3037 230.26C11.7811 228.474 11.9156 226.452 12.4073 226.363C16.5276 225.607 20.7088 225.156 24.8865 224.788C25.2561 224.755 26.2341 226.278 26.0726 226.525C25.4463 227.49 24.5688 228.8 23.6159 228.956C19.8313 229.573 15.9838 229.804 11.3037 230.262V230.26Z" fill="white" fill-opacity="0.4"/>
</g>
<defs>
<clipPath id="clip0_150_6583">
<rect width="259" height="274" fill="white"/>
</clipPath>
</defs>
</svg>
