<svg width="155" height="135" viewBox="0 0 155 135" fill="none" xmlns="http://www.w3.org/2000/svg">
<g style="mix-blend-mode:screen">
<path style="mix-blend-mode:screen" d="M147.23 75.4817C129.982 56.7249 97.628 69.2448 97.7906 94.7155C97.8228 102.207 100.841 109.383 106.188 114.68C111.536 119.977 118.779 122.967 126.341 122.999C151.035 123.203 164.197 93.0865 147.23 75.4817ZM114.183 84.8861C114.279 78.6832 122.034 78.6839 122.129 84.8863C122.022 91.0844 114.29 91.0836 114.183 84.8861ZM120.059 110.201C119.738 110.729 119.22 111.112 118.616 111.266C118.013 111.42 117.373 111.333 116.833 111.024C116.294 110.715 115.899 110.209 115.732 109.614C115.566 109.019 115.642 108.383 115.944 107.843L132.622 79.2294C132.778 78.9616 132.986 78.727 133.234 78.5389C133.481 78.3507 133.764 78.2128 134.066 78.1329C134.367 78.053 134.682 78.0328 134.991 78.0733C135.301 78.1138 135.599 78.2143 135.869 78.3691C136.139 78.5238 136.376 78.7298 136.566 78.9753C136.756 79.2207 136.895 79.5008 136.976 79.7996C137.057 80.0983 137.077 80.4099 137.036 80.7165C136.995 81.023 136.894 81.3186 136.738 81.5864L120.059 110.201ZM134.525 109.258C129.311 109.173 129.309 99.9288 134.525 99.8297C139.742 99.9298 139.739 109.174 134.525 109.258ZM88.2737 60.5382C87.336 60.5251 86.4411 60.1469 85.7826 59.4853C85.1242 58.8237 84.755 57.9319 84.755 57.0028C84.755 56.0737 85.1241 55.1819 85.7825 54.5203C86.441 53.8587 87.3358 53.4804 88.2736 53.4672C89.2114 53.4803 90.1062 53.8586 90.7647 54.5202C91.4232 55.1818 91.7923 56.0735 91.7923 57.0027C91.7924 57.9318 91.4232 58.8236 90.7648 59.4852C90.1063 60.1468 89.2115 60.5251 88.2737 60.5382ZM126.341 61.7168C131.07 61.7068 135.745 62.7119 140.045 64.6631C141.671 53.8701 139.819 42.844 134.752 33.1546C129.685 23.4651 121.661 15.6062 111.824 10.6967C101.986 5.78718 90.8363 4.07737 79.961 5.81065C69.0856 7.54394 59.0393 12.632 51.2525 20.3504C43.4657 28.0688 38.3352 38.0241 36.5915 48.7991C34.8477 59.574 36.5796 70.6193 41.5406 80.3625C46.5016 90.1056 54.4388 98.0499 64.2222 103.064C74.0055 108.079 85.1364 109.908 96.03 108.291C85.7604 87.2281 102.707 61.2013 126.341 61.7168ZM133.478 54.6458C134.101 54.6581 134.694 54.9119 135.13 55.3526C135.566 55.7933 135.81 56.3858 135.81 57.0029C135.81 57.62 135.566 58.2124 135.13 58.6531C134.694 59.0938 134.101 59.3475 133.478 59.3598C132.855 59.3479 132.262 59.0944 131.825 58.6536C131.389 58.2129 131.144 57.6201 131.144 57.0027C131.144 56.3853 131.389 55.7926 131.825 55.3518C132.262 54.9111 132.855 54.6576 133.478 54.6458ZM118.561 23.6745C119.008 23.2471 119.607 23.0108 120.229 23.0165C120.851 23.0222 121.445 23.2693 121.885 23.7048C122.324 24.1403 122.574 24.7293 122.58 25.3452C122.585 25.961 122.347 26.5545 121.915 26.9979C121.468 27.4253 120.869 27.6616 120.247 27.656C119.625 27.6503 119.031 27.4031 118.591 26.9676C118.152 26.5322 117.902 25.9431 117.896 25.3273C117.891 24.7114 118.129 24.118 118.561 23.6745ZM43.069 59.3598C42.4463 59.3473 41.8535 59.0935 41.4176 58.6528C40.9817 58.2121 40.7376 57.6197 40.7376 57.0027C40.7376 56.3858 40.9818 55.7934 41.4177 55.3527C41.8536 54.9121 42.4465 54.6583 43.0692 54.6458C43.6918 54.6583 44.2847 54.9122 44.7206 55.3528C45.1565 55.7935 45.4006 56.3859 45.4006 57.0029C45.4005 57.6199 45.1564 58.2123 44.7205 58.6529C44.2846 59.0936 43.6917 59.3473 43.069 59.3598ZM88.2736 9.86245C88.8964 9.87481 89.4894 10.1286 89.9254 10.5693C90.3614 11.01 90.6056 11.6025 90.6056 12.2195C90.6056 12.8366 90.3613 13.4291 89.9253 13.8698C89.4893 14.3104 88.8962 14.5642 88.2734 14.5765C87.6507 14.5641 87.0576 14.3103 86.6216 13.8696C86.1856 13.4289 85.9414 12.8365 85.9414 12.2194C85.9415 11.6023 86.1857 11.0098 86.6217 10.5692C87.0578 10.1285 87.6508 9.87476 88.2736 9.86245ZM57.9865 90.331C57.5388 90.7579 56.9399 90.9937 56.3185 90.9879C55.6971 90.982 55.1029 90.7348 54.6635 90.2995C54.2241 89.8641 53.9746 89.2754 53.9687 88.6598C53.9628 88.0442 54.2009 87.4509 54.6319 87.0074C55.0796 86.5805 55.6785 86.3446 56.2999 86.3505C56.9213 86.3564 57.5156 86.6035 57.955 87.0389C58.3944 87.4742 58.6438 88.0629 58.6497 88.6785C58.6556 89.2941 58.4175 89.8874 57.9865 90.331ZM57.9865 26.9978C57.5388 27.4246 56.94 27.6603 56.3187 27.6544C55.6974 27.6484 55.1033 27.4013 54.664 26.966C54.2246 26.5308 53.9752 25.9422 53.9692 25.3267C53.9632 24.7112 54.2011 24.118 54.6319 23.6744C55.0796 23.2477 55.6785 23.0119 56.2997 23.0179C56.921 23.0238 57.5151 23.271 57.9545 23.7062C58.3938 24.1415 58.6433 24.7301 58.6493 25.3455C58.6553 25.961 58.4173 26.5543 57.9865 26.9978ZM88.2736 104.143C87.6514 104.13 87.0591 103.876 86.6237 103.435C86.1883 102.995 85.9445 102.403 85.9445 101.786C85.9445 101.169 86.1884 100.577 86.6238 100.137C87.0592 99.6962 87.6515 99.4422 88.2737 99.4291C88.896 99.4422 89.4883 99.6963 89.9237 100.137C90.3591 100.577 90.6029 101.17 90.6029 101.786C90.6029 102.403 90.359 102.995 89.9236 103.435C89.4882 103.876 88.8958 104.13 88.2736 104.143ZM88.2736 65.2523C86.4865 65.2436 84.7494 64.6662 83.3187 63.6053C81.8879 62.5444 80.8391 61.0561 80.327 59.3598H64.4817C63.8589 59.3475 63.2659 59.0937 62.8299 58.653C62.3939 58.2123 62.1496 57.6198 62.1497 57.0027C62.1497 56.3856 62.3939 55.7932 62.83 55.3525C63.266 54.9118 63.8591 54.6581 64.4818 54.6458H80.327C80.7268 53.3444 81.4438 52.1605 82.4148 51.1986C83.3857 50.2367 84.5807 49.5264 85.8944 49.1303V24.0045C85.9042 23.3859 86.1592 22.7959 86.6044 22.3618C87.0495 21.9278 87.649 21.6845 88.2735 21.6845C88.8981 21.6845 89.4976 21.9278 89.9427 22.3618C90.3878 22.7959 90.6428 23.3859 90.6527 24.0045V49.1303C92.5517 49.7089 94.1789 50.9415 95.2404 52.6053C96.3018 54.2691 96.7272 56.2542 96.4398 58.2017C96.1525 60.1492 95.1712 61.9306 93.6734 63.2237C92.1756 64.5169 90.2603 65.2364 88.2736 65.2523ZM105.808 120.666C100.097 122.226 94.1984 123.011 88.2741 122.999C-0.0836716 119.387 -0.0987301 -5.37225 88.2731 -8.99299C131.464 -9.63083 164.467 33.3472 152.536 74.374C150.27 71.5011 147.536 69.0235 144.446 67.0437C145.066 63.732 145.377 60.3709 145.374 57.0028C145.354 42.0061 139.332 27.6292 128.628 17.0249C117.924 6.42056 103.412 0.454247 88.274 0.434271C12.5345 3.54685 12.5369 110.459 88.2736 113.571C91.6734 113.573 95.0661 113.266 98.409 112.652C98.7657 113.218 99.1704 113.783 99.5986 114.372C101.383 116.729 103.47 118.845 105.808 120.666Z" fill="url(#paint0_linear_169_6232)"/>
</g>
<defs>
<linearGradient id="paint0_linear_169_6232" x1="176.639" y1="53.7208" x2="-0.0461697" y2="63.2699" gradientUnits="userSpaceOnUse">
<stop stop-color="#FF7E00"/>
<stop offset="0.13" stop-color="#CE6600"/>
<stop offset="0.31" stop-color="#904700"/>
<stop offset="0.48" stop-color="#5D2D00"/>
<stop offset="0.64" stop-color="#341A00"/>
<stop offset="0.78" stop-color="#170B00"/>
<stop offset="0.91" stop-color="#060300"/>
<stop offset="1"/>
</linearGradient>
</defs>
</svg>
