<svg width="110" height="89" viewBox="0 0 110 89" fill="none" xmlns="http://www.w3.org/2000/svg">
<g id="calendar-3 2" style="mix-blend-mode:screen" opacity="0.7" clip-path="url(#clip0_456_6557)">
<g id="Vector">
<path d="M18.1619 61.1718C17.2032 62.9072 16.9787 64.7485 17.5377 66.2913C18.0968 67.8341 19.3937 68.9524 21.1437 69.4007L62.7862 80.0292C64.5378 80.4747 66.5982 80.2133 68.5151 79.3024C70.432 78.3915 72.0487 76.9056 73.0103 75.1709L92.492 39.9665L37.6436 25.9674L18.1619 61.1718ZM75.065 44.4053L79.467 45.5288C79.7537 45.6068 79.9648 45.794 80.0548 46.0498C80.1447 46.3057 80.1063 46.6097 79.9477 46.8961C79.7892 47.1826 79.5233 47.4286 79.2075 47.5808C78.8917 47.7331 78.5513 47.7795 78.2599 47.71L73.858 46.5865C73.5711 46.5086 73.3597 46.3215 73.2696 46.0656C73.1795 45.8097 73.2179 45.5055 73.3765 45.2189C73.5351 44.9323 73.8011 44.6863 74.1171 44.534C74.4331 44.3818 74.7736 44.3355 75.065 44.4053ZM69.0298 55.3112L73.4318 56.4348C73.7184 56.5128 73.9296 56.6999 74.0195 56.9558C74.1095 57.2116 74.071 57.5156 73.9125 57.8021C73.754 58.0886 73.4881 58.3345 73.1723 58.4868C72.8565 58.6391 72.5161 58.6855 72.2247 58.6159L67.8228 57.4924C67.5358 57.4146 67.3244 57.2274 67.2343 56.9715C67.1442 56.7156 67.1826 56.4115 67.3412 56.1249C67.4998 55.8383 67.7659 55.5922 68.0819 55.44C68.3979 55.2877 68.7384 55.2415 69.0298 55.3112ZM62.9946 66.2172L67.3965 67.3407C67.6832 67.4187 67.8943 67.6059 67.9843 67.8617C68.0743 68.1176 68.0358 68.4216 67.8773 68.708C67.7188 68.9945 67.4529 69.2405 67.137 69.3927C66.8212 69.545 66.4809 69.5914 66.1895 69.5219L61.7875 68.3984C61.5006 68.3205 61.2892 68.1334 61.1991 67.8775C61.109 67.6216 61.1474 67.3174 61.306 67.0308C61.4646 66.7442 61.7307 66.4982 62.0467 66.3459C62.3626 66.1937 62.7031 66.1474 62.9946 66.2172ZM64.0601 41.5965L68.4621 42.72C68.7488 42.798 68.9599 42.9852 69.0499 43.241C69.1398 43.4969 69.1014 43.8009 68.9429 44.0873C68.7843 44.3738 68.5184 44.6198 68.2026 44.772C67.8868 44.9243 67.5464 44.9707 67.255 44.9012L62.8531 43.7777C62.5662 43.6998 62.3548 43.5127 62.2647 43.2568C62.1746 43.0009 62.213 42.6967 62.3716 42.4101C62.5302 42.1235 62.7962 41.8775 63.1122 41.7252C63.4282 41.573 63.7687 41.5267 64.0601 41.5965ZM58.0249 52.5024L62.4269 53.6259C62.7136 53.704 62.9247 53.8911 63.0146 54.147C63.1046 54.4028 63.0662 54.7068 62.9076 54.9933C62.7491 55.2798 62.4832 55.5257 62.1674 55.678C61.8516 55.8303 61.5112 55.8767 61.2198 55.8071L56.8179 54.6836C56.5309 54.6057 56.3196 54.4186 56.2294 54.1627C56.1393 53.9068 56.1777 53.6027 56.3363 53.3161C56.4949 53.0295 56.761 52.7834 57.077 52.6312C57.393 52.4789 57.7335 52.4327 58.0249 52.5024ZM51.9897 63.4084L56.3916 64.5319C56.6783 64.6099 56.8895 64.7971 56.9794 65.0529C57.0694 65.3088 57.0309 65.6128 56.8724 65.8992C56.7139 66.1857 56.448 66.4316 56.1322 66.5839C55.8163 66.7362 55.476 66.7826 55.1846 66.7131L50.7826 65.5895C50.4957 65.5117 50.2843 65.3246 50.1942 65.0687C50.1041 64.8128 50.1425 64.5086 50.3011 64.222C50.4597 63.9354 50.7258 63.6894 51.0418 63.5371C51.3578 63.3848 51.6983 63.3386 51.9897 63.4084ZM53.0552 38.7877L57.4572 39.9112C57.7439 39.9892 57.955 40.1764 58.045 40.4322C58.1349 40.6881 58.0965 40.9921 57.938 41.2785C57.7794 41.565 57.5135 41.8109 57.1977 41.9632C56.8819 42.1155 56.5415 42.1619 56.2502 42.0924L51.8482 40.9689C51.5613 40.891 51.3499 40.7039 51.2598 40.448C51.1697 40.192 51.2081 39.8879 51.3667 39.6013C51.5253 39.3147 51.7913 39.0687 52.1073 38.9164C52.4233 38.7641 52.7638 38.7179 53.0552 38.7877ZM47.02 49.6936L51.422 50.8171C51.7087 50.8952 51.9198 51.0823 52.0097 51.3381C52.0997 51.594 52.0613 51.898 51.9027 52.1845C51.7442 52.4709 51.4783 52.7169 51.1625 52.8692C50.8467 53.0215 50.5063 53.0678 50.2149 52.9983L45.813 51.8748C45.526 51.7969 45.3147 51.6098 45.2246 51.3539C45.1344 51.098 45.1728 50.7939 45.3314 50.5073C45.4901 50.2206 45.7561 49.9746 46.0721 49.8223C46.3881 49.6701 46.7286 49.6238 47.02 49.6936ZM40.9848 60.5996L45.3867 61.7231C45.6734 61.8011 45.8846 61.9882 45.9745 62.2441C46.0645 62.4999 46.026 62.8039 45.8675 63.0904C45.709 63.3769 45.4431 63.6228 45.1273 63.7751C44.8115 63.9274 44.4711 63.9738 44.1797 63.9043L39.7777 62.7807C39.4908 62.7029 39.2794 62.5158 39.1893 62.2599C39.0992 62.0039 39.1376 61.6998 39.2962 61.4132C39.4548 61.1266 39.7209 60.8806 40.0369 60.7283C40.3529 60.576 40.6934 60.5298 40.9848 60.5996ZM42.0504 35.9789L46.4523 37.1024C46.739 37.1804 46.9501 37.3676 47.0401 37.6234C47.13 37.8793 47.0916 38.1833 46.933 38.4697C46.7745 38.7562 46.5086 39.0021 46.1928 39.1544C45.877 39.3067 45.5366 39.3531 45.2452 39.2836L40.8433 38.16C40.5564 38.0822 40.345 37.8951 40.2549 37.6392C40.1648 37.3832 40.2032 37.0791 40.3618 36.7925C40.5204 36.5059 40.7865 36.2599 41.1024 36.1076C41.4184 35.9553 41.7589 35.9091 42.0504 35.9789ZM36.0151 46.8848L40.4171 48.0083C40.7038 48.0863 40.9149 48.2735 41.0048 48.5294C41.0948 48.7852 41.0563 49.0892 40.8978 49.3757C40.7393 49.6622 40.4734 49.9081 40.1575 50.0604C39.8417 50.2126 39.5014 50.259 39.21 50.1895L34.8081 49.066C34.5211 48.9881 34.3098 48.801 34.2197 48.5451C34.1296 48.2892 34.168 47.985 34.3266 47.6984C34.4852 47.4118 34.7512 47.1658 35.0672 47.0135C35.3832 46.8613 35.7237 46.815 36.0151 46.8848ZM29.9799 57.7907L34.3818 58.9143C34.6685 58.9923 34.8797 59.1795 34.9696 59.4353C35.0596 59.6912 35.0211 59.9952 34.8626 60.2816C34.704 60.5681 34.4381 60.814 34.1223 60.9663C33.8065 61.1186 33.4661 61.165 33.1747 61.0954L28.7728 59.9719C28.4859 59.8941 28.2745 59.707 28.1844 59.451C28.0943 59.1951 28.1327 58.891 28.2913 58.6044C28.4499 58.3178 28.716 58.0717 29.032 57.9195C29.348 57.7672 29.6885 57.721 29.9799 57.7907ZM15.3267 67.9066C13.3285 67.3624 11.8568 66.0579 11.2293 64.2747C10.6018 62.4915 10.8689 60.3726 11.9729 58.3755L30.8632 24.2399L35.4412 25.4083L15.9595 60.6127C15.2763 61.8492 14.8666 63.1391 14.7575 64.3967C14.6484 65.6542 14.8424 66.8507 15.3267 67.9066ZM36.6482 23.2271L32.0702 22.0587L33.6273 19.2449C34.7334 17.2483 36.5873 15.5344 38.7889 14.4733C40.9904 13.4121 43.3629 13.0888 45.3942 13.5731C44.0045 14.1484 42.6967 14.9611 41.5587 15.9566C40.4208 16.9521 39.479 18.1073 38.7968 19.3446L36.6482 23.2271ZM92.8658 25.674L89.7074 24.8679C89.5602 25.6081 86.8602 30.1815 86.4608 30.9843C86.2973 31.2687 86.0284 31.5108 85.7117 31.6585C85.3951 31.8062 85.0562 31.8477 84.7678 31.774C84.4794 31.7004 84.2646 31.5176 84.1696 31.2648C84.0746 31.012 84.107 30.7096 84.2598 30.4225L87.03 25.4167C90.2361 19.4642 82.1923 16.3657 77.646 21.7894L68.644 19.4918C68.4828 20.2597 65.806 24.779 65.3974 25.6082C65.2374 25.8975 64.9679 26.1453 64.6483 26.2971C64.3288 26.449 63.9853 26.4924 63.6934 26.4179C63.4015 26.3434 63.1852 26.1571 63.092 25.8999C62.9988 25.6427 63.0364 25.3357 63.1964 25.0465L65.9666 20.0406C66.6346 18.811 66.8229 17.5121 66.4957 16.3902C66.1685 15.2684 65.3486 14.4017 64.1915 13.9545C63.0344 13.5072 61.6206 13.5106 60.2181 13.9638C58.8156 14.4171 57.522 15.2887 56.5826 16.4135L51.2233 15.0455C49.4713 14.602 47.4116 14.8643 45.4953 15.7748C43.579 16.6854 41.9623 18.1701 40.9992 19.9038L38.8507 23.7863L93.699 37.7854L95.8476 33.9029C96.8064 32.1675 97.0309 30.3262 96.4718 28.7834C95.9127 27.2405 94.6158 26.1222 92.8658 25.674ZM58.8717 16.9976C59.3764 16.5454 59.9845 16.206 60.6213 16.0211C61.258 15.8362 61.8956 15.8138 62.4556 15.9567C63.0157 16.0997 63.4737 16.4017 63.7735 16.8256C64.0733 17.2496 64.2017 17.777 64.143 18.343L58.8717 16.9976ZM79.935 22.3737C80.4398 21.9215 81.0479 21.582 81.6846 21.3971C82.3214 21.2122 82.959 21.1898 83.519 21.3327C84.0791 21.4757 84.5371 21.7777 84.8369 22.2017C85.1367 22.6256 85.2651 23.1531 85.2064 23.7191L79.935 22.3737Z" fill="url(#paint0_linear_456_6557)" style="mix-blend-mode:screen"/>
</g>
</g>
<defs>
<linearGradient id="paint0_linear_456_6557" x1="87.5865" y1="50.7759" x2="30.1043" y2="25.0036" gradientUnits="userSpaceOnUse">
<stop stop-color="#FF7E00"/>
<stop offset="0.13" stop-color="#CE6600"/>
<stop offset="0.31" stop-color="#904700"/>
<stop offset="0.48" stop-color="#5D2D00"/>
<stop offset="0.64" stop-color="#341A00"/>
<stop offset="0.78" stop-color="#170B00"/>
<stop offset="0.91" stop-color="#060300"/>
<stop offset="1"/>
</linearGradient>
<clipPath id="clip0_456_6557">
<rect width="72.6892" height="79.7728" fill="white" transform="matrix(0.968938 0.247305 -0.484194 0.874961 38.7881 0.839844)"/>
</clipPath>
</defs>
</svg>
