<svg width="24" height="24" viewBox="0 0 24 24" fill="none" xmlns="http://www.w3.org/2000/svg">
<g clip-path="url(#clip0_259_6564)">
<path d="M24 6V8H0V6C0.00121747 4.93951 0.423036 3.9228 1.17292 3.17292C1.9228 2.42304 2.93951 2.00122 4 2V1C4 0.734784 4.10536 0.48043 4.29289 0.292893C4.48043 0.105357 4.73478 0 5 0C5.26522 0 5.51957 0.105357 5.70711 0.292893C5.89464 0.48043 6 0.734784 6 1V2H11V1C11 0.734784 11.1054 0.48043 11.2929 0.292893C11.4804 0.105357 11.7348 0 12 0C12.2652 0 12.5196 0.105357 12.7071 0.292893C12.8946 0.48043 13 0.734784 13 1V2H18V1C18 0.734784 18.1054 0.48043 18.2929 0.292893C18.4804 0.105357 18.7348 0 19 0C19.2652 0 19.5196 0.105357 19.7071 0.292893C19.8946 0.48043 20 0.734784 20 1V2C21.0605 2.00122 22.0772 2.42304 22.8271 3.17292C23.577 3.9228 23.9988 4.93951 24 6ZM0 10H24V20C23.9988 21.0605 23.577 22.0772 22.8271 22.8271C22.0772 23.577 21.0605 23.9988 20 24H4C2.93951 23.9988 1.9228 23.577 1.17292 22.8271C0.423036 22.0772 0.00121747 21.0605 0 20L0 10ZM8.29295 16.7071L10.2929 18.7071C10.3858 18.7999 10.496 18.8736 10.6173 18.9239C10.7387 18.9741 10.8687 19 11 19C11.1313 19 11.2613 18.9741 11.3827 18.9239C11.504 18.8736 11.6142 18.7999 11.7071 18.7071L15.7071 14.7071C15.8907 14.5187 15.9927 14.2656 15.991 14.0026C15.9894 13.7396 15.8841 13.4878 15.6981 13.3019C15.5122 13.1159 15.2604 13.0106 14.9974 13.009C14.7344 13.0073 14.4813 13.1093 14.2929 13.2929L11 16.586L9.70705 15.2929C9.51872 15.1093 9.26564 15.0073 9.00262 15.009C8.73961 15.0106 8.48784 15.1159 8.30185 15.3019C8.11587 15.4878 8.01065 15.7396 8.00898 16.0026C8.00731 16.2656 8.10934 16.5187 8.29295 16.7071Z" fill="#F9A502"/>
</g>
<defs>
<clipPath id="clip0_259_6564">
<rect width="24" height="24" fill="white"/>
</clipPath>
</defs>
</svg>
