<svg width="62" height="77" viewBox="0 0 62 77" fill="none" xmlns="http://www.w3.org/2000/svg">
<g style="mix-blend-mode:screen" opacity="0.7" clip-path="url(#clip0_169_9345)">
<path d="M24.7149 63.3186C25.275 64.514 26.1964 65.3862 27.2769 65.7436C28.3574 66.101 29.5086 65.9145 30.4778 65.2249L53.5195 48.8017C54.4878 48.1103 55.1943 46.9727 55.4838 45.6388C55.7733 44.3049 55.6222 42.8837 55.0637 41.6872L43.7153 17.421L13.3665 39.0524L24.7149 63.3186ZM38.967 27.9619L41.4027 26.2259C41.564 26.1148 41.7543 26.0865 41.9323 26.1472C42.1103 26.2078 42.2619 26.3525 42.3543 26.55C42.4466 26.7474 42.4723 26.9818 42.4258 27.2025C42.3794 27.4232 42.2644 27.6124 42.1059 27.7293L39.6702 29.4654C39.5089 29.5767 39.3186 29.6051 39.1404 29.5445C38.9623 29.4839 38.8106 29.3391 38.7182 29.1416C38.6258 28.944 38.6001 28.7095 38.6467 28.4888C38.6933 28.268 38.8083 28.0788 38.967 27.9619ZM42.4827 35.4793L44.9184 33.7432C45.0797 33.6322 45.2699 33.6039 45.4479 33.6646C45.626 33.7252 45.7775 33.8699 45.8699 34.0674C45.9622 34.2648 45.9879 34.4992 45.9415 34.7199C45.895 34.9406 45.7801 35.1298 45.6215 35.2467L43.1858 36.9828C43.0245 37.0941 42.8342 37.1225 42.656 37.0619C42.4779 37.0013 42.3262 36.8565 42.2338 36.659C42.1415 36.4614 42.1158 36.2269 42.1623 36.0062C42.2089 35.7854 42.324 35.5962 42.4827 35.4793ZM45.9983 42.9967L48.434 41.2606C48.5953 41.1496 48.7855 41.1213 48.9636 41.182C49.1416 41.2426 49.2932 41.3873 49.3855 41.5848C49.4779 41.7822 49.5036 42.0166 49.4571 42.2373C49.4106 42.458 49.2957 42.6472 49.1371 42.7641L46.7014 44.5002C46.5401 44.6115 46.3498 44.6399 46.1717 44.5793C45.9935 44.5187 45.8419 44.3739 45.7495 44.1764C45.6571 43.9788 45.6314 43.7443 45.678 43.5236C45.7245 43.3028 45.8396 43.1136 45.9983 42.9967ZM32.8778 32.3021L35.3135 30.566C35.4748 30.455 35.665 30.4267 35.8431 30.4873C36.0211 30.548 36.1727 30.6927 36.265 30.8901C36.3574 31.0876 36.3831 31.322 36.3366 31.5427C36.2901 31.7633 36.1752 31.9526 36.0166 32.0695L33.5809 33.8056C33.4196 33.9168 33.2293 33.9452 33.0512 33.8846C32.873 33.824 32.7214 33.6793 32.629 33.4818C32.5366 33.2842 32.5109 33.0497 32.5575 32.8289C32.604 32.6082 32.7191 32.4189 32.8778 32.3021ZM36.3934 39.8195L38.8291 38.0834C38.9904 37.9724 39.1806 37.9441 39.3587 38.0047C39.5367 38.0654 39.6883 38.2101 39.7806 38.4075C39.873 38.605 39.8987 38.8394 39.8522 39.0601C39.8057 39.2807 39.6908 39.47 39.5322 39.5869L37.0966 41.323C36.9352 41.4342 36.7449 41.4626 36.5668 41.402C36.3887 41.3414 36.237 41.1967 36.1446 40.9992C36.0522 40.8016 36.0265 40.5671 36.0731 40.3463C36.1196 40.1256 36.2347 39.9363 36.3934 39.8195ZM39.9091 47.3369L42.3447 45.6008C42.5061 45.4898 42.6963 45.4615 42.8743 45.5221C43.0524 45.5828 43.2039 45.7275 43.2963 45.9249C43.3886 46.1224 43.4143 46.3568 43.3679 46.5775C43.3214 46.7981 43.2064 46.9874 43.0479 47.1043L40.6122 48.8404C40.4509 48.9516 40.2606 48.98 40.0824 48.9194C39.9043 48.8588 39.7526 48.7141 39.6602 48.5166C39.5678 48.319 39.5422 48.0845 39.5887 47.8637C39.6353 47.643 39.7504 47.4537 39.9091 47.3369ZM26.7886 36.6423L29.2243 34.9062C29.3856 34.7951 29.5758 34.7669 29.7538 34.8275C29.9319 34.8882 30.0834 35.0328 30.1758 35.2303C30.2681 35.4278 30.2938 35.6622 30.2474 35.8828C30.2009 36.1035 30.0859 36.2928 29.9274 36.4097L27.4917 38.1457C27.3304 38.257 27.1401 38.2854 26.9619 38.2248C26.7838 38.1642 26.6321 38.0195 26.5397 37.8219C26.4473 37.6244 26.4217 37.3899 26.4682 37.1691C26.5148 36.9484 26.6299 36.7591 26.7886 36.6423ZM30.3042 44.1597L32.7399 42.4236C32.9012 42.3125 33.0914 42.2843 33.2694 42.3449C33.4475 42.4056 33.5991 42.5502 33.6914 42.7477C33.7837 42.9452 33.8095 43.1796 33.763 43.4002C33.7165 43.6209 33.6016 43.8102 33.443 43.9271L31.0073 45.6631C30.846 45.7744 30.6557 45.8028 30.4776 45.7422C30.2994 45.6816 30.1478 45.5369 30.0554 45.3393C29.963 45.1418 29.9373 44.9073 29.9838 44.6865C30.0304 44.4658 30.1455 44.2765 30.3042 44.1597ZM33.8198 51.6771L36.2555 49.941C36.4168 49.8299 36.607 49.8017 36.7851 49.8623C36.9631 49.923 37.1147 50.0676 37.207 50.2651C37.2994 50.4626 37.3251 50.697 37.2786 50.9176C37.2321 51.1383 37.1172 51.3276 36.9586 51.4445L34.5229 53.1805C34.3616 53.2918 34.1713 53.3202 33.9932 53.2596C33.815 53.199 33.6634 53.0543 33.571 52.8567C33.4786 52.6592 33.4529 52.4247 33.4995 52.2039C33.546 51.9832 33.6611 51.7939 33.8198 51.6771ZM20.6993 40.9824L23.135 39.2464C23.2963 39.1353 23.4865 39.1071 23.6646 39.1677C23.8426 39.2284 23.9942 39.373 24.0865 39.5705C24.1789 39.768 24.2046 40.0024 24.1581 40.223C24.1116 40.4437 23.9967 40.633 23.8381 40.7499L21.4024 42.4859C21.2411 42.5972 21.0508 42.6256 20.8727 42.565C20.6945 42.5044 20.5429 42.3597 20.4505 42.1621C20.3581 41.9645 20.3324 41.73 20.379 41.5093C20.4255 41.2885 20.5406 41.0993 20.6993 40.9824ZM24.2149 48.4998L26.6506 46.7638C26.8119 46.6527 27.0022 46.6245 27.1802 46.6851C27.3582 46.7458 27.5098 46.8904 27.6022 47.0879C27.6945 47.2854 27.7202 47.5198 27.6737 47.7404C27.6272 47.9611 27.5123 48.1504 27.3537 48.2673L24.9181 50.0033C24.7568 50.1146 24.5665 50.143 24.3883 50.0824C24.2102 50.0218 24.0585 49.8771 23.9661 49.6795C23.8737 49.4819 23.848 49.2474 23.8946 49.0267C23.9412 48.8059 24.0562 48.6167 24.2149 48.4998ZM27.7306 56.0172L30.1663 54.2812C30.3276 54.1701 30.5178 54.1419 30.6958 54.2025C30.8739 54.2632 31.0254 54.4078 31.1178 54.6053C31.2101 54.8028 31.2358 55.0372 31.1893 55.2578C31.1429 55.4785 31.0279 55.6678 30.8694 55.7847L28.4337 57.5207C28.2724 57.632 28.0821 57.6604 27.9039 57.5998C27.7258 57.5392 27.5741 57.3945 27.4817 57.1969C27.3894 56.9993 27.3637 56.7648 27.4102 56.5441C27.4568 56.3233 27.5719 56.1341 27.7306 56.0172ZM27.254 67.5152C26.1295 68.2892 24.8036 68.4862 23.5625 68.0638C22.3214 67.6413 21.2646 66.6333 20.6203 65.2573L9.61636 41.7278L12.1495 39.9223L23.4979 64.1885C23.897 65.0402 24.4383 65.7774 25.0859 66.3509C25.7335 66.9245 26.4726 67.3214 27.254 67.5152ZM11.4464 38.4188L8.91324 40.2243L8.0062 38.2848C7.36308 36.908 7.18433 35.2741 7.50855 33.736C7.83277 32.1978 8.63394 30.8787 9.73912 30.0635C9.48235 30.9954 9.39017 31.9844 9.46877 32.964C9.54736 33.9436 9.79492 34.891 10.1948 35.7426L11.4464 38.4188ZM35.9977 11.335L34.2501 12.5807C34.597 12.9597 36.0015 16.1967 36.2788 16.7276C36.3679 16.9267 36.3902 17.161 36.3409 17.3802C36.2916 17.5994 36.1745 17.7859 36.0149 17.8996C35.8554 18.0134 35.666 18.0452 35.4876 17.9884C35.3091 17.9315 35.1559 17.7905 35.0609 17.5956L33.4472 14.1452C31.4921 10.0861 26.4655 12.8269 27.5762 17.3375L22.5952 20.8877C22.9516 21.2852 24.3359 24.4883 24.6239 25.0347C24.7172 25.2341 24.7424 25.471 24.6942 25.6934C24.6459 25.9158 24.5281 26.1054 24.3666 26.2205C24.2051 26.3356 24.0132 26.3668 23.833 26.3072C23.6529 26.2476 23.4993 26.1021 23.4061 25.9027L21.7924 22.4523C21.3909 21.6109 20.7532 20.9807 20.0003 20.6812C19.2474 20.3817 18.4316 20.4337 17.7077 20.8273C16.9838 21.2209 16.402 21.9288 16.0728 22.8168C15.7436 23.7047 15.6897 24.711 15.9215 25.6447L12.956 27.7582C11.9886 28.4507 11.2829 29.5883 10.9935 30.9217C10.7041 32.2552 10.8545 33.6759 11.4118 34.8728L12.6634 37.549L43.0121 15.9176L41.7606 13.2414C41.2005 12.046 40.2791 11.1738 39.1986 10.8164C38.1181 10.4589 36.9669 10.6455 35.9977 11.335ZM17.188 24.7418C17.1473 24.3029 17.2113 23.859 17.3723 23.4644C17.5333 23.0699 17.7841 22.7421 18.094 22.5212C18.4039 22.3003 18.7593 22.1961 19.1165 22.2212C19.4737 22.2464 19.8172 22.3999 20.1047 22.6629L17.188 24.7418ZM28.8428 16.4347C28.8021 15.9959 28.8661 15.5518 29.0271 15.1573C29.188 14.7628 29.4389 14.4349 29.7488 14.214C30.0587 13.9932 30.4141 13.8889 30.7713 13.9141C31.1286 13.9393 31.472 14.0928 31.7596 14.3558L28.8428 16.4347Z" fill="url(#paint0_linear_169_9345)" style="mix-blend-mode:screen"/>
</g>
<defs>
<linearGradient id="paint0_linear_169_9345" x1="47.644" y1="24.334" x2="11.3169" y2="45.1963" gradientUnits="userSpaceOnUse">
<stop stop-color="#FF7E00"/>
<stop offset="0.13" stop-color="#CE6600"/>
<stop offset="0.31" stop-color="#904700"/>
<stop offset="0.48" stop-color="#5D2D00"/>
<stop offset="0.64" stop-color="#341A00"/>
<stop offset="0.78" stop-color="#170B00"/>
<stop offset="0.91" stop-color="#060300"/>
<stop offset="1"/>
</linearGradient>
<clipPath id="clip0_169_9345">
<rect width="47.8573" height="53.1126" fill="white" transform="matrix(0.81432 -0.580416 0.423628 0.905836 0 28.1094)"/>
</clipPath>
</defs>
</svg>
