<svg width="24" height="24" viewBox="0 0 24 24" fill="none" xmlns="http://www.w3.org/2000/svg">
<path fill-rule="evenodd" clip-rule="evenodd" d="M9.94293 5.143H14.0572C15.5256 5.143 16.5239 5.14433 17.2954 5.20737C18.047 5.26878 18.4313 5.38008 18.6995 5.51669C19.3446 5.8454 19.8691 6.3699 20.1978 7.01503C20.3344 7.28314 20.4457 7.66749 20.5071 8.41906C20.5702 9.19064 20.5715 10.1889 20.5715 11.6573V12.343C20.5715 13.8114 20.5702 14.8096 20.5071 15.5812C20.4457 16.3328 20.3344 16.7171 20.1978 16.9853C19.8691 17.6304 19.3446 18.1549 18.6995 18.4836C18.4313 18.6202 18.047 18.7315 17.2954 18.7929C16.5239 18.856 15.5256 18.8573 14.0572 18.8573H9.94293C8.4745 18.8573 7.47629 18.856 6.70471 18.7929C5.95314 18.7315 5.56879 18.6202 5.30067 18.4836C4.65555 18.1549 4.13104 17.6304 3.80233 16.9853C3.66572 16.7171 3.55442 16.3328 3.49302 15.5812C3.42997 14.8096 3.42864 13.8114 3.42864 12.343V11.6573C3.42864 10.1889 3.42997 9.19064 3.49302 8.41906C3.55442 7.66749 3.66572 7.28314 3.80233 7.01503C4.13104 6.3699 4.65555 5.8454 5.30067 5.51669C5.56879 5.38008 5.95314 5.26878 6.70471 5.20737C7.47629 5.14433 8.4745 5.143 9.94293 5.143ZM1.71436 11.6573C1.71436 8.77701 1.71436 7.33688 2.27489 6.23676C2.76796 5.26907 3.55471 4.48231 4.5224 3.98925C5.62252 3.42871 7.06266 3.42871 9.94293 3.42871H14.0572C16.9375 3.42871 18.3776 3.42871 19.4777 3.98925C20.4454 4.48231 21.2322 5.26907 21.7252 6.23676C22.2858 7.33688 22.2858 8.77701 22.2858 11.6573V12.343C22.2858 15.2233 22.2858 16.6634 21.7252 17.7635C21.2322 18.7312 20.4454 19.518 19.4777 20.011C18.3776 20.5716 16.9375 20.5716 14.0572 20.5716H9.94293C7.06266 20.5716 5.62252 20.5716 4.5224 20.011C3.55471 19.518 2.76796 18.7312 2.27489 17.7635C1.71436 16.6634 1.71436 15.2233 1.71436 12.343V11.6573ZM7.28578 7.92871C7.28578 7.33698 6.80609 6.85728 6.21435 6.85728C5.62262 6.85728 5.14293 7.33698 5.14293 7.92871C5.14293 8.52045 5.62262 9.00014 6.21435 9.00014C6.80609 9.00014 7.28578 8.52045 7.28578 7.92871ZM10.2858 7.92871C10.2858 7.33698 9.80609 6.85728 9.21435 6.85728C8.62262 6.85728 8.14293 7.33698 8.14293 7.92871C8.14293 8.52045 8.62262 9.00014 9.21435 9.00014C9.80609 9.00014 10.2858 8.52045 10.2858 7.92871ZM12.2144 6.85728C12.8061 6.85728 13.2858 7.33698 13.2858 7.92871C13.2858 8.52045 12.8061 9.00014 12.2144 9.00014C11.6226 9.00014 11.1429 8.52045 11.1429 7.92871C11.1429 7.33698 11.6226 6.85728 12.2144 6.85728ZM15.5735 10.5059C15.9253 10.8226 15.9539 11.3645 15.6372 11.7164L11.78 16.0021C11.4718 16.3445 10.9481 16.3821 10.5942 16.0872L8.02277 13.9443C7.6591 13.6413 7.60997 13.1008 7.91302 12.7371C8.21608 12.3735 8.75656 12.3243 9.12023 12.6274L11.0578 14.242L14.363 10.5696C14.6796 10.2177 15.2216 10.1892 15.5735 10.5059Z" fill="#F9A502"/>
</svg>
