<svg width="40" height="40" viewBox="0 0 40 40" fill="none" xmlns="http://www.w3.org/2000/svg">
<g id="check_circle_on_24">
<path id="&#226;&#134;&#179; Icon Color" fill-rule="evenodd" clip-rule="evenodd" d="M20 40C31.0457 40 40 31.0457 40 20C40 8.9543 31.0457 0 20 0C8.9543 0 0 8.9543 0 20C0 31.0457 8.9543 40 20 40ZM29.8738 14.8738C30.2643 14.4832 30.2643 13.8501 29.8738 13.4596C29.4832 13.069 28.8501 13.069 28.4596 13.4596L16.6667 25.2525L11.5404 20.1262C11.1499 19.7357 10.5168 19.7357 10.1262 20.1262C9.7357 20.5168 9.7357 21.1499 10.1262 21.5404L15.9596 27.3738C16.3501 27.7643 16.9832 27.7643 17.3738 27.3738L29.8738 14.8738Z" fill="#F9A502"/>
</g>
</svg>
