<svg width="24" height="24" viewBox="0 0 24 24" fill="none" xmlns="http://www.w3.org/2000/svg">
<g id="clock_outline_24">
<g id="&#226;&#134;&#179; Icon Color">
<path d="M12.4001 7.99961C12.4001 7.50255 11.9972 7.09961 11.5001 7.09961C11.003 7.09961 10.6001 7.50255 10.6001 7.99961V12.4996C10.6001 12.8748 10.8328 13.2106 11.1841 13.3423L15.1841 14.8423C15.6495 15.0168 16.1683 14.781 16.3428 14.3156C16.5173 13.8502 16.2815 13.3314 15.8161 13.1569L12.4001 11.8759V7.99961Z" fill="url(#paint0_linear_587_8691)"/>
<path fill-rule="evenodd" clip-rule="evenodd" d="M12.0001 2.09961C6.53248 2.09961 2.1001 6.53199 2.1001 11.9996C2.1001 17.4672 6.53248 21.8996 12.0001 21.8996C17.4677 21.8996 21.9001 17.4672 21.9001 11.9996C21.9001 6.53199 17.4677 2.09961 12.0001 2.09961ZM3.9001 11.9996C3.9001 7.5261 7.52659 3.89961 12.0001 3.89961C16.4736 3.89961 20.1001 7.5261 20.1001 11.9996C20.1001 16.4731 16.4736 20.0996 12.0001 20.0996C7.52659 20.0996 3.9001 16.4731 3.9001 11.9996Z" fill="url(#paint1_linear_587_8691)"/>
</g>
</g>
<defs>
<linearGradient id="paint0_linear_587_8691" x1="2.1001" y1="2.09961" x2="21.9001" y2="21.8996" gradientUnits="userSpaceOnUse">
<stop stop-color="#1151C2"/>
<stop offset="0.973094" stop-color="#8F8CF7"/>
</linearGradient>
<linearGradient id="paint1_linear_587_8691" x1="2.1001" y1="2.09961" x2="21.9001" y2="21.8996" gradientUnits="userSpaceOnUse">
<stop stop-color="#1151C2"/>
<stop offset="0.973094" stop-color="#8F8CF7"/>
</linearGradient>
</defs>
</svg>
