<svg width="24" height="24" viewBox="0 0 24 24" fill="none" xmlns="http://www.w3.org/2000/svg">
<path d="M11.9999 1.71436C17.6806 1.71436 22.2857 6.31943 22.2857 12.0001C22.2857 17.6807 17.6806 22.2858 11.9999 22.2858C6.3193 22.2858 1.71423 17.6807 1.71423 12.0001C1.71423 6.31943 6.3193 1.71436 11.9999 1.71436ZM11.9999 3.42864C7.26608 3.42864 3.42852 7.2662 3.42852 12.0001C3.42852 16.7339 7.26608 20.5715 11.9999 20.5715C16.7338 20.5715 20.5714 16.7339 20.5714 12.0001C20.5714 7.2662 16.7338 3.42864 11.9999 3.42864ZM16.2417 8.84255L14.5274 13.9854C14.4421 14.2414 14.2412 14.4422 13.9853 14.5275L8.84243 16.2418C8.17235 16.4652 7.53486 15.8277 7.75822 15.1576L9.4725 10.0147C9.55782 9.75878 9.75866 9.55794 10.0146 9.47263L15.1575 7.75834C15.8275 7.53498 16.465 8.17247 16.2417 8.84255ZM14.0733 9.92676L10.9633 10.9634L9.92664 14.0734L13.0366 13.0367L14.0733 9.92676Z" fill="#F9A502"/>
</svg>
