<svg width="24" height="24" viewBox="0 0 24 24" fill="none" xmlns="http://www.w3.org/2000/svg">
<path fill-rule="evenodd" clip-rule="evenodd" d="M4.0002 12.3002L4.00021 12.0764V12.0002L4.00023 12.0002C4.00058 10.5303 4.00558 9.45334 4.07555 8.5969C4.14934 7.69373 4.29088 7.11532 4.52882 6.64834C4.9938 5.73576 5.73576 4.9938 6.64835 4.52882C7.11532 4.29088 7.69373 4.14934 8.5969 4.07555C9.51057 4.0009 10.6752 4.0002 12.3002 4.0002H13.6002L13.7362 4.00024H16.8126C16.7757 3.8366 16.7211 3.67245 16.6386 3.51062C16.4085 3.05903 16.0414 2.69188 15.5898 2.46178C15.2814 2.30462 14.9645 2.24861 14.6587 2.22362C14.3716 2.20016 14.0251 2.20018 13.6336 2.2002H13.6336L13.6002 2.2002H12.3002L12.26 2.2002C10.6839 2.20019 9.44586 2.20019 8.45032 2.28153C7.43584 2.36441 6.59418 2.53623 5.83116 2.92501C4.57988 3.56256 3.56256 4.57988 2.92501 5.83116C2.53623 6.59418 2.36441 7.43584 2.28153 8.45032C2.20019 9.44586 2.20019 10.6839 2.2002 12.26L2.2002 12.3002V13.6002L2.2002 13.6335V13.6336V13.6336C2.20018 14.0251 2.20016 14.3716 2.22362 14.6587C2.24861 14.9645 2.30462 15.2813 2.46178 15.5898C2.69188 16.0414 3.05903 16.4085 3.51062 16.6386C3.67244 16.7211 3.83658 16.7757 4.00021 16.8126V13.6798L4.0002 13.6002V12.3002ZM10.0802 6.00022L10.0454 6.00022H10.0454C9.52444 6.00021 9.08085 6.0002 8.71645 6.02948C8.33372 6.06023 7.96115 6.12757 7.60396 6.30604C7.04219 6.58674 6.58672 7.04222 6.30602 7.60398C6.12755 7.96117 6.06021 8.33375 6.02946 8.71647C6.00017 9.08087 6.00019 9.52446 6.0002 10.0454V10.0454L6.0002 10.0802V17.9202L6.0002 17.955V17.955C6.00019 18.476 6.00017 18.9196 6.02946 19.2839C6.06021 19.6667 6.12755 20.0393 6.30602 20.3964C6.58672 20.9582 7.04219 21.4137 7.60396 21.6944C7.96115 21.8729 8.33372 21.9402 8.71645 21.9709C9.08082 22.0002 9.52439 22.0002 10.0453 22.0002H10.0454H10.0802H16.9202H16.955H16.9551C17.476 22.0002 17.9196 22.0002 18.284 21.9709C18.6667 21.9402 19.0393 21.8729 19.3964 21.6944C19.9582 21.4137 20.4137 20.9582 20.6944 20.3964C20.8729 20.0393 20.9402 19.6667 20.971 19.2839C21.0002 18.9196 21.0002 18.476 21.0002 17.955V17.9202V10.0802V10.0454C21.0002 9.52447 21.0002 9.08087 20.971 8.71648C20.9402 8.33375 20.8729 7.96117 20.6944 7.60398C20.4137 7.04222 19.9582 6.58674 19.3964 6.30604C19.0393 6.12757 18.6667 6.06023 18.284 6.02948C17.9196 6.0002 17.476 6.00021 16.955 6.00022H16.955L16.9202 6.00022H10.0802ZM8.40852 7.91622C8.47344 7.88379 8.58722 7.84567 8.86064 7.82369C9.1443 7.8009 9.51499 7.80022 10.0802 7.80022H16.9202C17.4854 7.80022 17.8561 7.8009 18.1398 7.82369C18.4132 7.84567 18.527 7.88379 18.5919 7.91622C18.805 8.0227 18.9777 8.19546 19.0842 8.40855C19.1166 8.47346 19.1548 8.58724 19.1767 8.86066C19.1995 9.14432 19.2002 9.51501 19.2002 10.0802V17.9202C19.2002 18.4854 19.1995 18.8561 19.1767 19.1398C19.1548 19.4132 19.1166 19.527 19.0842 19.5919C18.9777 19.805 18.805 19.9777 18.5919 20.0842C18.527 20.1166 18.4132 20.1548 18.1398 20.1767C17.8561 20.1995 17.4854 20.2002 16.9202 20.2002H10.0802C9.51499 20.2002 9.1443 20.1995 8.86064 20.1767C8.58722 20.1548 8.47344 20.1166 8.40852 20.0842C8.19544 19.9777 8.02267 19.805 7.9162 19.5919C7.88377 19.527 7.84564 19.4132 7.82367 19.1398C7.80088 18.8561 7.8002 18.4854 7.8002 17.9202V10.0802C7.8002 9.51501 7.80088 9.14432 7.82367 8.86066C7.84564 8.58724 7.88377 8.47346 7.9162 8.40855C8.02267 8.19546 8.19544 8.0227 8.40852 7.91622Z" fill="#252525" fill-opacity="0.55"/>
</svg>
