<svg width="24" height="24" viewBox="0 0 24 24" fill="none" xmlns="http://www.w3.org/2000/svg">
<path d="M8.92272 4.28557C10.0656 4.28557 10.0656 5.99986 8.92272 5.99986L8.44496 6.00404C7.177 6.02808 6.60926 6.15872 6.02538 6.47098C5.47634 6.76461 5.05057 7.19038 4.75694 7.73942C4.44468 8.3233 4.31404 8.89104 4.29 10.159L4.28582 10.6368V15.0772C4.28582 16.6896 4.40794 17.322 4.75694 17.9746C5.05057 18.5236 5.47634 18.9494 6.02538 19.243C6.60926 19.5553 7.177 19.6859 8.44496 19.71L8.92272 19.7141H15.0775C16.6898 19.7141 17.3223 19.592 17.9748 19.243C18.5239 18.9494 18.9496 18.5236 19.2433 17.9746C19.5555 17.3907 19.6862 16.823 19.7102 15.555L19.7144 15.0772V10.6368L19.7102 10.159C19.6862 8.89104 19.5555 8.3233 19.2433 7.73942C18.9496 7.19038 18.5239 6.76461 17.9748 6.47098C17.391 6.15872 16.8232 6.02808 15.5552 6.00404L15.0775 5.99986L14.9633 5.99389C13.9727 5.88761 13.9727 4.39783 14.9633 4.29155L15.0775 4.28557H15.4287L15.4895 4.28815L15.6373 4.29153C17.0502 4.32376 17.8493 4.49058 18.6358 4.88305L18.7833 4.9593C19.6311 5.41271 20.3015 6.08318 20.7549 6.93096C21.2286 7.81663 21.4095 8.6708 21.4272 10.3492L21.4287 10.6368V15.0772C21.4287 16.9484 21.2549 17.8482 20.7549 18.783C20.3015 19.6308 19.6311 20.3013 18.7833 20.7547C17.8976 21.2284 17.0435 21.4092 15.365 21.427L8.92272 21.4284C7.05157 21.4284 6.1518 21.2547 5.21692 20.7547C4.36914 20.3013 3.69866 19.6308 3.24526 18.783C2.7716 17.8974 2.59073 17.0432 2.573 15.3648L2.57153 10.6368C2.57153 8.76561 2.74529 7.86584 3.24526 6.93096C3.69866 6.08318 4.36914 5.41271 5.21692 4.9593C6.05339 4.51196 6.86175 4.32577 8.36294 4.29153L8.50982 4.28815L8.57153 4.28557H8.92272ZM12.8572 14.5713C13.3306 14.5713 13.7144 14.955 13.7144 15.4284C13.7144 15.9018 13.3306 16.2856 12.8572 16.2856H7.71439C7.241 16.2856 6.85725 15.9018 6.85725 15.4284C6.85725 14.955 7.241 14.5713 7.71439 14.5713H12.8572ZM16.2858 10.2856C16.7592 10.2856 17.143 10.6693 17.143 11.1427C17.143 11.6161 16.7592 11.9999 16.2858 11.9999H7.71439C7.241 11.9999 6.85725 11.6161 6.85725 11.1427C6.85725 10.6693 7.241 10.2856 7.71439 10.2856H16.2858ZM12.0001 2.57129C12.4735 2.57129 12.8572 2.95504 12.8572 3.42843V6.857C12.8572 7.33039 12.4735 7.71415 12.0001 7.71415C11.5267 7.71415 11.143 7.33039 11.143 6.857V3.42843C11.143 2.95504 11.5267 2.57129 12.0001 2.57129Z" fill="#F9A502"/>
</svg>
