<svg width="20" height="20" viewBox="0 0 20 20" fill="none" xmlns="http://www.w3.org/2000/svg">
<path fill-rule="evenodd" clip-rule="evenodd" d="M7.39772 2.14282L9.28544 2.14282C9.67993 2.14282 9.99972 2.46262 9.99972 2.85711C9.99972 3.2516 9.67993 3.57139 9.28544 3.57139H7.42829C6.61643 3.57139 6.05049 3.57195 5.60989 3.60795C5.17763 3.64327 4.92928 3.7091 4.74117 3.80495C4.33797 4.01039 4.01015 4.33821 3.80471 4.74141C3.70886 4.92953 3.64302 5.17787 3.6077 5.61014C3.57171 6.05074 3.57115 6.61668 3.57115 7.42854V12.5714C3.57115 13.3833 3.57171 13.9492 3.6077 14.3898C3.64302 14.8221 3.70886 15.0704 3.80471 15.2585C4.01015 15.6617 4.33797 15.9895 4.74117 16.195C4.92928 16.2908 5.17763 16.3567 5.60989 16.392C6.05049 16.428 6.61643 16.4285 7.42829 16.4285H9.28544C9.67993 16.4285 9.99972 16.7483 9.99972 17.1428C9.99972 17.5373 9.67993 17.8571 9.28544 17.8571H7.3977C6.62357 17.8571 5.99919 17.8571 5.49356 17.8158C4.97295 17.7733 4.51568 17.6834 4.09261 17.4678C3.42061 17.1254 2.87425 16.5791 2.53184 15.9071C2.31628 15.484 2.22641 15.0267 2.18388 14.5061C2.14257 14.0005 2.14257 13.3761 2.14258 12.602V7.39796C2.14257 6.62383 2.14257 5.99943 2.18388 5.49381C2.22641 4.9732 2.31628 4.51592 2.53184 4.09286C2.87425 3.42085 3.42061 2.87449 4.09261 2.53209C4.51568 2.31652 4.97295 2.22666 5.49356 2.18412C5.99919 2.14281 6.62358 2.14282 7.39772 2.14282ZM13.7804 6.63775C14.0593 6.3588 14.5116 6.3588 14.7905 6.63775L17.6477 9.49489C17.7816 9.62884 17.8569 9.81053 17.8569 9.99997C17.8569 10.1894 17.7816 10.3711 17.6477 10.505L14.7905 13.3622C14.5116 13.6411 14.0593 13.6411 13.7804 13.3622C13.5014 13.0832 13.5014 12.631 13.7804 12.352L15.4181 10.7143H8.57115C8.17666 10.7143 7.85686 10.3945 7.85686 9.99997C7.85686 9.60548 8.17666 9.28568 8.57115 9.28568H15.4181L13.7804 7.6479C13.5014 7.36895 13.5014 6.91669 13.7804 6.63775Z" fill="#252525"/>
</svg>
