<svg width="24" height="24" viewBox="0 0 24 24" fill="none" xmlns="http://www.w3.org/2000/svg">
<path d="M16.3545 3C19.9142 3 22.7999 5.88574 22.7999 9.44549C22.7999 12.8496 21.5022 14.5749 15.9571 18.8878L13.5655 20.7479C12.6447 21.4641 11.3552 21.4641 10.4344 20.7479L8.0428 18.8878C2.49773 14.5749 1.19995 12.8496 1.19995 9.44549C1.19995 5.88574 4.08569 3 7.64544 3C9.15211 3 10.5292 3.55255 11.7425 4.61573L12 4.85135L12.2574 4.61573C13.4707 3.55255 14.8478 3 16.3545 3ZM16.3545 4.8C15.0055 4.8 13.7898 5.4357 12.689 6.74592C12.3294 7.17403 11.6705 7.17403 11.3109 6.74592C10.2101 5.4357 8.99443 4.8 7.64544 4.8C5.07981 4.8 2.99995 6.87986 2.99995 9.44549C2.99995 12.1306 4.00532 13.4671 9.1479 17.4669L11.5395 19.3271C11.8103 19.5377 12.1896 19.5377 12.4604 19.3271L14.852 17.4669C19.7608 13.649 20.9 12.2576 20.9934 9.80366L21 9.44549C21 6.87986 18.9201 4.8 16.3545 4.8Z" fill="#B1AFAF"/>
</svg>
