<svg width="24" height="24" viewBox="0 0 24 24" fill="none" xmlns="http://www.w3.org/2000/svg">
<g clip-path="url(#clip0_259_6470)">
<path d="M23.25 11.9251C23.2525 12.1828 23.2014 12.4382 23.1 12.6751C22.9605 13.0093 22.725 13.2946 22.4233 13.4949C22.1215 13.6951 21.7672 13.8014 21.405 13.8001H21.36V20.7451C21.3631 21.4052 21.1042 22.0396 20.6403 22.5092C20.1763 22.9788 19.5451 23.2452 18.885 23.2501H15.75C15.6513 23.2511 15.5533 23.2324 15.4619 23.195C15.3704 23.1577 15.2874 23.1025 15.2175 23.0326C15.1477 22.9628 15.0925 22.8797 15.0551 22.7883C15.0178 22.6969 14.9991 22.5989 15 22.5001V15.0001C15.001 14.9014 14.9823 14.8034 14.945 14.712C14.9076 14.6205 14.8524 14.5375 14.7826 14.4676C14.7127 14.3978 14.6297 14.3426 14.5382 14.3052C14.4468 14.2679 14.3488 14.2491 14.25 14.2501H9.75004C9.65128 14.2491 9.55331 14.2679 9.46187 14.3052C9.37043 14.3426 9.28736 14.3978 9.21752 14.4676C9.14768 14.5375 9.09247 14.6205 9.05513 14.712C9.01779 14.8034 8.99906 14.9014 9.00004 15.0001V22.5001C9.00102 22.5989 8.9823 22.6969 8.94495 22.7883C8.90761 22.8797 8.8524 22.9628 8.78256 23.0326C8.71272 23.1025 8.62965 23.1577 8.53821 23.195C8.44677 23.2324 8.34881 23.2511 8.25004 23.2501H5.11504C4.45495 23.2452 3.82373 22.9788 3.35978 22.5092C2.89583 22.0396 2.637 21.4052 2.64004 20.7451L2.59504 13.8001C2.2329 13.8014 1.87854 13.6951 1.57681 13.4949C1.27508 13.2946 1.03955 13.0093 0.900041 12.6751C0.752055 12.3329 0.710114 11.9541 0.779637 11.5878C0.849161 11.2214 1.02695 10.8844 1.29004 10.6201L10.245 1.48513C10.7161 1.03046 11.3453 0.776367 12 0.776367C12.6548 0.776367 13.2839 1.03046 13.755 1.48513L22.71 10.6201C22.8821 10.7909 23.0185 10.9943 23.1112 11.2184C23.2039 11.4424 23.2511 11.6827 23.25 11.9251Z" fill="#B1AFAF"/>
</g>
<defs>
<clipPath id="clip0_259_6470">
<rect width="24" height="24" fill="white"/>
</clipPath>
</defs>
</svg>
