<svg width="48" height="48" viewBox="0 0 48 48" fill="none" xmlns="http://www.w3.org/2000/svg">
<path d="M32.25 41.2573L35.25 40.1848V33.1348L32.25 33.6373V41.2573Z" fill="#F9A502"/>
<path d="M4.43271 20.0552C4.04096 20.1112 3.75 20.4467 3.75 20.8425C3.75 21.3044 4.14232 21.6692 4.60309 21.6356L5.19 21.5928C5.2885 21.585 5.38758 21.5968 5.48151 21.6274C5.57544 21.6581 5.66237 21.7071 5.73726 21.7716C5.81216 21.836 5.87354 21.9147 5.91787 22.003C5.9622 22.0913 5.98859 22.1875 5.99552 22.2861C6.00246 22.3847 5.9898 22.4836 5.95827 22.5773C5.92675 22.6709 5.87698 22.7574 5.81185 22.8317C5.74671 22.906 5.6675 22.9667 5.57879 23.0102C5.49008 23.0537 5.39363 23.0793 5.295 23.0853C4.42415 23.1487 3.75 23.8737 3.75 24.7469V35.5657C3.75 36.411 4.28143 37.1651 5.0775 37.4493L23.3268 43.965C23.7621 44.1204 24.2378 44.1202 24.673 43.9645L29.4237 42.2648C30.2192 41.9802 30.75 41.2265 30.75 40.3817V33.0003C30.7494 32.8218 30.8125 32.6489 30.928 32.5128C31.0435 32.3767 31.2038 32.2863 31.38 32.2578L35.88 31.5078C35.9873 31.4915 36.0968 31.4984 36.2011 31.5282C36.3055 31.5579 36.4022 31.6098 36.4847 31.6802C36.5672 31.7506 36.6336 31.838 36.6794 31.9364C36.7252 32.0347 36.7493 32.1418 36.75 32.2503V36.8152C36.75 38.1981 38.12 39.1637 39.4224 38.6988L42.9224 37.4493C43.7185 37.165 44.25 36.411 44.25 35.5657V24.7469C44.25 23.8737 43.5759 23.1487 42.705 23.0853C42.6064 23.0787 42.5101 23.0527 42.4216 23.0087C42.3331 22.9648 42.2541 22.9037 42.1893 22.8292C42.1245 22.7546 42.075 22.6679 42.0438 22.5741C42.0126 22.4804 42.0003 22.3814 42.0075 22.2828C42.0137 22.1844 42.0395 22.0882 42.0835 21.9999C42.1274 21.9116 42.1886 21.833 42.2634 21.7687C42.3381 21.7044 42.425 21.6557 42.5189 21.6255C42.6128 21.5953 42.7118 21.5842 42.81 21.5928L43.3969 21.6356C43.8577 21.6692 44.25 21.3044 44.25 20.8425C44.25 20.4467 43.959 20.1112 43.5673 20.0552L24.2831 17.2983C24.0953 17.2714 23.9047 17.2714 23.717 17.2983L4.43271 20.0552ZM13.635 22.4928C13.575 22.4928 9.4725 22.8003 9.4125 22.7928C9.22052 22.7887 9.03738 22.7113 8.90067 22.5765C8.76396 22.4416 8.68404 22.2595 8.67733 22.0676C8.67061 21.8757 8.7376 21.6885 8.86455 21.5444C8.99149 21.4003 9.16877 21.3103 9.36 21.2928L13.53 21.0003C13.7254 20.9909 13.9167 21.0583 14.063 21.1882C14.2092 21.3181 14.2988 21.5001 14.3125 21.6952C14.3263 21.8903 14.263 22.0831 14.1364 22.2322C14.0098 22.3812 13.8298 22.4748 13.635 22.4928ZM21.9675 21.9003C21.9075 21.9003 17.805 22.2003 17.745 22.2003C17.553 22.1962 17.3699 22.1188 17.2332 21.984C17.0965 21.8491 17.0165 21.667 17.0098 21.4751C17.0031 21.2832 17.0701 21.096 17.197 20.9519C17.324 20.8078 17.5013 20.7178 17.6925 20.7003L21.8625 20.4003C22.0588 20.391 22.251 20.4589 22.3978 20.5895C22.5447 20.7201 22.6346 20.9029 22.6483 21.099C22.6621 21.295 22.5985 21.4887 22.4713 21.6384C22.344 21.7882 22.1632 21.8822 21.9675 21.9003ZM34.47 20.9928L38.64 21.2928C38.8312 21.3103 39.0085 21.4003 39.1355 21.5444C39.2624 21.6885 39.3294 21.8757 39.3227 22.0676C39.316 22.2595 39.236 22.4416 39.0993 22.5765C38.9626 22.7113 38.7795 22.7887 38.5875 22.7928H38.535L34.365 22.4928C34.1693 22.4747 33.9885 22.3807 33.8612 22.2309C33.734 22.0812 33.6704 21.8875 33.6842 21.6915C33.6979 21.4954 33.7878 21.3126 33.9347 21.182C34.0815 21.0514 34.2737 20.9835 34.47 20.9928ZM26.1375 20.4003L30.3075 20.7003C30.5036 20.7176 30.6851 20.8114 30.8125 20.9615C30.9399 21.1115 31.0031 21.3058 30.9883 21.5021C30.9735 21.6984 30.8819 21.881 30.7334 22.0103C30.5849 22.1396 30.3915 22.2052 30.195 22.1928L26.0325 21.9003C25.8361 21.8831 25.6543 21.7895 25.5263 21.6395C25.3982 21.4896 25.3342 21.2954 25.348 21.0987C25.3618 20.902 25.4522 20.7186 25.5999 20.588C25.7476 20.4574 25.9406 20.39 26.1375 20.4003Z" fill="#F9A502"/>
<path d="M24.3362 3.91497C24.1188 3.83734 23.8812 3.83734 23.6638 3.91497L4.41375 10.7879C4.01571 10.9301 3.75 11.3071 3.75 11.7297V14.333C3.75 14.9696 4.337 15.4442 4.9595 15.3108L23.8425 11.2649C23.9463 11.2424 24.0537 11.2424 24.1575 11.2649L43.0405 15.3108C43.663 15.4442 44.25 14.9696 44.25 14.333V11.7297C44.25 11.3071 43.9843 10.9301 43.5862 10.7879L24.3362 3.91497Z" fill="#F9A502"/>
<path d="M4.3904 16.9698C4.01685 17.0499 3.75 17.3801 3.75 17.7621C3.75 18.2341 4.14639 18.5816 4.61365 18.5148C8.45894 17.9648 23.8356 15.7496 24 15.7496C24.1446 15.7496 39.4971 17.9568 43.3709 18.5118C43.8399 18.579 44.25 18.2208 44.25 17.747C44.25 17.3738 43.9893 17.0512 43.6244 16.973L24.4194 12.8546C24.1429 12.7953 23.8571 12.7953 23.5806 12.8546L4.3904 16.9698Z" fill="#F9A502"/>
</svg>
