<svg width="171" height="197" viewBox="0 0 171 197" fill="none" xmlns="http://www.w3.org/2000/svg">
<path d="M190.956 131.485C189.333 133.694 187.256 135.629 184.005 136.985C186.145 138.259 191.714 142.091 191.975 146.563C192.003 147.034 191.68 147.491 191.193 147.668C186.577 149.355 180.353 146.45 178.16 145.251C178.175 148.471 177.107 150.983 175.571 153.241C172.506 157.748 164.807 167.282 167.844 177.294C168.162 178.342 166.847 179.2 165.899 178.567C158.223 173.436 158.772 164.447 162.466 160.693C161.211 160.876 159.966 160.792 158.773 160.498C148.57 159.056 137.47 150.987 129.151 157.103C125.071 160.106 125.024 164.689 125.658 167.517C127.111 174.035 138.981 174.878 140.339 169.521C141.07 166.65 137.992 163.532 134.165 165.717C133.335 166.191 132.268 165.691 132.3 164.81C132.467 160.108 138.677 157.355 143.479 160.701C155.156 168.826 142.611 183.525 130.067 179.883C130.069 179.908 130.074 179.93 130.076 179.956C130.611 184.35 127.103 189.455 126.904 189.744L126.906 189.755C126.906 189.755 126.903 189.753 126.899 189.751L126.894 189.757L126.892 189.746C126.591 189.574 121.244 186.43 119.875 182.215C119.866 182.191 119.861 182.169 119.853 182.145C110.033 190.75 92.4216 182.739 99.5646 170.442C102.497 165.38 109.289 165.248 111.437 169.429C111.84 170.214 111.09 171.117 110.131 171.038C105.739 170.679 104.272 174.806 106.15 177.1C109.656 181.371 120.046 175.596 118.605 169.076C117.976 166.241 115.996 162.118 111.028 161.119C100.902 159.098 94.2701 171.07 85.6495 176.698C84.6852 177.478 83.5877 178.086 82.3629 178.449C87.2999 180.293 91.6025 188.198 86.8272 196.089C86.2366 197.069 84.6809 196.841 84.5233 195.76C83.0325 185.405 72.0125 180.025 67.3277 177.234C64.9872 175.84 62.9492 174.01 61.6068 171.089C60.1151 173.105 55.7102 178.369 50.813 178.789C50.2971 178.834 49.8108 178.556 49.6373 178.117C47.9812 173.954 51.4136 168.135 52.8109 166.065C49.2982 166.213 46.5898 165.332 44.1914 164.019C39.3908 161.392 29.2944 154.706 18.2276 157.893C17.0692 158.227 16.1816 157.054 16.9173 156.158C22.8393 148.922 32.6329 149.063 36.5836 152.301C36.4332 151.152 36.5787 149.996 36.9528 148.883C38.962 139.479 48.207 128.999 41.8726 121.618C38.7562 118 33.7619 118.139 30.6392 118.831C23.4586 120.427 22.05 131.337 27.8438 132.372C30.9516 132.926 34.4865 129.981 32.2599 126.56C31.7753 125.818 32.3647 124.819 33.3266 124.813C38.4528 124.783 41.2037 130.366 37.3475 134.904C27.991 145.938 12.4401 135.006 16.9437 123.365C16.9159 123.368 16.8917 123.373 16.8639 123.377C12.036 124.052 6.60404 121.035 6.29682 120.864L6.28474 120.867C6.28474 120.867 6.28715 120.864 6.28957 120.86L6.28231 120.856L6.29439 120.853C6.49454 120.57 10.1542 115.547 14.8081 114.116C14.8347 114.108 14.8589 114.102 14.8854 114.093C5.89041 105.432 15.3748 88.9803 28.5155 95.0355C33.9261 97.5275 33.7886 103.744 29.1225 105.876C28.2482 106.277 27.2913 105.62 27.4168 104.744C27.9964 100.704 23.5462 99.5267 20.963 101.335C16.1466 104.717 22.0321 114.015 29.2151 112.431C32.333 111.746 36.9305 109.762 38.2235 105.167C40.849 95.7991 28.0111 90.1945 22.2261 82.5049C21.4236 81.6587 20.8069 80.6793 20.4619 79.5823C18.2481 84.1824 9.42833 88.4419 0.997716 84.3781C-0.0459869 83.8729 0.263514 82.4411 1.45476 82.255C12.8308 80.4753 19.1636 70.1658 22.4049 65.7552C24.028 63.5465 26.1047 61.6112 29.3557 60.2558C27.2159 58.9809 21.6473 55.1491 21.3864 50.677C21.3578 50.2059 21.681 49.7489 22.1677 49.5722C26.7837 47.8857 33.0083 50.79 35.2011 51.9898C35.1863 48.769 36.2542 46.2575 37.7902 43.9991C40.8549 39.4924 48.5546 29.9588 45.5175 19.9466C45.1992 18.8983 46.5139 18.0406 47.4623 18.6733C55.1381 23.8044 54.5893 32.793 50.895 36.5475C52.1503 36.3644 53.3951 36.4483 54.5883 36.7421C64.7912 38.1845 75.8916 46.2531 84.2106 40.1373C88.2904 37.1344 88.3375 32.5509 87.7034 29.7232C86.2501 23.2056 74.3805 22.3624 73.0223 27.7193C72.2909 30.5905 75.3689 33.7083 79.1963 31.5235C80.0257 31.0493 81.0936 31.5492 81.0612 32.4307C80.8946 37.1326 74.6839 39.8854 69.8822 36.5395C58.2053 28.4145 70.7498 13.7154 83.2946 17.3572C83.2921 17.3319 83.2873 17.3099 83.2848 17.2846C82.7497 12.8905 86.2582 7.78512 86.4571 7.4966L86.4547 7.48563C86.4547 7.48563 86.4583 7.4877 86.462 7.48978L86.4668 7.48296L86.4692 7.49392C86.7704 7.66595 92.1168 10.8107 93.4866 15.0257C93.4951 15.0497 93.5 15.0717 93.5085 15.0957C103.328 6.49047 120.94 14.5009 113.797 26.7988C110.864 31.8599 104.072 31.992 101.924 27.8113C101.521 27.026 102.272 26.1236 103.23 26.2019C107.622 26.561 109.089 22.4341 107.211 20.1407C103.705 15.8693 93.3147 21.6443 94.7559 28.1646C95.3851 30.9991 97.3651 35.1222 102.333 36.1216C112.459 38.1421 119.091 26.1701 127.712 20.5425C128.676 19.7624 129.773 19.1541 130.998 18.7909C126.061 16.9476 121.759 9.04185 126.534 1.15089C127.125 0.17167 128.68 0.39957 128.838 1.4806C130.329 11.8352 141.349 17.2153 146.033 20.006C148.374 21.4004 150.412 23.2299 151.754 26.151C153.246 24.1353 157.651 18.8717 162.548 18.4518C163.064 18.4066 163.55 18.6843 163.724 19.1233C165.38 23.2865 161.948 29.1055 160.55 31.1751C164.063 31.0272 166.771 31.9087 169.17 33.2212C173.97 35.8483 184.067 42.5344 195.134 39.3477C196.292 39.0136 197.18 40.186 196.444 41.0823C190.522 48.3184 180.728 48.1773 176.778 44.9393C176.928 46.088 176.782 47.2448 176.408 48.3573C174.399 57.7612 165.154 68.2409 171.489 75.622C174.605 79.2404 179.599 79.1009 182.722 78.4095C189.903 76.8138 191.311 65.9035 185.517 64.8682C182.41 64.3139 178.875 67.2594 181.101 70.6807C181.586 71.4219 180.996 72.421 180.035 72.4269C174.908 72.4575 172.157 66.8744 176.014 62.3362C185.37 51.3026 200.921 62.2341 196.417 73.8757C196.445 73.8724 196.469 73.8671 196.497 73.8638C201.325 73.1888 206.757 76.2053 207.064 76.376L207.076 76.3733C207.076 76.3733 207.074 76.3767 207.072 76.3801L207.079 76.3843L207.067 76.3869C206.867 76.67 203.207 81.6938 198.553 83.124C198.526 83.1328 198.502 83.1381 198.476 83.1469C207.471 91.8083 197.986 108.26 184.846 102.205C179.435 99.7128 179.573 93.4959 184.239 91.3641C185.113 90.9634 186.07 91.6201 185.944 92.4963C185.365 96.5362 189.815 97.7136 192.398 95.905C197.215 92.5233 191.329 83.2251 184.146 84.8098C181.028 85.4944 176.431 87.4788 175.138 92.0735C172.512 101.441 185.35 107.046 191.135 114.735C191.938 115.582 192.554 116.561 192.899 117.658C195.113 113.058 203.933 108.798 212.363 112.862C213.407 113.367 213.098 114.799 211.906 114.985C200.53 116.765 194.198 127.075 190.956 131.485ZM130.004 93.4243C123.044 90.5449 118.874 84.0364 121.619 77.5038C116.203 82.5109 107.876 81.8813 102.02 77.4401C98.5703 83.9963 91.1956 88.0998 84.0994 85.7221C89.5075 90.4868 88.5084 98.2319 83.3644 103.82C90.3249 106.7 94.4947 113.208 91.7499 119.741C97.1654 114.734 105.493 115.363 111.349 119.804C114.798 113.248 122.173 109.145 129.269 111.522C123.861 106.758 124.86 99.0126 130.004 93.4243ZM137.592 112.59C140.541 114.341 145.11 113.198 146.611 109.569C148.438 105.127 143.483 102.387 140.02 104.986C139.273 105.545 138.174 105.205 138.029 104.351C137.433 100.842 143.091 94.5704 150.533 98.8213C159.239 103.794 154.854 115.101 148.43 117.09C151.914 118.87 154.28 121.72 154.077 125.687C150.168 127.534 146.29 126.822 143.018 124.742C143.742 130.815 134.208 139.181 125.507 134.211C118.065 129.96 121.98 122.693 125.769 121.688C126.69 121.444 127.5 122.193 127.253 123.039C126.106 126.96 130.969 129.829 134.669 126.456C137.687 123.694 136.9 119.491 133.883 117.835C123.823 112.337 113.203 120.777 115.933 131.49C117.037 135.807 120.234 138.749 124.296 140.145C140.688 145.774 148.196 126.67 161.144 129.72C152.577 120.474 168.632 106.258 156.002 95.3096C152.872 92.5974 148.55 91.2447 143.732 92.1792C131.781 94.5063 127.787 106.731 137.597 112.583L137.592 112.59ZM67.3812 167.527C71.4353 175.741 82.18 173.629 82.6305 168.18C82.8736 165.279 79.5956 162.559 76.2451 165.15C75.4883 165.738 74.359 165.39 74.2247 164.513C73.4311 159.426 79.0713 156.572 84.6243 158.949C87.8615 160.329 89.5154 163.026 89.9032 166C97.7288 158.961 108.415 150.42 119.861 158.05C126.998 146.308 140.3 149.521 150.374 152.594C149.464 149.738 149.82 146.59 152.164 143.974C156.191 139.476 162.51 139.682 163.946 144.624C164.195 145.475 163.319 146.267 162.385 146.054C158.246 145.121 156.428 148.967 157.872 151.5C160.596 156.249 171.222 153.62 171.42 144.465C171.5 140.642 168.924 137.687 165.372 136.103C148.913 128.732 139.462 157.866 116.333 142.198C102.023 166.173 81.1101 143.762 69.3155 157.401C66.7824 160.334 65.6924 164.102 67.3848 167.529L67.3812 167.527ZM70.5046 149.783C80.9533 141.657 95.8119 155.707 108.25 143.709C111.34 140.73 112.985 136.71 112.159 132.332C110.087 121.473 96.8859 118.313 90.1115 127.547C88.0785 130.321 89.1388 134.469 93.0477 135.692C97.8247 137.185 101.025 132.531 98.3188 129.463C97.734 128.798 98.1529 127.774 99.0892 127.61C102.949 126.927 109.568 131.853 104.627 138.84C98.8446 147.031 86.6734 143.474 84.7596 137.665C82.6814 140.921 79.4911 143.192 75.195 143.194L75.1757 143.221C75.1757 143.221 75.1685 143.203 75.1636 143.195C75.154 143.194 75.1419 143.197 75.1322 143.196L75.1515 143.169C73.332 139.669 74.2629 136.112 76.6605 133.039C69.9961 133.948 61.2468 125.551 67.0416 117.371C71.9852 110.381 79.7547 113.679 80.7064 117.11C80.9361 117.945 80.0842 118.717 79.1667 118.523C74.9272 117.624 71.5943 122.207 75.1294 125.457C78.0206 128.119 82.65 127.22 84.5814 124.388C91.0051 114.959 82.2167 105.558 70.4003 108.48C65.6384 109.666 62.2874 112.712 60.5979 116.491C53.7895 131.709 74.2548 137.831 70.5046 149.783ZM31.6883 79.4262C34.8534 79.5249 37.953 76.4169 35.2582 73.4415C34.6493 72.7681 35.073 71.7223 36.0359 71.5638C41.6247 70.634 44.5149 75.6888 41.693 80.8751C40.0506 83.8962 37.0369 85.5213 33.77 85.9915C41.1405 92.8872 50.0268 102.343 41.2283 113.136C53.7745 119.21 49.7071 131.532 45.9383 140.888C49.0993 139.941 52.5183 140.142 55.2829 142.19C60.0353 145.699 59.5551 151.5 54.0929 153.014C53.1531 153.277 52.3253 152.503 52.5934 151.641C53.7837 147.811 49.6484 146.296 46.8301 147.731C41.5353 150.414 43.9663 160.051 53.9624 159.863C58.1363 159.781 61.4701 157.3 63.3464 153.991C72.0784 138.603 40.6224 131.102 58.6988 109.279C33.0952 97.1104 58.4325 77.0507 44.0186 66.7878C40.913 64.5735 36.8403 63.7266 33.0267 65.4166C23.8875 69.4649 25.7484 79.2314 31.6919 79.4282L31.6883 79.4262ZM57.376 101.936C60.5066 104.648 64.8277 106 69.6456 105.066C81.5971 102.739 85.591 90.5142 75.7811 84.662C72.8321 82.9105 68.2635 84.0544 66.7624 87.6828C64.935 92.1255 69.8904 94.8649 73.3533 92.2661C74.1005 91.7067 75.1995 92.0472 75.3447 92.9009C75.94 96.4102 70.2823 102.682 62.8399 98.4307C54.1347 93.4585 58.5191 82.151 64.9437 80.1618C61.4594 78.3823 59.0935 75.5324 59.2963 71.5645C63.2051 69.7183 67.0829 70.43 70.3551 72.5097C69.6313 66.4375 79.1648 58.0711 87.8663 63.0412C95.3087 67.2922 91.3928 74.5586 87.6047 75.5642C86.683 75.8085 85.8734 75.0588 86.1197 74.2133C87.2676 70.2922 82.4038 67.4231 78.7041 70.7962C75.6861 73.5583 76.4734 77.7614 79.49 79.4173C89.5507 84.9149 100.17 76.4748 97.4404 65.7618C96.3363 61.4448 93.1389 58.503 89.0774 57.1072C72.6854 51.4785 65.1775 70.5816 52.2288 67.5325C60.7958 76.7776 44.7411 90.9942 57.3712 101.942L57.376 101.936ZM145.988 29.7228C141.934 21.509 131.19 23.6206 130.739 29.0699C130.496 31.9711 133.774 34.6908 137.125 32.0996C137.881 31.5121 139.011 31.8603 139.145 32.7366C139.939 37.8241 134.298 40.6778 128.745 38.3007C125.508 36.9208 123.854 34.224 123.466 31.2497C115.641 38.2888 104.955 46.8299 93.5081 39.2003C86.3716 50.9417 73.0698 47.7293 62.996 44.6563C63.9057 47.5121 63.5494 50.6598 61.2055 53.2755C57.1788 57.7737 50.8595 57.5681 49.4232 52.6257C49.1742 51.7749 50.0502 50.9827 50.9847 51.1957C55.124 52.1285 56.9414 48.2834 55.4981 45.7499C52.7739 41.0006 42.1473 43.6297 41.9492 52.785C41.8695 56.6078 44.4458 59.5634 47.9975 61.1469C64.4563 68.518 73.9073 39.3844 97.0367 55.0515C111.347 31.0773 132.26 53.4878 144.054 39.8493C146.587 36.9157 147.677 33.1482 145.985 29.7208L145.988 29.7228ZM142.865 47.4668C132.416 55.5929 117.558 41.5429 105.12 53.5406C102.03 56.52 100.384 60.5399 101.211 64.9184C103.282 75.7771 116.484 78.937 123.258 69.7032C125.291 66.9292 124.231 62.7808 120.322 61.5582C115.545 60.0649 112.345 64.7194 115.051 67.7873C115.636 68.4516 115.217 69.4762 114.28 69.6404C110.42 70.3225 103.801 65.3974 108.742 58.4103C114.525 50.2186 126.696 53.7763 128.61 59.585C130.688 56.3293 133.879 54.0583 138.175 54.0562L138.194 54.0289C138.194 54.0289 138.201 54.0474 138.206 54.055C138.216 54.0557 138.228 54.0531 138.237 54.0538L138.218 54.0811C140.038 57.5811 139.107 61.1378 136.709 64.2112C143.374 63.3021 152.123 71.6987 146.328 79.8786C141.384 86.8692 133.615 83.5708 132.663 80.1404C132.433 79.3054 133.285 78.5329 134.203 78.7267C138.442 79.6258 141.775 75.0425 138.24 71.7929C135.349 69.1313 130.72 70.0299 128.788 72.8619C122.365 82.2913 131.153 91.6916 142.969 88.7703C147.731 87.5836 151.082 84.5379 152.772 80.7585C159.58 65.5406 139.115 59.419 142.865 47.4668ZM181.685 117.826C178.52 117.727 175.42 120.835 178.115 123.811C178.724 124.484 178.3 125.53 177.337 125.688C171.749 126.618 168.858 121.563 171.68 116.377C173.323 113.356 176.336 111.731 179.603 111.261C172.233 104.365 163.346 94.9086 172.145 84.1164C159.599 78.0418 163.666 65.7202 167.435 56.3638C164.274 57.3111 160.855 57.1104 158.09 55.0622C153.338 51.5529 153.818 45.7519 159.28 44.2376C160.22 43.9749 161.048 44.7493 160.78 45.6111C159.59 49.441 163.725 50.9557 166.543 49.5206C171.838 46.8383 169.407 37.201 159.411 37.3895C155.237 37.471 151.903 39.9521 150.027 43.2609C141.295 58.6487 172.751 66.1505 154.674 87.9733C180.278 100.142 154.941 120.201 169.355 130.464C172.46 132.679 176.533 133.525 180.347 131.835C189.486 127.787 187.625 118.021 181.681 117.824L181.685 117.826Z" fill="url(#paint0_linear_147_2094)" fill-opacity="0.3"/>
<defs>
<linearGradient id="paint0_linear_147_2094" x1="61.4902" y1="189.001" x2="161.842" y2="13.3109" gradientUnits="userSpaceOnUse">
<stop stop-color="#F4F7F3"/>
<stop offset="1" stop-color="#DAE1EA" stop-opacity="0"/>
</linearGradient>
</defs>
</svg>
