<svg width="180" height="195" viewBox="0 0 180 195" fill="none" xmlns="http://www.w3.org/2000/svg">
<defs>
<linearGradient id="paint0_linear_150_6138" x1="61.2734" y1="186.831" x2="159.781" y2="12.2418" gradientUnits="userSpaceOnUse">
<stop stop-color="#F4F7F3"/>
<stop offset="1" stop-color="#DAE1EA" stop-opacity="0"/>
</linearGradient>
</defs>
<path d="M190.739 130.016C189.116 132.198 187.04 134.11 183.789 135.449C185.928 136.708 191.497 140.493 191.758 144.911C191.787 145.376 191.463 145.828 190.977 146.002C186.361 147.668 180.136 144.799 177.943 143.614C177.958 146.796 176.89 149.277 175.354 151.507C172.289 155.959 164.59 165.377 167.627 175.267C167.945 176.302 166.63 177.15 165.682 176.525C158.006 171.456 158.555 162.577 162.249 158.868C160.994 159.049 159.749 158.966 158.556 158.676C148.353 157.251 137.253 149.281 128.934 155.322C124.854 158.289 124.807 162.816 125.441 165.609C126.894 172.048 138.764 172.881 140.122 167.589C140.853 164.753 137.775 161.673 133.948 163.831C133.119 164.299 132.051 163.806 132.083 162.935C132.25 158.29 138.46 155.571 143.262 158.876C154.939 166.902 142.395 181.422 129.85 177.825C129.852 177.85 129.857 177.871 129.86 177.896C130.395 182.237 126.886 187.28 126.687 187.565L126.69 187.576C126.69 187.576 126.686 187.574 126.682 187.572L126.678 187.579L126.675 187.568C126.374 187.398 121.028 184.292 119.658 180.128C119.649 180.104 119.644 180.082 119.636 180.059C109.816 188.559 92.2048 180.646 99.3478 168.498C102.28 163.499 109.072 163.368 111.22 167.498C111.623 168.274 110.873 169.165 109.914 169.088C105.522 168.733 104.056 172.81 105.934 175.075C109.439 179.295 119.83 173.59 118.389 167.149C117.759 164.349 115.779 160.276 110.811 159.289C100.686 157.293 94.0534 169.119 85.4327 174.678C84.4684 175.449 83.3709 176.05 82.1461 176.409C87.0831 178.229 91.3857 186.039 86.6104 193.834C86.0198 194.801 84.4641 194.576 84.3065 193.508C82.8158 183.279 71.7957 177.965 67.1109 175.208C64.7704 173.831 62.7324 172.024 61.39 169.138C59.8984 171.129 55.4934 176.329 50.5962 176.744C50.0803 176.788 49.594 176.514 49.4205 176.08C47.7644 171.968 51.1968 166.22 52.5941 164.175C49.0814 164.321 46.373 163.451 43.9746 162.154C39.174 159.559 29.0776 152.954 18.0108 156.102C16.8524 156.432 15.9648 155.274 16.7005 154.389C22.6225 147.241 32.4161 147.38 36.3668 150.579C36.2164 149.444 36.3619 148.301 36.736 147.202C38.7452 137.913 47.9902 127.561 41.6558 120.27C38.5395 116.695 33.5451 116.833 30.4224 117.516C23.2418 119.093 21.8332 129.87 27.627 130.893C30.7348 131.44 34.2697 128.531 32.0431 125.151C31.5586 124.419 32.1479 123.432 33.1098 123.426C38.236 123.396 40.9869 128.911 37.1307 133.394C27.7742 144.293 12.2234 133.495 16.7269 121.995C16.6991 121.998 16.6749 122.003 16.6471 122.007C11.8192 122.673 6.38725 119.694 6.08003 119.525L6.06795 119.528C6.06795 119.528 6.07036 119.524 6.07277 119.521L6.06551 119.517L6.0776 119.514C6.27775 119.235 9.93742 114.272 14.5913 112.859C14.6179 112.85 14.6421 112.845 14.6686 112.837C5.67361 104.281 15.158 88.0294 28.2987 94.0108C33.7093 96.4724 33.5718 102.614 28.9057 104.719C28.0314 105.115 27.0745 104.467 27.2 103.601C27.7796 99.6104 23.3294 98.4473 20.7462 100.234C15.9299 103.574 21.8153 112.759 28.9983 111.194C32.1162 110.518 36.7137 108.557 38.0067 104.019C40.6322 94.765 27.7943 89.2288 22.0093 81.6328C21.2068 80.797 20.5901 79.8295 20.2452 78.7458C18.0313 83.2899 9.21154 87.4975 0.780921 83.4832C-0.26278 82.9842 0.0467213 81.5698 1.23796 81.386C12.614 79.6279 18.9468 69.4441 22.1881 65.0872C23.8112 62.9054 25.8879 60.9937 29.1389 59.6548C26.9991 58.3954 21.4305 54.6103 21.1696 50.1927C21.141 49.7273 21.4642 49.2759 21.9509 49.1013C26.5669 47.4354 32.7915 50.3043 34.9843 51.4895C34.9695 48.3079 36.0374 45.8271 37.5734 43.5961C40.6382 39.1444 48.3378 29.7269 45.3007 19.8367C44.9824 18.8011 46.2971 17.9539 47.2455 18.5789C54.9213 23.6475 54.3725 32.5265 50.6782 36.2353C51.9335 36.0545 53.1783 36.1373 54.3715 36.4275C64.5744 37.8524 75.6748 45.8227 83.9938 39.7814C88.0736 36.8151 88.1207 32.2875 87.4866 29.4942C86.0333 23.056 74.1637 22.223 72.8055 27.5147C72.0741 30.3509 75.1522 33.4307 78.9795 31.2725C79.8089 30.8041 80.8768 31.2979 80.8444 32.1687C80.6778 36.8133 74.4671 39.5326 69.6654 36.2275C57.9885 28.2014 70.533 13.6814 83.0778 17.2788C83.0753 17.2538 83.0705 17.2321 83.068 17.2071C82.5329 12.8665 86.0414 7.82335 86.2403 7.53835L86.2379 7.52751C86.2379 7.52751 86.2415 7.52956 86.2452 7.53161L86.25 7.52487L86.2524 7.5357C86.5536 7.70564 91.9 10.8121 93.2698 14.9757C93.2783 14.9995 93.2832 15.0211 93.2917 15.0448C103.111 6.54448 120.723 14.4573 113.58 26.6054C110.648 31.6049 103.855 31.7354 101.707 27.6055C101.305 26.8299 102.055 25.9385 103.013 26.0158C107.405 26.3705 108.872 22.2939 106.994 20.0284C103.489 15.809 93.0979 21.5137 94.5391 27.9545C95.1683 30.7545 97.1483 34.8274 102.117 35.8147C112.242 37.8105 118.874 25.9843 127.495 20.4253C128.459 19.6547 129.557 19.0538 130.781 18.695C125.844 16.8742 121.542 9.06477 126.317 1.26994C126.908 0.302655 128.463 0.527782 128.621 1.59564C130.112 11.8241 141.132 17.1386 145.817 19.8954C148.157 21.2728 150.195 23.08 151.538 25.9655C153.029 23.9744 157.434 18.7749 162.331 18.3601C162.847 18.3154 163.334 18.5898 163.507 19.0234C165.163 23.1358 161.731 28.884 160.333 30.9284C163.846 30.7822 166.555 31.653 168.953 32.9495C173.754 35.5446 183.85 42.1493 194.917 39.0014C196.075 38.6714 196.963 39.8295 196.227 40.7149C190.305 47.8628 180.512 47.7235 176.561 44.5249C176.711 45.6596 176.566 46.8023 176.192 47.9013C174.182 57.1906 164.937 67.5427 171.272 74.8338C174.388 78.4081 179.382 78.2703 182.505 77.5873C189.686 76.0111 191.094 65.2337 185.301 64.211C182.193 63.6634 178.658 66.5731 180.884 69.9527C181.369 70.6849 180.78 71.6718 179.818 71.6776C174.692 71.7078 171.941 66.1927 175.797 61.7099C185.153 50.8107 200.704 61.609 196.201 73.1088C196.228 73.1055 196.253 73.1002 196.28 73.097C201.108 72.4303 206.54 75.41 206.848 75.5786L206.86 75.576C206.86 75.576 206.857 75.5793 206.855 75.5827L206.862 75.5868L206.85 75.5894C206.65 75.869 202.99 80.8316 198.336 82.2444C198.31 82.2531 198.286 82.2584 198.259 82.267C207.254 90.8229 197.77 107.074 184.629 101.093C179.218 98.6311 179.356 92.4899 184.022 90.3841C184.896 89.9883 185.853 90.637 185.728 91.5026C185.148 95.4932 189.598 96.6563 192.181 94.8697C196.998 91.5292 191.112 82.3443 183.929 83.9097C180.811 84.5859 176.214 86.5461 174.921 91.0848C172.295 100.339 185.133 105.875 190.918 113.471C191.721 114.307 192.337 115.274 192.682 116.358C194.896 111.814 203.716 107.606 212.147 111.62C213.19 112.119 212.881 113.534 211.69 113.718C200.314 115.476 193.981 125.66 190.739 130.016ZM129.787 92.4192C122.827 89.5749 118.657 83.1456 121.402 76.6927C115.986 81.6388 107.659 81.0168 101.803 76.6297C98.3535 83.1061 90.9788 87.1596 83.8826 84.8109C89.2908 89.5175 88.2916 97.1683 83.1476 102.688C90.1081 105.533 94.278 111.962 91.5331 118.415C96.9487 113.469 105.276 114.091 111.132 118.478C114.581 112.002 121.956 107.948 129.052 110.297C123.644 105.59 124.643 97.9394 129.787 92.4192ZM137.375 111.351C140.324 113.082 144.893 111.952 146.394 108.367C148.221 103.979 143.266 101.273 139.803 103.84C139.056 104.393 137.957 104.056 137.812 103.213C137.216 99.7464 142.874 93.5513 150.317 97.7505C159.022 102.662 154.637 113.832 148.213 115.797C151.697 117.555 154.063 120.37 153.86 124.289C149.951 126.113 146.074 125.41 142.801 123.356C143.525 129.354 133.992 137.618 125.29 132.709C117.848 128.51 121.764 121.332 125.552 120.338C126.473 120.097 127.283 120.838 127.037 121.673C125.889 125.546 130.753 128.38 134.452 125.048C137.47 122.32 136.683 118.168 133.666 116.532C123.606 111.102 112.986 119.439 115.716 130.021C116.82 134.286 120.018 137.192 124.079 138.571C140.471 144.131 147.979 125.26 160.928 128.272C152.361 119.14 168.415 105.096 155.785 94.2815C152.655 91.6024 148.334 90.2662 143.516 91.1893C131.564 93.488 127.57 105.564 137.38 111.345L137.375 111.351ZM67.1644 165.619C71.2185 173.733 81.9632 171.647 82.4137 166.264C82.6569 163.398 79.3788 160.712 76.0283 163.271C75.2715 163.852 74.1422 163.508 74.0079 162.642C73.2143 157.617 78.8545 154.798 84.4075 157.146C87.6447 158.509 89.2986 161.173 89.6864 164.111C97.512 157.158 108.198 148.721 119.645 156.257C126.781 144.659 140.083 147.832 150.157 150.868C149.247 148.047 149.603 144.937 151.947 142.354C155.974 137.91 162.293 138.113 163.73 142.995C163.979 143.836 163.103 144.618 162.168 144.408C158.029 143.487 156.211 147.285 157.655 149.787C160.379 154.479 171.005 151.882 171.204 142.838C171.283 139.062 168.707 136.142 165.155 134.578C148.696 127.297 139.246 156.075 116.116 140.599C101.806 164.281 80.8933 142.144 69.0987 155.616C66.5656 158.514 65.4756 162.236 67.168 165.621L67.1644 165.619ZM70.2878 148.092C80.7365 140.064 95.5951 153.943 108.033 142.092C111.123 139.149 112.768 135.178 111.942 130.853C109.871 120.126 96.6691 117.005 89.8947 126.126C87.8617 128.866 88.922 132.964 92.8309 134.172C97.6079 135.647 100.808 131.049 98.102 128.019C97.5172 127.362 97.9361 126.35 98.8724 126.188C102.732 125.514 109.352 130.379 104.411 137.281C98.6278 145.373 86.4566 141.859 84.5428 136.121C82.4646 139.337 79.2743 141.58 74.9782 141.582L74.959 141.609C74.959 141.609 74.9517 141.591 74.9468 141.584C74.9372 141.583 74.9251 141.585 74.9154 141.585L74.9347 141.558C73.1152 138.1 74.0461 134.587 76.4437 131.551C69.7793 132.449 61.03 124.155 66.8248 116.074C71.7684 109.169 79.5379 112.427 80.4896 115.816C80.7193 116.641 79.8674 117.404 78.9499 117.212C74.7104 116.324 71.3775 120.852 74.9126 124.062C77.8038 126.691 82.4332 125.803 84.3646 123.006C90.7883 113.691 81.9999 104.405 70.1835 107.291C65.4216 108.463 62.0706 111.472 60.3811 115.205C53.5727 130.238 74.038 136.285 70.2878 148.092ZM31.4715 78.5916C34.6366 78.6892 37.7362 75.619 35.0414 72.6798C34.4325 72.0147 34.8562 70.9816 35.8191 70.825C41.4079 69.9066 44.2981 74.8997 41.4762 80.0229C39.8338 83.0072 36.8201 84.6125 33.5532 85.077C40.9237 91.8887 49.81 101.23 41.0115 111.89C53.5577 117.891 49.4903 130.063 45.7215 139.305C48.8825 138.369 52.3015 138.567 55.0661 140.591C59.8185 144.057 59.3383 149.788 53.8761 151.283C52.9363 151.543 52.1085 150.778 52.3766 149.927C53.5669 146.143 49.4316 144.647 46.6133 146.065C41.3185 148.714 43.7495 158.234 53.7456 158.048C57.9195 157.968 61.2533 155.517 63.1296 152.248C71.8616 137.048 40.4056 129.637 58.482 108.081C32.8784 96.0604 58.2157 76.2451 43.8018 66.1073C40.6962 63.9199 36.6235 63.0833 32.8099 64.7527C23.6708 68.7518 25.5316 78.3992 31.4751 78.5937L31.4715 78.5916ZM57.1592 100.827C60.2898 103.506 64.611 104.842 69.4288 103.919C81.3804 101.62 85.3742 89.5446 75.5643 83.7637C72.6153 82.0336 68.0467 83.1635 66.5456 86.7477C64.7182 91.1362 69.6736 93.8423 73.1365 91.2751C73.8837 90.7225 74.9827 91.0589 75.1279 91.9022C75.7232 95.3687 70.0655 101.564 62.6231 97.3646C53.9179 92.453 58.3023 81.2832 64.727 79.3183C61.2426 77.5604 58.8767 74.7453 59.0795 70.8258C62.9883 69.002 66.8662 69.7051 70.1383 71.7594C69.4145 65.7612 78.948 57.4967 87.6495 62.4063C95.0919 66.6055 91.176 73.7834 87.3879 74.7767C86.4662 75.018 85.6566 74.2775 85.903 73.4423C87.0508 69.5689 82.187 66.7348 78.4873 70.0668C75.4693 72.7952 76.2567 76.9471 79.2732 78.5829C89.3339 84.0135 99.9537 75.6762 97.2236 65.0937C96.1195 60.8293 92.9221 57.9234 88.8606 56.5445C72.4686 50.9845 64.9607 69.8548 52.012 66.8429C60.579 75.9754 44.5243 90.0187 57.1544 100.834L57.1592 100.827ZM145.772 29.4938C141.718 21.3801 130.973 23.4659 130.522 28.8488C130.279 31.7147 133.557 34.4013 136.908 31.8416C137.665 31.2613 138.794 31.6053 138.928 32.4708C139.722 37.4964 134.082 40.3153 128.529 37.9672C125.291 36.6041 123.637 33.9401 123.25 31.0021C115.424 37.9555 104.738 46.3925 93.2914 38.8558C86.1548 50.4542 72.853 47.2809 62.7793 44.2453C63.6889 47.0664 63.3326 50.1757 60.9887 52.7595C56.9621 57.2029 50.6427 56.9998 49.2065 52.1177C48.9574 51.2772 49.8335 50.4946 50.7679 50.705C54.9072 51.6265 56.7246 47.8282 55.2813 45.3256C52.5571 40.6342 41.9305 43.2312 41.7324 52.275C41.6527 56.0512 44.229 58.9708 47.7807 60.535C64.2396 67.8164 73.6905 39.0376 96.8199 54.5139C111.13 30.8318 132.043 52.9693 143.837 39.4969C146.37 36.599 147.46 32.8775 145.768 29.4918L145.772 29.4938ZM142.648 47.0216C132.2 55.0487 117.341 41.1699 104.903 53.0214C101.813 55.9645 100.168 59.9354 100.994 64.2606C103.066 74.987 116.267 78.1084 123.041 68.9871C125.074 66.2469 124.014 62.149 120.105 60.9414C115.328 59.4662 112.128 64.064 114.834 67.0945C115.419 67.7508 115 68.7629 114.064 68.9251C110.204 69.5989 103.584 64.7338 108.526 57.8317C114.308 49.7399 126.479 53.2542 128.393 58.9922C130.471 55.7761 133.662 53.5328 137.958 53.5307L137.977 53.5038C137.977 53.5038 137.984 53.5221 137.989 53.5295C137.999 53.5303 138.011 53.5276 138.021 53.5284L138.001 53.5553C139.821 57.0127 138.89 60.5261 136.492 63.562C143.157 62.664 151.906 70.9583 146.111 79.0386C141.168 85.944 133.398 82.6858 132.446 79.2971C132.217 78.4723 133.069 77.7093 133.986 77.9006C138.226 78.7888 141.559 74.2613 138.023 71.0514C135.132 68.4222 130.503 69.3098 128.571 72.1073C122.148 81.4218 130.936 90.7076 142.753 87.8219C147.514 86.6497 150.865 83.6411 152.555 79.9077C159.363 64.8753 138.898 58.8282 142.648 47.0216ZM181.468 116.524C178.303 116.426 175.204 119.496 177.898 122.435C178.507 123.1 178.083 124.134 177.121 124.29C171.532 125.209 168.642 120.215 171.463 115.092C173.106 112.108 176.12 110.503 179.386 110.038C172.016 103.226 163.13 93.8854 171.928 83.2247C159.382 77.2241 163.449 65.0526 167.218 55.8103C164.057 56.746 160.638 56.5477 157.874 54.5244C153.121 51.058 153.601 45.3276 159.064 43.8318C160.003 43.5722 160.831 44.3372 160.563 45.1885C159.373 48.9718 163.508 50.468 166.326 49.0504C171.621 46.4008 169.19 36.8808 159.194 37.0671C155.02 37.1476 151.686 39.5984 149.81 42.8669C141.078 58.0673 172.534 65.4777 154.458 87.0346C180.061 99.0548 154.724 118.87 169.138 129.008C172.243 131.195 176.316 132.032 180.13 130.362C189.269 126.363 187.408 116.716 181.465 116.521L181.468 116.524Z" fill="url(#paint0_linear_150_6138)" fill-opacity="0.3"/>

</svg>
