<svg width="24" height="24" viewBox="0 0 24 24" fill="none" xmlns="http://www.w3.org/2000/svg">
<path d="M1.293 12.7071C1.20036 12.614 1.12696 12.5035 1.077 12.3821C1.02618 12.2611 1 12.1313 1 12.0001C1 11.8689 1.02618 11.739 1.077 11.6181C1.12696 11.4966 1.20036 11.3862 1.293 11.2931L9.293 3.29308C9.38525 3.19757 9.4956 3.12139 9.6176 3.06898C9.7396 3.01657 9.87082 2.98898 10.0036 2.98783C10.1364 2.98668 10.2681 3.01198 10.391 3.06226C10.5139 3.11254 10.6255 3.18679 10.7194 3.28069C10.8133 3.37458 10.8875 3.48623 10.9378 3.60913C10.9881 3.73202 11.0134 3.8637 11.0123 3.99648C11.0111 4.12926 10.9835 4.26048 10.9311 4.38249C10.8787 4.50449 10.8025 4.61483 10.707 4.70708L4.41401 11.0001H22C22.2652 11.0001 22.5196 11.1054 22.7071 11.293C22.8946 11.4805 23 11.7349 23 12.0001C23 12.2653 22.8946 12.5197 22.7071 12.7072C22.5196 12.8947 22.2652 13.0001 22 13.0001H4.41401L10.707 19.2931C10.8892 19.4817 10.99 19.7343 10.9877 19.9965C10.9854 20.2587 10.8802 20.5095 10.6948 20.6949C10.5094 20.8803 10.2586 20.9855 9.99641 20.9878C9.73421 20.99 9.48161 20.8892 9.293 20.7071L1.293 12.7071Z" fill="white"/>
</svg>
