<svg width="24" height="24" viewBox="0 0 24 24" fill="none" xmlns="http://www.w3.org/2000/svg">
<path d="M17.0001 13.5002C20.6885 13.5002 23.9001 14.8094 23.9001 17.7573C23.9001 19.3114 23.2564 20.0002 21.9413 20.0002L16.3454 20.0002C15.8022 20.0002 15.4184 19.4492 15.5257 18.9167C15.601 18.5431 15.9146 18.2002 16.2957 18.2003C18.555 18.2006 22.0781 18.2022 22.0781 18.2022C22.0781 18.2022 22.1001 17.9053 22.1001 17.7573C22.1001 16.2451 19.7822 15.3002 17.0001 15.3002C16.528 15.3002 16.0693 15.3274 15.633 15.3799C15.2978 15.4203 14.9733 15.261 14.7834 14.9818C14.4324 14.466 14.6173 13.6857 15.2363 13.6073C15.8032 13.5354 16.3952 13.5002 17.0001 13.5002ZM7.0001 13.5002C10.6885 13.5002 13.9001 14.8094 13.9001 17.7573C13.9001 19.3114 13.2564 20.0002 11.9413 20.0002H2.05892C0.743807 20.0002 0.100098 19.3114 0.100098 17.7573C0.100098 14.8094 3.31165 13.5002 7.0001 13.5002ZM7.0001 15.3002C4.21796 15.3002 1.9001 16.2451 1.9001 17.7573C1.9001 17.9061 1.9201 18.2022 1.9201 18.2022H12.0781C12.0781 18.2022 12.1001 17.9053 12.1001 17.7573C12.1001 16.2451 9.78224 15.3002 7.0001 15.3002ZM17.0001 4.2002C19.2928 4.2002 21.1501 6.05751 21.1501 8.3502C21.1501 10.6429 19.2928 12.5002 17.0001 12.5002C14.7074 12.5002 12.8501 10.6429 12.8501 8.3502C12.8501 6.05751 14.7074 4.2002 17.0001 4.2002ZM7.0001 4.2002C9.29278 4.2002 11.1501 6.05751 11.1501 8.3502C11.1501 10.6429 9.29278 12.5002 7.0001 12.5002C4.70742 12.5002 2.8501 10.6429 2.8501 8.3502C2.8501 6.05751 4.70742 4.2002 7.0001 4.2002ZM17.0001 6.0002C15.7015 6.0002 14.6501 7.05163 14.6501 8.3502C14.6501 9.64876 15.7015 10.7002 17.0001 10.7002C18.2987 10.7002 19.3501 9.64876 19.3501 8.3502C19.3501 7.05163 18.2987 6.0002 17.0001 6.0002ZM7.0001 6.0002C5.70153 6.0002 4.6501 7.05163 4.6501 8.3502C4.6501 9.64876 5.70153 10.7002 7.0001 10.7002C8.29867 10.7002 9.3501 9.64876 9.3501 8.3502C9.3501 7.05163 8.29867 6.0002 7.0001 6.0002Z" fill="white"/>
</svg>
