<svg width="36" height="36" viewBox="0 0 36 36" fill="none" xmlns="http://www.w3.org/2000/svg">
<path d="M26.6927 4.6499C28.4206 4.6499 29.3014 4.82001 30.2183 5.31033C31.0646 5.76297 31.737 6.43529 32.1896 7.28166C32.6422 8.12796 32.822 8.94362 32.8469 10.4231L32.85 10.8072V17.9999C32.85 18.7455 32.2456 19.3499 31.5 19.3499C30.8118 19.3499 30.2438 18.8349 30.1605 18.1692L30.15 17.9999L30.1485 13.3499H5.84852L5.85002 22.1926C5.85002 23.5128 5.93881 23.9726 6.19135 24.4448C6.39235 24.8207 6.67925 25.1076 7.0551 25.3086C7.49097 25.5417 7.91627 25.6353 9.01752 25.6483L9.30731 25.6499H28.2405L26.0454 23.4545C25.5622 22.9712 25.5219 22.2127 25.9246 21.6836L26.0454 21.5453C26.5287 21.062 27.2872 21.0218 27.8164 21.4245L27.9546 21.5453L32.4546 26.0453C32.9379 26.5286 32.9782 27.2871 32.5754 27.8162L32.4546 27.9545L27.9546 32.4545C27.4274 32.9817 26.5726 32.9817 26.0454 32.4545C25.5622 31.9712 25.5219 31.2127 25.9246 30.6836L26.0454 30.5453L28.2405 28.3499H9.30731C7.71239 28.3499 6.83913 28.205 5.99312 27.797L5.78178 27.6895C4.93541 27.2368 4.2631 26.5645 3.81045 25.7181C3.35785 24.8718 3.17809 24.0562 3.15311 22.5767L3.15002 22.1926V10.8072C3.15002 9.07935 3.32013 8.19848 3.81045 7.28166C4.2631 6.43529 4.93541 5.76297 5.78178 5.31033C6.62808 4.85772 7.44374 4.67797 8.92321 4.65299L9.30731 4.6499H26.6927ZM26.6927 7.3499H9.30731C7.98708 7.3499 7.52729 7.43869 7.0551 7.69122C6.67925 7.89223 6.39235 8.17913 6.19135 8.55498C5.95824 8.99085 5.86465 9.41615 5.85163 10.5174L5.85002 10.6499H30.147L30.1484 10.5174C30.1354 9.41615 30.0418 8.99085 29.8087 8.55498C29.6077 8.17913 29.3208 7.89223 28.945 7.69122C28.5091 7.45812 28.0838 7.36453 26.9825 7.35151L26.6927 7.3499Z" fill="#1B51CC"/>
</svg>
