<svg width="55" height="55" viewBox="0 0 55 55" fill="none" xmlns="http://www.w3.org/2000/svg">
<g clip-path="url(#clip0_259_6614)">
<path d="M27.5001 54.9999C12.3123 54.9999 0.000106812 42.6877 0.000106812 27.4999C0.000106812 12.3121 12.3123 0 27.5001 0C42.6879 0 55 12.3121 55 27.4999C55 42.6877 42.6879 54.9999 27.5001 54.9999Z" fill="#F9A502"/>
<path d="M33.7594 28.0752C31.6108 36.0937 23.3686 40.8524 15.3501 38.7038C14.8098 38.559 14.2843 38.3865 13.7746 38.1881C16.0068 40.6829 18.965 42.5779 22.4402 43.509C31.9559 46.0588 41.737 40.4116 44.2867 30.8959C46.8364 21.3802 41.1893 11.5991 31.6736 9.04935C28.1984 8.11825 24.6889 8.28026 21.5082 9.32477C22.0489 9.4078 22.5904 9.52113 23.1308 9.66592C31.1493 11.8145 35.9079 20.0567 33.7594 28.0752Z" fill="white" stroke="#F9A502" stroke-width="1.5"/>
<path d="M17.7447 26.0793L14.7886 33.0405L16.1527 25.6016L9.19149 22.6455L16.6304 24.0096L19.5868 17.0484L18.2223 24.4873L25.1836 27.4437L17.7447 26.0793Z" fill="white"/>
<path d="M42.1138 48.2748L42.5877 43.8367L38.3602 42.4048L38.4243 42.1136L42.8624 42.5875L44.2943 38.36L44.5855 38.4241L44.1116 42.8622L48.3391 44.2941L48.275 44.5853L43.8369 44.1114L42.405 48.3389L42.1138 48.2748Z" fill="white" stroke="white" stroke-width="0.3"/>
<path d="M28.3196 26.4329L29.1067 27.22L28.3196 28.0071L27.5325 27.22L28.3196 26.4329Z" fill="white"/>
<path d="M9.44069 20.543L10.2278 21.3301L9.44069 22.1172L8.6536 21.3301L9.44069 20.543Z" fill="white"/>
<path d="M6.10133 30.323L6.88843 31.1101L6.10133 31.8972L5.31424 31.1101L6.10133 30.323Z" fill="white"/>
<path d="M46.2721 13.1475L47.0592 13.9346L46.2721 14.7217L45.485 13.9346L46.2721 13.1475Z" fill="white"/>
<path d="M17.2406 45.0415L18.0277 45.8286L17.2406 46.6157L16.4535 45.8286L17.2406 45.0415Z" fill="white"/>
<path d="M41.8119 10.2844L42.599 11.0715L41.8119 11.8586L41.0248 11.0715L41.8119 10.2844Z" fill="white"/>
</g>
<defs>
<clipPath id="clip0_259_6614">
<rect width="55" height="55" fill="white" transform="matrix(-1 0 0 1 55 0)"/>
</clipPath>
</defs>
</svg>
