<svg width="48" height="48" viewBox="0 0 48 48" fill="none" xmlns="http://www.w3.org/2000/svg">
<path d="M14.2126 32.3512C14.7355 32.3518 15.2368 32.5598 15.6066 32.9296C15.9764 33.2993 16.1844 33.8007 16.185 34.3236V39.1881C16.185 40.2774 15.3019 41.1604 14.2126 41.1604C13.1234 41.1604 12.2403 40.2774 12.2403 39.1881V34.3236C12.241 33.8007 12.4489 33.2994 12.8187 32.9297C13.1884 32.5599 13.6897 32.3519 14.2126 32.3512ZM22.0295 34.3236V39.188C22.0295 40.2773 22.9126 41.1604 24.0019 41.1604C25.0913 41.1604 25.9743 40.2773 25.9743 39.188V34.3236C25.9743 33.8005 25.7665 33.2988 25.3966 32.9289C25.0267 32.559 24.525 32.3512 24.0019 32.3512C23.4788 32.3512 22.9771 32.559 22.6072 32.9289C22.2373 33.2988 22.0295 33.8005 22.0295 34.3236ZM7.36533 6.07336C7.36703 5.84068 7.32267 5.60997 7.2348 5.39451C7.14693 5.17905 7.0173 4.98311 6.85336 4.81798C6.68943 4.65285 6.49444 4.52179 6.27963 4.43236C6.06483 4.34292 5.83444 4.29688 5.60176 4.29688C5.36907 4.29688 5.13869 4.34292 4.92388 4.43236C4.70907 4.52179 4.51408 4.65285 4.35015 4.81798C4.18621 4.98311 4.05658 5.17905 3.96871 5.39451C3.88084 5.60997 3.83648 5.84068 3.83818 6.07336V21.5252C3.83818 22.4992 4.62776 23.2888 5.60176 23.2888C6.57575 23.2888 7.36533 22.4992 7.36533 21.5252V6.07336ZM8.20904 26.6013C8.20906 25.4967 7.31363 24.6013 6.20904 24.6013H4.9949C3.89033 24.6013 2.9949 25.4967 2.9949 26.6013V39.1604C2.9949 40.265 3.89033 41.1604 4.9949 41.1604H6.20875C7.3133 41.1604 8.20873 40.265 8.20875 39.1605L8.20904 26.6013ZM2.15302 43.6896H45.8471C46.0084 43.6896 46.1632 43.6255 46.2772 43.5114C46.3913 43.3973 46.4554 43.2426 46.4554 43.0813C46.4554 42.9199 46.3913 42.7652 46.2772 42.6511C46.1632 42.537 46.0084 42.4729 45.8471 42.4729H2.15302C1.99168 42.4729 1.83694 42.537 1.72286 42.6511C1.60877 42.7652 1.54468 42.9199 1.54468 43.0813C1.54468 43.2426 1.60877 43.3973 1.72286 43.5114C1.83694 43.6255 1.99168 43.6896 2.15302 43.6896ZM31.8193 34.324V39.1884C31.8193 40.2777 32.7023 41.1608 33.7916 41.1608C34.8809 41.1608 35.764 40.2777 35.764 39.1884V34.3236C35.7658 34.0634 35.7161 33.8055 35.6178 33.5646C35.5195 33.3238 35.3745 33.1047 35.1911 32.9201C35.0078 32.7355 34.7898 32.589 34.5496 32.489C34.3094 32.3891 34.0518 32.3376 33.7916 32.3376C33.5315 32.3376 33.2739 32.3891 33.0337 32.489C32.7935 32.589 32.5755 32.7355 32.3921 32.9201C32.2088 33.1047 32.0638 33.3238 31.9655 33.5646C31.8672 33.8055 31.8175 34.0634 31.8193 34.3236V34.324ZM10.9278 34.324C10.9325 33.4558 11.2806 32.6248 11.8962 32.0125C12.5117 31.4002 13.3446 31.0565 14.2128 31.0565C15.081 31.0565 15.9139 31.4002 16.5294 32.0125C17.145 32.6248 17.4931 33.4558 17.4977 34.324V39.551C17.4977 40.4401 18.2185 41.1608 19.1075 41.1608C19.9966 41.1608 20.7173 40.4401 20.7173 39.551V34.3236C20.7173 33.8922 20.8023 33.4651 20.9674 33.0665C21.1324 32.668 21.3744 32.3059 21.6794 32.0008C21.9845 31.6958 22.3466 31.4538 22.7451 31.2887C23.1437 31.1237 23.5708 31.0387 24.0022 31.0387C24.4336 31.0387 24.8607 31.1237 25.2593 31.2887C25.6578 31.4538 26.02 31.6958 26.325 32.0008C26.63 32.3059 26.872 32.668 27.0371 33.0665C27.2021 33.4651 27.2871 33.8922 27.2871 34.3236V39.5508C27.2871 40.4398 28.0078 41.1604 28.8967 41.1604C29.7857 41.1604 30.5063 40.4398 30.5063 39.5508V34.3236C30.504 33.8908 30.5872 33.4617 30.7513 33.0611C30.9153 32.6606 31.1569 32.2964 31.4622 31.9895C31.7674 31.6826 32.1303 31.4391 32.53 31.2729C32.9297 31.1067 33.3583 31.0212 33.7912 31.0212C34.224 31.0212 34.6526 31.1067 35.0523 31.2729C35.452 31.4391 35.8149 31.6826 36.1201 31.9895C36.4254 32.2964 36.667 32.6606 36.831 33.0611C36.9951 33.4617 37.0783 33.8908 37.076 34.3236V40.3664C37.076 40.8049 37.4315 41.1604 37.8701 41.1604C38.3086 41.1604 38.6641 40.8049 38.6641 40.3664V27.7494C38.6641 26.6448 37.7687 25.7494 36.6641 25.7494H11.5212C10.4166 25.7494 9.52121 26.6448 9.52121 27.7494V40.4573C9.52121 40.8456 9.83602 41.1604 10.2244 41.1604C10.6127 41.1604 10.9275 40.8456 10.9275 40.4573L10.9278 34.324ZM45.1908 26.6013C45.1908 25.4967 44.2954 24.6013 43.1908 24.6013H41.9771C40.8725 24.6013 39.9771 25.4967 39.9771 26.6013V39.1604C39.9771 40.265 40.8725 41.1604 41.9771 41.1604H43.1908C44.2954 41.1604 45.1908 40.265 45.1908 39.1604V26.6013ZM44.3471 6.07336C44.3488 5.84068 44.3044 5.60997 44.2165 5.39451C44.1287 5.17905 43.999 4.98311 43.8351 4.81798C43.6712 4.65285 43.4762 4.52179 43.2614 4.43236C43.0466 4.34292 42.8162 4.29688 42.5835 4.29688C42.3508 4.29688 42.1204 4.34292 41.9056 4.43236C41.6908 4.52179 41.4958 4.65285 41.3319 4.81798C41.168 4.98311 41.0383 5.17905 40.9505 5.39451C40.8626 5.60997 40.8182 5.84068 40.8199 6.07336V21.525C40.8199 22.4991 41.6096 23.2888 42.5837 23.2888C43.5578 23.2888 44.3475 22.4991 44.3475 21.5249L44.3471 6.07336ZM24.0022 13.3309C20.9975 13.3346 18.1078 14.4866 15.9247 16.5512C14.2581 18.1272 13.0996 20.144 12.5685 22.3447C12.2988 23.462 13.227 24.4365 14.3764 24.4365H33.6281C34.7774 24.4365 35.7056 23.462 35.4359 22.3447C34.9048 20.144 33.7463 18.1272 32.0798 16.5511C29.8967 14.4865 27.0069 13.3345 24.0022 13.3309ZM27.2344 9.45455C26.9903 9.69867 26.7006 9.89233 26.3816 10.0245C26.0627 10.1566 25.7209 10.2246 25.3757 10.2246C24.6785 10.2247 24.0098 9.94778 23.5168 9.45483C23.2726 9.21074 23.079 8.92096 22.9469 8.60203C22.8147 8.2831 22.7467 7.94127 22.7467 7.59606C22.7466 6.89886 23.0235 6.2302 23.5165 5.73717C23.5198 5.73378 23.5171 5.72819 23.5124 5.72893C22.9215 5.82168 22.3673 6.0751 21.9106 6.46161C21.4499 6.85143 21.1063 7.36138 20.9181 7.93476C20.7298 8.50813 20.7043 9.12248 20.8443 9.70951C20.9843 10.2965 21.2843 10.8332 21.711 11.26C22.1377 11.6867 22.6744 11.9868 23.2615 12.1268C23.8485 12.2668 24.4628 12.2412 25.0362 12.053C25.6096 11.8648 26.1195 11.5212 26.5094 11.0605C26.896 10.6037 27.1495 10.0493 27.2422 9.45825C27.2429 9.45364 27.2375 9.45103 27.2344 9.45455Z" fill="#F9A502"/>
</svg>
