<svg width="24" height="24" viewBox="0 0 24 24" fill="none" xmlns="http://www.w3.org/2000/svg">
<path fill-rule="evenodd" clip-rule="evenodd" d="M11.5503 4.529C11.7758 4.84213 11.801 5.25702 11.615 5.59512C11.2233 6.30769 11 7.12627 11 7.99999C11 10.7614 13.2386 13 16 13C16.8737 13 17.6923 12.7767 18.4049 12.3849C18.743 12.199 19.1579 12.2242 19.471 12.4497C19.7841 12.6751 19.9396 13.0606 19.8705 13.4402C19.1917 17.1712 15.9272 20 12 20C7.58172 20 4 16.4183 4 12C4 8.07276 6.82882 4.80832 10.5598 4.12947C10.9394 4.0604 11.3249 4.21588 11.5503 4.529ZM9.11357 6.73833C7.25774 7.75873 6 9.7331 6 12C6 15.3137 8.68629 18 12 18C14.2669 18 16.2413 16.7423 17.2617 14.8864C16.8521 14.961 16.4304 15 16 15C12.134 15 9 11.866 9 7.99999C9 7.56956 9.03896 7.14785 9.11357 6.73833Z" fill="white"/>
</svg>
