<svg width="24" height="24" viewBox="0 0 24 24" fill="none" xmlns="http://www.w3.org/2000/svg">
<path d="M17.6797 2.45847C19.1594 2.1502 20.6089 3.09982 20.9171 4.57951C20.9554 4.7631 20.9747 4.95014 20.9747 5.13768V14.72C20.9747 19.0098 16.7852 21.2148 14.5106 18.9402C12.236 16.6656 14.4409 12.4761 18.7307 12.4761L19.1745 12.4756V8.11839L9.60447 10.1212L9.60462 17.099C9.60462 21.3047 5.57783 23.5065 3.2765 21.4478L3.14053 21.3192C0.865919 19.0446 3.0709 14.8551 7.3607 14.8551L7.80447 14.854L7.80462 7.47729C7.80462 6.70951 7.86136 6.27285 8.02443 5.84911L8.09066 5.69019C8.29319 5.23767 8.60098 4.85915 9.00268 4.56858C9.42759 4.26123 9.84828 4.10023 10.6926 3.92432L17.6797 2.45847ZM7.80462 16.6551H7.3607C4.57727 16.6551 3.35133 18.9844 4.41333 20.0464C5.47533 21.1084 7.80462 19.8824 7.80462 17.099V16.6551ZM19.1747 14.2761H18.7307C15.9473 14.2761 14.7214 16.6054 15.7834 17.6674C16.8454 18.7294 19.1747 17.5035 19.1747 14.72V14.2761ZM19.155 4.94663C19.0494 4.44016 18.5533 4.11512 18.0481 4.22037L10.87 5.72733C10.3993 5.83244 10.2263 5.90501 10.0576 6.02704C9.91202 6.13236 9.80703 6.26147 9.73362 6.4255C9.63793 6.63931 9.60462 6.8456 9.60462 7.47729L9.60447 8.28159L19.1745 6.27999L19.1747 5.13768C19.1747 5.10558 19.173 5.07353 19.1697 5.04165L19.155 4.94663Z" fill="white"/>
</svg>
