<svg width="40" height="40" viewBox="0 0 40 40" fill="none" xmlns="http://www.w3.org/2000/svg">
<g clip-path="url(#clip0_150_6204)">
<path d="M20 40C31.0457 40 40 31.0457 40 20C40 8.9543 31.0457 0 20 0C8.9543 0 0 8.9543 0 20C0 31.0457 8.9543 40 20 40Z" fill="white"/>
<path d="M9.45996 28.4788C9.45996 28.8672 9.77426 29.1815 10.1626 29.1815H29.8373C30.2257 29.1815 30.54 28.8672 30.54 28.4788C30.54 28.0904 30.2257 27.7761 29.8373 27.7761C28.6749 27.7761 27.7293 26.8306 27.7293 25.6682V18.8497C27.7293 14.6046 24.4297 10.828 20 10.8172C15.6781 10.8066 12.2706 14.3456 12.2706 18.5478V25.6682C12.2706 26.8306 11.325 27.7761 10.1626 27.7761C9.77426 27.7761 9.45996 28.0904 9.45996 28.4788Z" fill="#F9A502"/>
<path d="M17.9481 9.64891C18.603 9.49859 19.2817 9.41172 19.9815 9.41172C20.6971 9.41344 21.3902 9.50828 22.0584 9.66984C21.853 8.72141 21.0091 8.00781 20 8.00781C18.9985 8.00781 18.1616 8.71125 17.9481 9.64891Z" fill="#F9A502"/>
<path d="M20 31.9922C21.1432 31.9922 22.1507 31.435 22.7927 30.5869H17.2073C17.8493 31.435 18.8568 31.9922 20 31.9922Z" fill="#F9A502"/>
</g>
<defs>
<clipPath id="clip0_150_6204">
<rect width="40" height="40" fill="white"/>
</clipPath>
</defs>
</svg>
