<svg width="24" height="24" viewBox="0 0 24 24" fill="none" xmlns="http://www.w3.org/2000/svg">
<path d="M13.8137 14.7933L13.1847 15.4225C13.0166 15.5908 12.7662 15.6461 12.5429 15.5643C11.9173 15.3342 11.1347 14.75 10.195 13.8099C9.25617 12.8707 8.6713 12.0878 8.44211 11.4611C8.36011 11.2379 8.41509 10.9874 8.58302 10.8191L9.21287 10.1899C10.3733 9.02908 10.4794 7.20081 9.4565 5.98734L8.71799 5.1093C7.87507 4.10643 6.35646 4.00538 5.3251 4.88257C4.94152 5.21324 4.65317 5.64036 4.48982 6.11982C4.41922 6.32853 4.37363 6.54488 4.354 6.76434C3.97626 9.56915 5.32849 12.5132 8.40985 15.5957C11.4912 18.6782 14.4334 20.0301 17.238 19.6522C17.9666 19.5826 18.6404 19.2347 19.1191 18.6808C19.9968 17.6499 19.8949 16.1299 18.8933 15.2866L18.0155 14.547C16.8008 13.5254 14.9741 13.6324 13.8137 14.7933ZM11.4069 12.5978C11.8557 13.0468 12.2472 13.3874 12.5636 13.6193C14.383 11.7992 17.2141 11.6334 19.1197 13.2359L19.9968 13.975C21.7356 15.4388 21.9096 18.0472 20.4156 19.8018C19.6484 20.6896 18.5686 21.2472 17.4668 21.3512C14.0545 21.8109 10.623 20.2341 7.19797 16.8079C3.77287 13.3815 2.19597 9.94798 2.64703 6.61157C2.67874 6.25705 2.75239 5.90754 2.86764 5.56682C3.12942 4.79845 3.59155 4.11394 4.21495 3.57657C5.96068 2.0918 8.56697 2.26573 10.0294 4.00567L10.7667 4.88229C12.3709 6.78543 12.2066 9.61955 10.4239 11.4028C10.6175 11.7572 10.9579 12.1486 11.4069 12.5978Z" fill="#F9A502"/>
</svg>
