<svg width="24" height="24" viewBox="0 0 24 24" fill="none" xmlns="http://www.w3.org/2000/svg">
<g id="place_outline_24">
<g id="&#226;&#134;&#179; Icon Color">
<path fill-rule="evenodd" clip-rule="evenodd" d="M11.9998 13C13.9328 13 15.4998 11.433 15.4998 9.5C15.4998 7.567 13.9328 6 11.9998 6C10.0668 6 8.49982 7.567 8.49982 9.5C8.49982 11.433 10.0668 13 11.9998 13ZM11.9998 11.2C12.9387 11.2 13.6998 10.4389 13.6998 9.49999C13.6998 8.5611 12.9387 7.79999 11.9998 7.79999C11.0609 7.79999 10.2998 8.5611 10.2998 9.49999C10.2998 10.4389 11.0609 11.2 11.9998 11.2Z" fill="url(#paint0_linear_587_8694)"/>
<path fill-rule="evenodd" clip-rule="evenodd" d="M4.24268 9.76987C4.24268 5.48026 7.71409 2 11.9998 2C16.2855 2 19.757 5.48026 19.757 9.76987C19.757 12.903 17.7829 16.6225 14.1922 20.8679C14.0891 20.9898 13.976 21.1029 13.8541 21.206C12.6433 22.2301 10.8315 22.0787 9.8074 20.8679L9.24032 20.1974L9.24608 20.1923C6.01154 16.2269 4.24268 12.7357 4.24268 9.76987ZM11.1848 19.7091C11.5675 20.1576 12.2411 20.2128 12.6917 19.8317C12.7372 19.7932 12.7794 19.751 12.8179 19.7055C16.3631 15.5139 17.957 12.2221 17.957 9.76987C17.957 6.47123 15.2883 3.8 11.9998 3.8C8.71135 3.8 6.04268 6.47123 6.04268 9.76987C6.04268 12.2221 7.63655 15.5139 11.1817 19.7055L11.1848 19.7091Z" fill="url(#paint1_linear_587_8694)"/>
</g>
</g>
<defs>
<linearGradient id="paint0_linear_587_8694" x1="4.24268" y1="2" x2="23.5306" y2="17.0484" gradientUnits="userSpaceOnUse">
<stop stop-color="#1151C2"/>
<stop offset="0.973094" stop-color="#8F8CF7"/>
</linearGradient>
<linearGradient id="paint1_linear_587_8694" x1="4.24268" y1="2" x2="23.5306" y2="17.0484" gradientUnits="userSpaceOnUse">
<stop stop-color="#1151C2"/>
<stop offset="0.973094" stop-color="#8F8CF7"/>
</linearGradient>
</defs>
</svg>
