<svg width="20" height="20" viewBox="0 0 20 20" fill="none" xmlns="http://www.w3.org/2000/svg">
<path d="M10 1.25C5.125 1.25 1.25 5.125 1.25 10C1.25 14.875 5.125 18.75 10 18.75C14.875 18.75 18.75 14.875 18.75 10C18.75 5.125 14.875 1.25 10 1.25ZM14.625 10.5L7.75 14.25C7.5 14.375 7.375 14.375 7.125 14.25C6.875 14.125 6.875 13.875 6.875 13.75V6.25C6.875 6 7 5.875 7.125 5.75C7.375 5.625 7.5 5.625 7.75 5.75L14.625 9.5C15 9.625 15.125 10 14.875 10.25C14.875 10.375 14.75 10.5 14.625 10.5Z" fill="white"/>
</svg>
