<svg width="48" height="48" viewBox="0 0 48 48" fill="none" xmlns="http://www.w3.org/2000/svg">
<path d="M35.8973 38.1444C36.3999 36.1419 35.4323 33.9743 33.5123 33.0668L32.2372 32.4668L30.6472 36.4794L35.8973 38.1444Z" fill="#F9A502"/>
<path d="M22.262 39.8176C23.9135 39.2244 25.2602 38.1194 26.1321 36.6226L24.8946 36.2251C22.8021 35.5651 21.3921 33.645 21.3921 31.4475V24.9749C21.4062 23.9899 22.882 23.9859 22.8921 24.9749C22.8921 24.9749 22.8921 31.4475 22.8921 31.4475C22.8921 32.985 23.8821 34.335 25.3446 34.8001L29.2147 36.0226L30.8797 31.83L27.5046 30.2325C27.2421 30.105 27.0771 29.8425 27.0771 29.55V23.1824C27.0771 21.6149 26.2371 20.1673 24.8796 19.3873L19.397 16.2598C16.5773 19.0581 15.0047 22.8016 14.7544 26.73C14.7544 26.73 14.7619 34.3951 14.7619 34.3951C14.5799 39.0548 18.9301 41.3394 22.262 39.8176Z" fill="#F9A502"/>
<path d="M35.4773 39.5851L27.5872 37.0801C26.5761 38.9944 24.8479 40.4924 22.8096 41.2126C22.3392 41.498 20.0765 41.9879 18.8721 41.6776C18.8721 41.6777 18.8721 45.0002 18.8721 45.0002H34.6448C37.7713 44.9726 38.4743 40.5556 35.4773 39.5851Z" fill="#F9A502"/>
<path d="M14.8895 41.2051C12.9995 41.2051 11.3344 42.3376 10.6519 44.1001C10.5394 44.3776 10.667 44.6101 10.7195 44.6926C10.8545 44.8876 11.0644 45.0001 11.2969 45.0001H17.3721V41.2351C17.342 41.22 17.3196 41.2126 17.297 41.2051H14.8895Z" fill="#F9A502"/>
<path d="M21.1596 12.9828L20.3721 15.0903L25.6222 18.0829C25.8322 18.2029 26.0347 18.3379 26.2297 18.4879L27.1072 16.1779C27.1223 16.0728 27.2123 16.0354 27.3098 16.0429C28.5186 16.2754 29.7617 15.3928 29.9498 14.1903C29.9498 14.1903 30.1898 12.8028 30.1898 12.8028L30.4148 12.8403C31.2049 13.0179 31.9156 12.1583 31.5923 11.4152C31.5923 11.4153 30.7823 9.42775 30.7823 9.42775C31.2663 6.40828 28.9366 3.37018 25.8922 3.04518C23.0422 2.67763 20.2896 4.59016 19.6446 7.41772C19.2396 9.24024 19.7571 11.1528 21.0171 12.5103C21.1371 12.6453 21.1896 12.8178 21.1596 12.9828Z" fill="#F9A502"/>
</svg>
