<svg width="48" height="48" viewBox="0 0 48 48" fill="none" xmlns="http://www.w3.org/2000/svg">
<path d="M33.1667 34H24V40H46V34H33.1667Z" fill="#F9A502"/>
<path d="M42 30H34C34.0016 31.5921 34.4237 33.1182 35.1736 34.2432C35.9236 35.3681 36.9401 36 38 36C39.0599 36 40.0764 35.3681 40.8264 34.2432C41.5763 33.1182 41.9984 31.5921 42 30Z" fill="#F9A502"/>
<path d="M30 28H32V34H30V28Z" fill="#F9A502"/>
<path d="M15.8118 27.2884C14.6774 28.0522 13.3265 28.4449 11.9516 28.4105C11.6465 28.4148 11.3442 28.3542 11.0651 28.2331C10.7861 28.1119 10.5371 27.9329 10.3351 27.7083C9.19822 26.4654 9.37885 23.8945 9.65545 21.3754C8.54148 21.2231 7.47199 20.8441 6.51557 20.2629C5.55915 19.6818 4.73671 18.911 4.1008 18C1.95076 20.1212 0 22.223 0 26.2387C0 28.7026 -4.61612e-07 33.6512 0.340843 40H13.7728C12.7612 37.1099 11.9647 36.4163 11.5583 36.0605C11.3759 36.0678 11.1937 36.0923 11.0118 36.0923C9.21046 36.1618 7.43031 35.691 5.90822 34.7425C5.25682 34.3006 4.72306 33.7114 4.35188 33.0247C3.9807 32.3379 3.78297 31.5737 3.77534 30.7962C3.76784 30.6458 3.79411 30.4955 3.85227 30.3562C3.91044 30.2168 3.99908 30.0917 4.11193 29.9897C4.22479 29.8877 4.35909 29.8113 4.50533 29.7659C4.65158 29.7205 4.80619 29.7072 4.95824 29.727C5.20139 29.7644 5.42327 29.8849 5.58469 30.0673C5.7461 30.2498 5.83665 30.4824 5.84035 30.724C5.83853 31.1898 5.95285 31.6489 6.17333 32.0613C6.39381 32.4736 6.71374 32.8267 7.10519 33.0897C9.25508 34.591 13.564 34.2156 16.082 32.9381C17.3012 32.3202 18 31.5676 18 30.8733C18 28.0371 16.4904 27.4212 15.8118 27.2884Z" fill="#F9A502"/>
<path d="M24.2172 27.6686C25.1408 26.6808 25.7625 25.4155 26 24.0403C25.3426 23.4283 18.3466 30.0656 19.9942 24.7071C19.2942 25.2195 18.6279 25.7829 18 26.3932C18.7686 27.4229 19.2225 28.6814 19.3 29.9975C20.2295 30.0249 21.153 29.8301 22.0036 29.4273C22.8541 29.0245 23.6103 28.4237 24.2172 27.6686Z" fill="#F9A502"/>
<path d="M6.02755 13.5054C5.38891 21.7847 16.0671 22.359 15.9986 14.0109C16.1323 6.29098 6.41385 5.88384 6.0264 13.5054H6.02755Z" fill="#F9A502"/>
</svg>
