<svg width="48" height="48" viewBox="0 0 48 48" fill="none" xmlns="http://www.w3.org/2000/svg">
<path d="M18.883 38.6549L18.7642 40.0649C18.7519 40.2207 18.7089 40.3725 18.6375 40.5115C18.5662 40.6505 18.4681 40.7741 18.3488 40.875C18.2295 40.9759 18.0914 41.0521 17.9424 41.0994C17.7935 41.1466 17.6366 41.1639 17.481 41.1501L5.36121 40.0966C5.20607 40.0835 5.05505 40.0398 4.91683 39.9681C4.77861 39.8965 4.65592 39.7982 4.55581 39.6789C4.4557 39.5597 4.38014 39.4218 4.33348 39.2733C4.28682 39.1247 4.26998 38.9684 4.28392 38.8133L4.40275 37.3954C4.41608 37.2403 4.45987 37.0894 4.53161 36.9513C4.60336 36.8132 4.70165 36.6906 4.82085 36.5905C4.94006 36.4904 5.07783 36.4148 5.22629 36.3681C5.37475 36.3214 5.53097 36.3044 5.686 36.3181L17.8057 37.3637C18.1197 37.3924 18.4094 37.5445 18.6114 37.7865C18.8133 38.0286 18.911 38.3409 18.883 38.6549Z" fill="#F9A502"/>
<path d="M16.9819 10.0752L16.5541 11.7704C16.5444 11.8034 16.5311 11.8353 16.5145 11.8654L16.9819 10.0752Z" fill="#F9A502"/>
<path d="M19.4692 22.1949C19.0931 23.8866 19.2057 25.6504 19.7941 27.2805C20.0178 28.3289 20.1003 29.4025 20.0395 30.4728C19.9998 31.0803 19.8274 31.6717 19.5345 32.2054C19.2416 32.7392 18.8354 33.2022 18.3444 33.5621C17.4864 34.3125 16.9362 35.3536 16.7997 36.4851L7.00096 35.6375C7.2268 32.5486 6.3666 29.4778 4.56898 26.9557C3.41548 25.568 2.64161 23.8991 3.15918 22.084L4.52948 16.84C4.5417 16.7898 4.5659 16.7432 4.60001 16.7043C4.63412 16.6654 4.67713 16.6354 4.72537 16.6167C4.77361 16.598 4.82565 16.5913 4.87706 16.5971C4.92846 16.6029 4.97771 16.621 5.02059 16.6499C5.7885 17.1637 6.38239 17.8985 6.72373 18.7571L6.42271 19.9294C6.22325 20.6907 6.22114 21.4902 6.41656 22.2525C6.61199 23.0148 6.9985 23.7147 7.5396 24.2862L8.5536 25.3555C9.07584 25.9153 9.44724 26.5986 9.63291 27.3413C9.81859 28.084 9.81245 28.8618 9.61507 29.6014C9.59934 29.7036 9.62385 29.808 9.68345 29.8925C9.74306 29.977 9.83311 30.0351 9.93467 30.0546C10.0362 30.0741 10.1414 30.0534 10.228 29.997C10.3147 29.9405 10.3761 29.8527 10.3993 29.7519L10.4626 29.4272C10.6228 28.6064 10.585 27.7593 10.3521 26.9561C10.1193 26.1529 9.69822 25.4168 9.12388 24.809L8.1179 23.7396C7.66716 23.2671 7.34468 22.6872 7.18109 22.055C7.0175 21.4228 7.01822 20.7593 7.18318 20.1275L7.49998 18.8838C7.52281 18.8339 7.53623 18.7802 7.53956 18.7254L9.84472 9.78213C9.9353 9.45008 10.1513 9.16619 10.4472 8.99033C10.743 8.81448 11.0956 8.76042 11.4306 8.83955C11.7656 8.91867 12.0567 9.12481 12.2426 9.41447C12.4285 9.70413 12.4947 10.0547 12.4271 10.3922L10.4547 19.47C10.4437 19.5204 10.4428 19.5726 10.452 19.6234C10.4612 19.6742 10.4803 19.7227 10.5082 19.7662C10.5362 19.8096 10.5724 19.8471 10.6149 19.8765C10.6573 19.906 10.7051 19.9267 10.7556 19.9377C10.8061 19.9486 10.8582 19.9495 10.9091 19.9402C10.9599 19.931 11.0084 19.9118 11.0518 19.8839C11.0952 19.8559 11.1327 19.8196 11.162 19.7771C11.1914 19.7347 11.2122 19.6868 11.223 19.6363C11.6357 17.7477 13.3915 9.69825 13.7738 7.96815C13.8157 7.78481 13.8936 7.6116 14.0029 7.45856C14.1123 7.30553 14.2509 7.17571 14.4107 7.07661C14.5706 6.97752 14.7485 6.91114 14.9342 6.88129C15.1199 6.85145 15.3097 6.85875 15.4926 6.90276C15.6754 6.94677 15.8477 7.02663 15.9995 7.1377C16.1513 7.24878 16.2795 7.38886 16.3768 7.54984C16.474 7.71082 16.5384 7.8895 16.5661 8.07552C16.5939 8.26155 16.5844 8.45123 16.5383 8.63357L16.2135 9.88512L13.5915 19.8898C13.5664 19.9917 13.5821 20.0993 13.6354 20.1897C13.6888 20.28 13.7754 20.3458 13.8767 20.373C13.9266 20.3868 13.9788 20.3906 14.0302 20.3841C14.0816 20.3776 14.1312 20.361 14.1762 20.3352C14.2211 20.3095 14.2605 20.275 14.292 20.2339C14.3236 20.1928 14.3467 20.1459 14.3599 20.0958L16.5145 11.8655C16.5311 11.8353 16.5444 11.8034 16.5541 11.7704L16.9819 10.0752C17.0593 9.79025 17.2437 9.54618 17.4968 9.39399C17.6859 9.28616 17.9023 9.23553 18.1196 9.24825C18.337 9.26096 18.546 9.33647 18.7212 9.46563C18.8965 9.59478 19.0305 9.77201 19.1071 9.97584C19.1836 10.1797 19.1993 10.4013 19.1523 10.6139L16.3482 22.385C16.327 22.4858 16.346 22.5909 16.4012 22.6779C16.4564 22.7649 16.5433 22.8269 16.6436 22.8506C16.7438 22.8744 16.8494 22.8581 16.9377 22.8051C17.0261 22.7522 17.0902 22.6668 17.1166 22.5672C17.4302 21.2335 18.7818 15.581 19.089 14.3686C19.1492 14.1423 19.2743 13.9387 19.4489 13.7826C19.6235 13.6266 19.8399 13.5251 20.0715 13.4906C20.3031 13.4561 20.5397 13.4901 20.7522 13.5884C20.9647 13.6867 21.1438 13.845 21.2674 14.0439C21.4237 14.3148 21.4665 14.6366 21.3862 14.939L19.4692 22.1949Z" fill="#F9A502"/>
<path d="M40.447 39.6767C40.3476 39.7975 40.2247 39.8969 40.0859 39.9691C39.9471 40.0412 39.7951 40.0846 39.6391 40.0965L27.5193 41.15C27.3638 41.1631 27.2072 41.1454 27.0585 41.098C26.9098 41.0505 26.7719 40.9742 26.6527 40.8734C26.5335 40.7726 26.4354 40.6493 26.3639 40.5106C26.2924 40.3718 26.249 40.2203 26.236 40.0648L26.1173 38.6548C26.0893 38.3408 26.187 38.0285 26.3889 37.7864C26.5909 37.5444 26.8806 37.3923 27.1946 37.3636L39.3142 36.318C39.3481 36.3111 39.3827 36.3084 39.4172 36.31C39.714 36.3108 39.9997 36.4227 40.2181 36.6235C40.4365 36.8243 40.5719 37.0997 40.5975 37.3953C40.5952 37.988 40.9436 39.1993 40.447 39.6767Z" fill="#F9A502"/>
<path d="M31.4859 11.8654C31.4694 11.8353 31.4561 11.8034 31.4463 11.7704L31.0186 10.0752L31.4859 11.8654Z" fill="#F9A502"/>
<path d="M41.1042 26.0284C39.1227 28.3864 38.0248 31.3611 37.9991 34.4409L37.9991 35.6371L28.2003 36.4846C28.0639 35.353 27.5137 34.3119 26.6556 33.5617C26.1637 33.2008 25.757 32.7364 25.4641 32.2013C25.1712 31.6661 24.9993 31.0732 24.9605 30.4644V29.3079C25.007 28.1376 25.2095 26.9788 25.5625 25.8621C25.8571 24.6559 25.8462 23.3953 25.5308 22.1944L23.6138 14.9385C23.5737 14.7868 23.5641 14.6286 23.5857 14.4731C23.6073 14.3176 23.6596 14.168 23.7395 14.033C23.8195 13.8979 23.9255 13.7801 24.0514 13.6864C24.1773 13.5927 24.3206 13.525 24.4729 13.4872C24.6252 13.4493 24.7836 13.4422 24.9387 13.4661C25.0938 13.4901 25.2426 13.5446 25.3764 13.6266C25.5102 13.7086 25.6264 13.8164 25.7182 13.9437C25.81 14.071 25.8755 14.2153 25.911 14.3682L26.3388 16.1267C26.3525 16.1866 27.8793 22.499 27.8834 22.5668C27.9097 22.6664 27.9738 22.7519 28.0622 22.8049C28.1506 22.8579 28.2562 22.8742 28.3565 22.8504C28.4567 22.8266 28.5437 22.7646 28.5989 22.6776C28.6541 22.5905 28.6731 22.4854 28.6518 22.3845L25.8477 10.6134C25.8007 10.4008 25.8164 10.1791 25.8929 9.97531C25.9695 9.77148 26.1035 9.59424 26.2788 9.4651C26.4541 9.33595 26.6631 9.26045 26.8804 9.24775C27.0978 9.23505 27.3141 9.2857 27.5033 9.39355C28.1651 9.70521 28.2026 11.181 28.4855 11.865L30.6401 20.0953C30.6534 20.1454 30.6764 20.1923 30.708 20.2334C30.7395 20.2745 30.7789 20.309 30.8239 20.3348C30.8688 20.3605 30.9184 20.3772 30.9698 20.3836C31.0212 20.3901 31.0734 20.3864 31.1233 20.3725C31.2246 20.3454 31.3113 20.2795 31.3646 20.1892C31.4179 20.0988 31.4337 19.9912 31.4085 19.8893L28.7865 9.88464L28.4617 8.63305C28.4134 8.44998 28.4022 8.25912 28.4287 8.07167C28.4552 7.88422 28.5189 7.70394 28.616 7.54142C28.7131 7.37889 28.8416 7.23739 28.9941 7.1252C29.1466 7.01302 29.32 6.93241 29.5041 6.88811C29.6881 6.84381 29.8792 6.83671 30.066 6.86722C30.2529 6.89774 30.4317 6.96525 30.5921 7.0658C30.7525 7.16635 30.8912 7.29792 31.0001 7.45279C31.109 7.60766 31.1859 7.78271 31.2262 7.96768L31.7966 10.5659L33.777 19.6359C33.799 19.7377 33.8607 19.8267 33.9483 19.8831C34.036 19.9396 34.1424 19.9589 34.2443 19.9368C34.3462 19.9148 34.4352 19.8532 34.4916 19.7655C34.5481 19.6779 34.5674 19.5714 34.5453 19.4695L32.5729 10.3916C32.5054 10.0541 32.5715 9.70362 32.7574 9.41399C32.9434 9.12435 33.2345 8.91824 33.5695 8.83914C33.9044 8.76003 34.257 8.8141 34.5529 8.98995C34.8487 9.1658 35.0647 9.44968 35.1553 9.78172L37.4604 18.7249C37.4628 18.7672 37.7988 20.039 37.8168 20.127C37.9818 20.7588 37.9825 21.4223 37.8189 22.0545C37.6553 22.6867 37.3329 23.2666 36.8821 23.7391L35.8761 24.8085C35.2659 25.4592 34.8292 26.2531 34.6064 27.1169C34.3835 27.9807 34.3816 28.8867 34.6008 29.7515C34.624 29.8523 34.6854 29.9401 34.772 29.9966C34.8587 30.053 34.9638 30.0737 35.0654 30.0542C35.167 30.0347 35.257 29.9765 35.3166 29.892C35.3762 29.8075 35.4007 29.7032 35.3849 29.6009L35.3137 29.2682C35.1799 28.5729 35.2128 27.8557 35.4097 27.1755C35.6066 26.4953 35.9619 25.8715 36.4464 25.3551L37.4604 24.2857C38.0015 23.7143 38.388 23.0144 38.5834 22.2521C38.7789 21.4898 38.7768 20.6902 38.5773 19.929L38.2763 18.7566C38.6176 17.898 39.2115 17.1633 39.9794 16.6495C40.0223 16.6205 40.0715 16.6023 40.1229 16.5965C40.1744 16.5907 40.2264 16.5974 40.2747 16.6161C40.3229 16.6348 40.366 16.6649 40.4001 16.7038C40.4342 16.7427 40.4583 16.7893 40.4705 16.8396L41.8409 22.0836C42.0172 22.7547 42.0426 23.4565 41.9153 24.1387C41.7879 24.8208 41.5109 25.4662 41.1042 26.0284Z" fill="#F9A502"/>
</svg>
