<svg width="450" height="449" viewBox="0 0 450 449" fill="none" xmlns="http://www.w3.org/2000/svg">
<path d="M90.6639 196.128L86.4746 192.358C86.3248 192.213 86.0616 192.289 86.0346 192.514L84.8698 198.034C84.8173 198.249 85.0182 198.414 85.2206 198.344L90.5843 196.567C90.7513 196.514 90.8137 196.273 90.6639 196.128Z" fill="white" fill-opacity="0.7"/>
<path d="M87.8395 217.545L83.1171 214.484C82.932 214.354 82.7004 214.501 82.6831 214.7L82.4055 220.353C82.3883 220.552 82.6246 220.701 82.8014 220.621L87.8269 218.04C88.0135 217.935 88.0247 217.674 87.8395 217.545Z" fill="white" fill-opacity="0.7"/>
<path d="M88.4046 239.14L83.2416 236.851C83.0369 236.773 82.8308 236.93 82.8647 237.148L83.4562 242.75C83.4645 242.958 83.7204 243.056 83.8813 242.941L88.4371 239.593C88.6237 239.488 88.6092 239.218 88.4046 239.14Z" fill="white" fill-opacity="0.7"/>
<path d="M92.3273 260.379L86.8676 258.946C86.6532 258.894 86.4629 259.086 86.5322 259.288L87.9962 264.752C88.0655 264.955 88.3055 265.017 88.4506 264.866L92.4365 260.861C92.5915 260.685 92.5417 260.431 92.3273 260.379Z" fill="white" fill-opacity="0.7"/>
<path d="M109.819 299.682L104.188 300.006C103.98 300.015 103.856 300.262 103.971 300.423L107.061 305.154C107.166 305.341 107.435 305.326 107.539 305.131L110.105 300.085C110.148 299.896 110.027 299.674 109.819 299.682Z" fill="white" fill-opacity="0.7"/>
<path d="M122.936 316.778L117.415 317.966C117.223 318.011 117.125 318.267 117.275 318.412L121.048 322.581C121.198 322.727 121.451 322.676 121.52 322.497L123.251 317.104C123.31 316.95 123.128 316.734 122.936 316.778Z" fill="white" fill-opacity="0.7"/>
<path d="M138.554 331.614L133.291 333.665C133.089 333.734 133.042 334.01 133.227 334.14L137.617 337.691C137.776 337.811 138.014 337.725 138.066 337.51L138.93 331.934C138.957 331.709 138.756 331.545 138.554 331.614Z" fill="white" fill-opacity="0.7"/>
<path d="M156.316 343.82L151.427 346.659C151.24 346.764 151.254 347.034 151.424 347.128L156.305 349.926C156.5 350.03 156.722 349.909 156.713 349.7L156.696 344.053C156.748 343.838 156.502 343.715 156.316 343.82Z" fill="white" fill-opacity="0.7"/>
<path d="M196.428 359.183L192.659 363.388C192.514 363.539 192.589 363.802 192.814 363.829L198.32 364.986C198.534 365.038 198.699 364.836 198.63 364.634L196.867 359.262C196.849 359.079 196.583 359.007 196.428 359.183Z" fill="white" fill-opacity="0.7"/>
<path d="M217.813 361.953L214.749 366.692C214.619 366.877 214.766 367.109 214.964 367.126L220.604 367.393C220.803 367.41 220.951 367.173 220.872 366.996L218.306 361.965C218.192 361.804 217.907 361.783 217.813 361.953Z" fill="white" fill-opacity="0.7"/>
<path d="M239.347 361.33L237.053 366.509C236.975 366.714 237.131 366.92 237.349 366.886L242.939 366.283C243.148 366.274 243.245 366.017 243.131 365.856L239.799 361.297C239.695 361.11 239.441 361.161 239.347 361.33Z" fill="white" fill-opacity="0.7"/>
<path d="M260.54 357.371L259.1 362.845C259.048 363.06 259.239 363.25 259.441 363.18L264.896 361.703C265.098 361.633 265.161 361.392 265.011 361.247L261.022 357.26C260.847 357.105 260.583 357.181 260.54 357.371Z" fill="white" fill-opacity="0.7"/>
<path d="M299.804 339.804L300.117 345.446C300.125 345.655 300.371 345.778 300.532 345.663L305.259 342.557C305.446 342.452 305.431 342.182 305.237 342.078L300.207 339.517C300.002 339.439 299.77 339.585 299.804 339.804Z" fill="white" fill-opacity="0.7"/>
<path d="M316.904 326.594L318.08 332.124C318.123 332.317 318.379 332.414 318.524 332.264L322.692 328.474C322.837 328.324 322.787 328.07 322.608 328.002L317.23 326.277C317.051 326.209 316.861 326.401 316.904 326.594Z" fill="white" fill-opacity="0.7"/>
<path d="M331.724 310.909L333.76 316.18C333.829 316.382 334.104 316.428 334.234 316.243L337.786 311.837C337.906 311.677 337.821 311.439 337.606 311.387L332.044 310.532C331.819 310.505 331.655 310.707 331.724 310.909Z" fill="white" fill-opacity="0.7"/>
<path d="M343.932 293.084L346.756 297.978C346.86 298.165 347.13 298.15 347.224 297.98L350.026 293.083C350.129 292.888 350.009 292.666 349.801 292.674L344.165 292.702C343.967 292.686 343.828 292.897 343.932 293.084Z" fill="white" fill-opacity="0.7"/>
<path d="M359.342 252.848L363.531 256.617C363.681 256.762 363.944 256.686 363.971 256.462L365.136 250.941C365.189 250.726 364.988 250.562 364.785 250.632L359.422 252.408C359.229 252.452 359.192 252.703 359.342 252.848Z" fill="white" fill-opacity="0.7"/>
<path d="M362.157 231.452L366.88 234.514C367.065 234.643 367.296 234.496 367.314 234.297L367.591 228.645C367.608 228.446 367.372 228.297 367.195 228.376L362.17 230.958C361.983 231.063 361.972 231.323 362.157 231.452Z" fill="white" fill-opacity="0.7"/>
<path d="M361.596 209.847L366.759 212.136C366.964 212.214 367.17 212.057 367.136 211.839L366.545 206.237C366.536 206.029 366.28 205.931 366.119 206.046L361.564 209.394C361.377 209.499 361.391 209.769 361.596 209.847Z" fill="white" fill-opacity="0.7"/>
<path d="M357.675 188.603L363.135 190.035C363.349 190.088 363.539 189.896 363.47 189.693L362.006 184.229C361.937 184.027 361.697 183.965 361.552 184.115L357.566 188.12C357.385 188.287 357.461 188.55 357.675 188.603Z" fill="white" fill-opacity="0.7"/>
<path d="M340.184 149.301L345.814 148.977C346.023 148.969 346.146 148.722 346.031 148.561L342.941 143.829C342.836 143.642 342.567 143.657 342.463 143.853L339.897 148.898C339.829 149.078 339.975 149.31 340.184 149.301Z" fill="white" fill-opacity="0.7"/>
<path d="M327.066 132.206L332.586 131.018C332.779 130.974 332.877 130.717 332.727 130.572L328.954 126.403C328.804 126.258 328.55 126.308 328.482 126.488L326.751 131.88C326.692 132.034 326.848 132.24 327.066 132.206Z" fill="white" fill-opacity="0.7"/>
<path d="M311.426 117.351L316.689 115.301C316.891 115.231 316.938 114.955 316.753 114.826L312.363 111.274C312.204 111.155 311.966 111.24 311.914 111.455L311.05 117.031C311.023 117.256 311.249 117.431 311.426 117.351Z" fill="white" fill-opacity="0.7"/>
<path d="M293.661 105.153L298.55 102.314C298.737 102.209 298.722 101.939 298.553 101.845L293.672 99.0466C293.477 98.943 293.255 99.0641 293.264 99.2729L293.281 104.92C293.254 105.145 293.5 105.268 293.661 105.153Z" fill="white" fill-opacity="0.7"/>
<path d="M253.546 89.7956L257.316 85.5902C257.461 85.4399 257.385 85.1762 257.161 85.1495L251.655 83.9929C251.441 83.9406 251.276 84.1423 251.345 84.3449L253.108 89.7167C253.152 89.9096 253.417 89.9814 253.546 89.7956Z" fill="white" fill-opacity="0.7"/>
<path d="M210.633 87.6343L212.927 82.456C213.006 82.2507 212.85 82.0445 212.632 82.0789L207.041 82.6822C206.833 82.691 206.735 82.9476 206.849 83.1087L210.181 87.6678C210.286 87.8545 210.565 87.8139 210.633 87.6343Z" fill="white" fill-opacity="0.7"/>
<path d="M189.462 91.6123L190.902 86.1381C190.954 85.9231 190.763 85.7327 190.561 85.8026L185.106 87.2802C184.904 87.35 184.841 87.5907 184.991 87.7359L188.98 91.7227C189.156 91.8776 189.393 91.7919 189.462 91.6123Z" fill="white" fill-opacity="0.7"/>
<path d="M150.191 109.195L149.879 103.553C149.871 103.344 149.625 103.221 149.464 103.336L144.736 106.442C144.55 106.547 144.564 106.817 144.759 106.92L149.789 109.482C149.994 109.56 150.2 109.403 150.191 109.195Z" fill="white" fill-opacity="0.7"/>
<path d="M133.096 122.394L131.921 116.864C131.877 116.671 131.621 116.573 131.476 116.724L127.309 120.513C127.164 120.663 127.213 120.917 127.393 120.986L132.77 122.71C132.95 122.779 133.14 122.587 133.096 122.394Z" fill="white" fill-opacity="0.7"/>
<path d="M118.276 138.081L116.24 132.811C116.171 132.608 115.895 132.562 115.766 132.748L112.213 137.153C112.094 137.313 112.179 137.551 112.393 137.603L117.956 138.458C118.18 138.485 118.345 138.283 118.276 138.081Z" fill="white" fill-opacity="0.7"/>
<path d="M106.069 155.903L103.246 151.009C103.141 150.822 102.872 150.837 102.778 151.007L99.9758 155.904C99.872 156.099 99.9925 156.322 100.201 156.313L105.836 156.285C106.035 156.302 106.148 156.08 106.069 155.903Z" fill="white" fill-opacity="0.7"/>
<path d="M102.988 279.156L93.0032 278.144C92.8046 278.127 92.6399 278.329 92.7348 278.542L96.8305 287.71C96.9096 287.887 97.185 287.933 97.3045 287.773L103.194 279.616C103.323 279.43 103.212 279.182 102.988 279.156Z" fill="white" fill-opacity="0.7"/>
<path d="M170.699 102.343L171.727 92.3344C171.745 92.1353 171.544 91.9707 171.332 92.0661L162.175 96.1882C161.998 96.2678 161.951 96.5439 162.111 96.6634L170.24 102.55C170.435 102.653 170.682 102.542 170.699 102.343Z" fill="white" fill-opacity="0.7"/>
<path d="M279.299 346.649L278.271 356.657C278.254 356.856 278.455 357.021 278.667 356.925L287.824 352.803C288 352.724 288.047 352.448 287.887 352.328L279.759 346.442C279.564 346.338 279.316 346.45 279.299 346.649Z" fill="white" fill-opacity="0.7"/>
<path d="M346.986 169.821L356.971 170.832C357.17 170.849 357.335 170.648 357.24 170.435L353.144 161.267C353.065 161.09 352.79 161.044 352.67 161.204L346.781 169.361C346.677 169.556 346.788 169.804 346.986 169.821Z" fill="white" fill-opacity="0.7"/>
<path d="M104.784 178.435L94.9869 166.39C94.8469 166.219 94.5934 166.269 94.5152 166.475L88.9753 181.023C88.8972 181.228 89.053 181.434 89.2712 181.4L104.598 178.922C104.826 178.862 104.924 178.605 104.784 178.435Z" fill="white" fill-opacity="0.7"/>
<path d="M178.836 345.071L166.798 354.912C166.627 355.053 166.677 355.307 166.882 355.385L181.388 360.909C181.593 360.987 181.799 360.83 181.765 360.611L179.351 345.44C179.332 345.318 179.312 345.187 179.226 345.099C179.117 344.988 178.961 344.968 178.836 345.071Z" fill="white" fill-opacity="0.7"/>
<path d="M270.726 103.762L268.283 88.4071C268.249 88.1886 268.455 88.032 268.66 88.11L283.166 93.634C283.371 93.7119 283.421 93.9659 283.25 94.1065L271.416 103.78C271.281 103.891 271.125 104.015 270.954 103.977C270.842 103.952 270.752 103.875 270.726 103.762Z" fill="white" fill-opacity="0.7"/>
<path d="M345.403 270.064L360.73 267.586C360.948 267.552 361.104 267.758 361.026 267.963L355.486 282.511C355.408 282.717 355.154 282.767 355.014 282.596L345.218 270.551C345.087 270.355 345.185 270.098 345.403 270.064Z" fill="white" fill-opacity="0.7"/>
<path fill-rule="evenodd" clip-rule="evenodd" d="M224.999 76.2744C224.916 76.2744 224.834 76.2644 224.754 76.2442L208.62 72.2106C208.171 72.0984 207.856 71.6951 207.856 71.2324C207.856 70.7697 208.171 70.3663 208.62 70.2542L224.754 66.2206C224.915 66.1804 225.083 66.1804 225.243 66.2206L241.377 70.2542C241.827 70.3663 242.141 70.7697 242.141 71.2324C242.141 71.6951 241.827 72.0984 241.377 72.2106L225.243 76.2442C225.163 76.2644 225.081 76.2744 224.999 76.2744ZM224.754 80.9501L209.873 77.2298L207.856 76.7256L207.856 74.0985L224.265 78.2009C224.505 78.2608 224.752 78.2912 224.999 78.2912C225.246 78.2912 225.493 78.2608 225.733 78.2009L241.867 74.1673L242.142 74.0985L242.142 76.7256L240.125 77.2298L225.243 80.9501C225.083 80.9903 224.915 80.9903 224.754 80.9501ZM207.856 78.6803L224.999 82.9661L242.142 78.6803L242.142 95.5685C242.142 96.0312 241.827 96.4345 241.378 96.5467L225.244 100.58C225.164 100.6 225.081 100.61 224.999 100.61C224.917 100.61 224.835 100.6 224.755 100.58L221.302 99.7171L221.302 89.6861C221.302 89.2234 220.987 88.82 220.538 88.7079L213.815 87.0272C213.514 86.9519 213.195 87.0194 212.95 87.2105C212.705 87.4017 212.562 87.6948 212.562 88.0054L212.562 97.5322L208.62 96.5467C208.171 96.4345 207.856 96.0312 207.856 95.5685L207.856 78.6803ZM219.284 99.2127L214.578 98.0363L214.578 89.2968L219.284 90.4732L219.284 99.2127Z" fill="white"/>
<path d="M372.614 276.763L382.989 280.713L382.952 280.81L369.828 284.08L368.809 286.755L384.651 292.787L385.828 289.695L375.509 285.766L375.541 285.68L388.606 282.399L389.633 279.704L373.791 273.671L372.614 276.763Z" fill="white"/>
<path d="M71.5692 173.566C74.4938 174.564 77.2247 172.656 78.6971 168.79C80.2423 164.732 79.2889 161.525 76.2968 160.385C73.973 159.501 72.0987 160.498 70.146 163.68L69.1622 165.275C68.0738 167.048 67.1906 167.613 66.2462 167.253C65.1215 166.825 64.8068 165.418 65.4445 163.743C66.0951 162.035 67.3383 161.131 68.6862 161.516L69.9061 158.312C67.0729 157.298 64.298 158.969 62.8556 162.757C61.4816 166.365 62.354 169.658 65.1552 170.724C67.4365 171.593 69.5042 170.566 71.3417 167.559L72.3107 165.972C73.478 164.087 74.342 163.541 75.35 163.924C76.4747 164.353 76.8315 165.904 76.1424 167.714C75.4404 169.557 74.1543 170.638 72.7891 170.362L71.5692 173.566Z" fill="white"/>
<path d="M162.488 371.847L169.5 374.517L167.974 378.524L161.358 376.005L160.386 378.56L167.001 381.079L165.542 384.91L158.53 382.24L157.486 384.981L167.737 388.885L173.786 372.998L163.536 369.094L162.488 371.847Z" fill="white"/>
<path d="M284.018 66.5479L284.116 66.585L282.951 78.5712L286.039 79.7472L296.239 65.4404L292.847 64.1489L285.996 74.7134L285.909 74.6804L287.364 62.0611L284.601 61.0089L277.295 71.4001L277.208 71.367L279.129 58.9252L275.738 57.6337L273.827 75.097L276.915 76.273L284.018 66.5479Z" fill="white"/>
</svg>
