<svg width="48" height="48" viewBox="0 0 48 48" fill="none" xmlns="http://www.w3.org/2000/svg">
<path d="M39.0375 35.9322L40.1775 35.6472L40.1775 40.3421C40.1719 40.8513 40.0376 41.3509 39.787 41.7942C39.5363 42.2375 39.1776 42.6102 38.7441 42.8775C38.3106 43.1448 37.8165 43.298 37.3078 43.3229C36.7992 43.3477 36.2925 43.2434 35.835 43.0197L27.4575 38.8347L27.81 38.7447L39.0375 35.9322ZM43.9725 9.23969C43.6528 8.98814 43.2796 8.81337 42.8817 8.72885C42.4838 8.64432 42.0718 8.65231 41.6775 8.75219V28.5522C41.6789 29.0551 41.5109 29.5439 41.2008 29.9398C40.8906 30.3357 40.4562 30.6157 39.9675 30.7347L26.25 34.1622C25.5605 34.3259 24.6816 34.5512 24 34.7247C23.9147 34.7088 23.4677 34.5802 23.3925 34.5747C23.116 34.4867 8.84626 30.9492 8.03251 30.7347C7.54385 30.6157 7.10945 30.3357 6.79926 29.9398C6.48907 29.5439 6.32114 29.0552 6.32251 28.5522V8.75224C5.92848 8.65712 5.51805 8.65225 5.12187 8.73798C4.72569 8.82371 4.354 8.99784 4.03454 9.24735C3.71509 9.49686 3.45613 9.81532 3.277 10.1789C3.09787 10.5426 3.0032 10.942 3.00006 11.3473L3.00001 30.8022C2.99824 31.401 3.19763 31.983 3.56619 32.4549C3.93476 32.9269 4.45114 33.2613 5.03251 33.4047C9.1975 34.456 18.402 36.7367 22.6125 37.7997C23.2641 38.0409 23.9679 38.1056 24.6525 37.9871C29.0245 36.8802 38.5433 34.5229 42.9675 33.4046C43.5489 33.2613 44.0653 32.9268 44.4338 32.4549C44.8024 31.983 45.0018 31.401 45 30.8022V11.3472C45.0008 10.9408 44.9086 10.5397 44.7305 10.1744C44.5524 9.80911 44.2931 9.48938 43.9725 9.23969ZM7.82251 35.6472V40.3422C7.82806 40.8514 7.96242 41.3509 8.21307 41.7943C8.46372 42.2376 8.8225 42.6102 9.25599 42.8775C9.68948 43.1447 10.1836 43.2979 10.6922 43.3228C11.2009 43.3476 11.7075 43.2433 12.165 43.0196L20.55 38.8272L20.0025 38.6922L7.82251 35.6472ZM7.82251 28.5522V5.40719C7.82317 5.29362 7.84952 5.18167 7.89957 5.07972C7.94963 4.97778 8.02209 4.88847 8.11155 4.8185C8.201 4.74852 8.30512 4.69969 8.41612 4.67565C8.52712 4.65161 8.64212 4.65299 8.75251 4.67969L23.25 8.30219V32.9922L8.39251 29.2797C8.22957 29.2401 8.08472 29.1468 7.9813 29.0148C7.87789 28.8828 7.82195 28.7199 7.82251 28.5522ZM11.3925 11.7822L20.82 14.1297C20.9151 14.1551 21.0143 14.1612 21.1117 14.1477C21.2092 14.1342 21.303 14.1013 21.3876 14.0509C21.4721 14.0006 21.5458 13.9339 21.6042 13.8547C21.6625 13.7755 21.7045 13.6854 21.7275 13.5897C21.7516 13.4941 21.7566 13.3948 21.742 13.2973C21.7275 13.1998 21.6938 13.1062 21.6429 13.0218C21.592 12.9374 21.5249 12.864 21.4455 12.8057C21.366 12.7474 21.2758 12.7054 21.18 12.6822L11.7525 10.3272C11.6575 10.3028 11.5585 10.2975 11.4614 10.3114C11.3643 10.3254 11.2709 10.3584 11.1865 10.4086C11.1022 10.4588 11.0286 10.5251 10.97 10.6038C10.9114 10.6825 10.8689 10.772 10.845 10.8672C10.7972 11.0611 10.8279 11.266 10.9304 11.4374C11.033 11.6087 11.199 11.7327 11.3925 11.7822ZM11.3925 16.1322L20.82 18.4947C21.0129 18.5423 21.2168 18.5113 21.3868 18.4086C21.5569 18.306 21.6792 18.1399 21.727 17.9471C21.7747 17.7542 21.7439 17.5503 21.6413 17.3802C21.5387 17.21 21.3728 17.0876 21.18 17.0397L11.7525 14.6847C11.6572 14.6604 11.5581 14.6552 11.4608 14.6693C11.3635 14.6834 11.2699 14.7167 11.1855 14.7671C11.1011 14.8176 11.0275 14.8842 10.9689 14.9632C10.9104 15.0422 10.868 15.132 10.8443 15.2274C10.8205 15.3228 10.8159 15.422 10.8306 15.5192C10.8454 15.6164 10.8792 15.7098 10.9302 15.7939C10.9811 15.878 11.0482 15.9512 11.1275 16.0092C11.2069 16.0673 11.2969 16.1091 11.3925 16.1322ZM11.3925 20.3472L20.82 22.7022C21.0119 22.7503 21.215 22.7204 21.3851 22.6193C21.5551 22.5181 21.6782 22.3538 21.7275 22.1622C21.7753 21.9683 21.7446 21.7634 21.6421 21.592C21.5395 21.4207 21.3735 21.2967 21.18 21.2472L11.7525 18.8997C11.6573 18.8755 11.5582 18.8704 11.461 18.8846C11.3637 18.8988 11.2703 18.9321 11.1859 18.9825C11.1016 19.0329 11.0281 19.0995 10.9696 19.1785C10.9111 19.2574 10.8687 19.3472 10.845 19.4425C10.8213 19.5379 10.8167 19.637 10.8314 19.7342C10.8461 19.8313 10.8798 19.9246 10.9307 20.0087C10.9816 20.0927 11.0486 20.1659 11.1278 20.224C11.2071 20.2821 11.297 20.324 11.3925 20.3472ZM11.3925 24.8472L20.82 27.2022C21.0119 27.2502 21.215 27.2204 21.3851 27.1192C21.5551 27.0181 21.6782 26.8538 21.7275 26.6622C21.7753 26.4683 21.7446 26.2634 21.6421 26.092C21.5395 25.9206 21.3735 25.7967 21.18 25.7472L11.7525 23.3997C11.6573 23.3755 11.5582 23.3704 11.461 23.3846C11.3637 23.3988 11.2703 23.4321 11.1859 23.4825C11.1016 23.5329 11.0281 23.5995 10.9696 23.6785C10.9111 23.7574 10.8687 23.8472 10.845 23.9425C10.8213 24.0379 10.8167 24.137 10.8314 24.2342C10.8461 24.3313 10.8798 24.4246 10.9307 24.5087C10.9816 24.5927 11.0486 24.6659 11.1278 24.724C11.2071 24.7821 11.297 24.824 11.3925 24.8472ZM39.6075 29.2797L24.75 32.9922V8.3022L31.5 6.6147V12.5997C31.502 12.7473 31.5472 12.8912 31.6301 13.0135C31.7129 13.1357 31.8297 13.2311 31.9661 13.2877C32.1025 13.3443 32.2525 13.3598 32.3976 13.3322C32.5427 13.3045 32.6765 13.235 32.7825 13.1322L34.275 11.6397L35.6625 12.3372C35.7774 12.3934 35.9047 12.4196 36.0325 12.4132C36.1603 12.4068 36.2844 12.3681 36.3931 12.3006C36.5018 12.2331 36.5915 12.1392 36.654 12.0275C36.7164 11.9158 36.7495 11.7901 36.75 11.6622V5.30216L39.2475 4.67966C39.3579 4.6527 39.473 4.65112 39.5841 4.67506C39.6952 4.69899 39.7994 4.7478 39.889 4.81782C39.9785 4.88784 40.0509 4.97725 40.1009 5.07932C40.1509 5.18139 40.1771 5.29347 40.1775 5.40711V28.5522C40.1781 28.7199 40.1221 28.8828 40.0187 29.0148C39.9153 29.1468 39.7704 29.2402 39.6075 29.2797ZM36.2475 23.3997L26.8201 25.7472C26.6447 25.7936 26.4922 25.902 26.3905 26.0522C26.2888 26.2023 26.2448 26.3842 26.2668 26.5643C26.2887 26.7443 26.375 26.9103 26.5098 27.0317C26.6445 27.1531 26.8187 27.2216 27 27.2247C27.0607 27.2246 27.1212 27.2171 27.18 27.2022L36.6075 24.8472C36.7972 24.7974 36.9597 24.6749 37.0597 24.5062C37.1597 24.3375 37.1893 24.1361 37.1419 23.9458C37.0946 23.7554 36.9742 23.5914 36.8068 23.4892C36.6394 23.387 36.4384 23.3549 36.2475 23.3997ZM36.2475 18.8997L26.8201 21.2472C26.6447 21.2936 26.4922 21.402 26.3905 21.5522C26.2888 21.7023 26.2448 21.8842 26.2668 22.0643C26.2887 22.2443 26.375 22.4103 26.5098 22.5317C26.6445 22.6531 26.8187 22.7216 27 22.7247C27.0607 22.7246 27.1212 22.7171 27.18 22.7022L36.6075 20.3472C36.7969 20.2971 36.959 20.1745 37.0588 20.0059C37.1585 19.8373 37.188 19.6362 37.1407 19.4461C37.0934 19.256 36.9732 19.0921 36.8061 18.9898C36.6389 18.8876 36.4383 18.8552 36.2475 18.8997ZM36.2475 14.6847L26.82 17.0397C26.645 17.0864 26.4927 17.1948 26.3912 17.3449C26.2898 17.4951 26.246 17.6768 26.2679 17.8567C26.2898 18.0365 26.3759 18.2024 26.5105 18.3238C26.645 18.4452 26.8188 18.5139 27 18.5172C27.0607 18.5171 27.1212 18.5096 27.18 18.4947L36.6075 16.1322C36.797 16.0822 36.9593 15.9597 37.0591 15.791C37.159 15.6224 37.1884 15.4212 37.1411 15.231C37.0938 15.0408 36.9736 14.8768 36.8063 14.7746C36.6391 14.6724 36.4384 14.6401 36.2475 14.6847ZM34.4625 10.0572L35.25 10.4547V5.67718L33 6.23968V10.7922C33.3728 10.4375 33.865 9.72372 34.4625 10.0572Z" fill="#F9A502"/>
</svg>
