<svg width="28" height="28" viewBox="0 0 28 28" fill="none" xmlns="http://www.w3.org/2000/svg">
    <defs>
        <linearGradient id="paint0_linear_169_4165" x1="15" y1="2" x2="7.80899" y2="6.49438"
            gradientUnits="userSpaceOnUse">
            <stop stop-color="#1151C2" />
            <stop offset="0.973094" stop-color="#8F8CF7" />
        </linearGradient>
        <linearGradient id="paint1_linear_169_4165" x1="5" y1="6" x2="23" y2="24" gradientUnits="userSpaceOnUse">
            <stop stop-color="#1151C2" />
            <stop offset="0.973094" stop-color="#8F8CF7" />
        </linearGradient>
        <linearGradient id="paint2_linear_169_4165" x1="4" y1="2" x2="26.7772" y2="21.8062"
            gradientUnits="userSpaceOnUse">
            <stop stop-color="#1151C2" />
            <stop offset="0.973094" stop-color="#8F8CF7" />
        </linearGradient>
    </defs>
    <path
        d="M13.2929 2.29289C13.6834 1.90237 14.3166 1.90237 14.7071 2.29289C15.0976 2.68342 15.0976 3.31658 14.7071 3.70711L13.4071 5.00814L13.4266 5.00893V7.01118L14.7071 8.29289C15.0976 8.68342 15.0976 9.31658 14.7071 9.70711C14.3166 10.0976 13.6834 10.0976 13.2929 9.70711L10.2929 6.70711C9.90237 6.31658 9.90237 5.68342 10.2929 5.29289L13.2929 2.29289Z"
        fill="url(#paint0_linear_169_4165)" />
    <path
        d="M5 15C5 17.4853 6.00736 19.7353 7.63604 21.364C9.26472 22.9926 11.5147 24 14 24C16.4853 24 18.7353 22.9926 20.364 21.364C21.9926 19.7353 23 17.4853 23 15C23 12.5147 21.9926 10.2647 20.364 8.63604C18.7353 7.00736 16.4853 6 14 6C13.3126 6 12.6432 6.07706 12 6.22302"
        stroke="url(#paint1_linear_169_4165)" stroke-width="2" stroke-linecap="round" />
    <path
        d="M14.7071 2.29289C14.3166 1.90237 13.6834 1.90237 13.2929 2.29289L10.2929 5.29289C9.90237 5.68342 9.90237 6.31658 10.2929 6.70711L13.2929 9.70711C13.6834 10.0976 14.3166 10.0976 14.7071 9.70711C15.0976 9.31658 15.0976 8.68342 14.7071 8.29289L13.435 7.0196C13.6215 7.00661 13.8099 7 14 7C16.2094 7 18.208 7.89434 19.6569 9.34315C21.1057 10.792 22 12.7906 22 15C22 17.2094 21.1057 19.208 19.6569 20.6569C18.208 22.1057 16.2094 23 14 23C11.7906 23 9.79196 22.1057 8.34315 20.6569C6.89434 19.208 6 17.2094 6 15C6 14.4477 5.55228 14 5 14C4.44772 14 4 14.4477 4 15C4 17.7611 5.12038 20.2625 6.92893 22.0711C8.73748 23.8796 11.2389 25 14 25C16.7611 25 19.2625 23.8796 21.0711 22.0711C22.8796 20.2625 24 17.7611 24 15C24 12.2389 22.8796 9.73748 21.0711 7.92893C19.2625 6.12038 16.7611 5 14 5C13.8076 5 13.597 4.99739 13.4071 5.00814L14.7071 3.70711C15.0976 3.31658 15.0976 2.68342 14.7071 2.29289Z"
        fill="url(#paint2_linear_169_4165)" />

</svg>