<svg width="48" height="48" viewBox="0 0 48 48" fill="none" xmlns="http://www.w3.org/2000/svg">
<path d="M23.4 17.1998C19.9758 17.1998 17.2 14.424 17.2 10.9998C17.2 7.57564 19.9758 4.7998 23.4 4.7998C24.101 4.7998 24.2239 5.7714 23.7746 6.30952C23.1661 7.0382 22.8 7.97624 22.8 8.9998C22.8 11.3194 24.6804 13.1998 27 13.1998C27.1606 13.1998 27.3192 13.1908 27.4752 13.1732C28.2085 13.0906 29.0092 13.7456 28.6081 14.365C27.5035 16.071 25.5836 17.1998 23.4 17.1998Z" fill="#F9A502"/>
<path fill-rule="evenodd" clip-rule="evenodd" d="M15.6227 11.5996H9.59998C8.49542 11.5996 7.59998 12.495 7.59998 13.5996V41.9996C7.59998 43.104 8.49542 43.9996 9.59998 43.9996H38.4C39.5045 43.9996 40.4 43.104 40.4 41.9996V13.5996C40.4 12.495 39.5045 11.5996 38.4 11.5996H30.4742C30.2454 11.921 29.9423 12.1866 29.5955 12.3711C29.8851 12.6548 30.1638 13.0611 30.2709 13.585C30.3882 14.1579 30.2709 14.7405 29.9512 15.2344C28.5642 17.3765 26.1488 18.7996 23.4 18.7996C19.2941 18.7996 15.9291 15.6271 15.6227 11.5996ZM19.6 19.9996C19.1581 19.9996 18.8 20.3578 18.8 20.7996C18.8 21.2414 19.1581 21.5996 19.6 21.5996H28.4C28.8418 21.5996 29.2 21.2414 29.2 20.7996C29.2 20.3578 28.8418 19.9996 28.4 19.9996H19.6ZM13.6 26.3996C13.6 25.9578 13.9581 25.5996 14.4 25.5996H16C16.4418 25.5996 16.8 25.9578 16.8 26.3996C16.8 26.8414 16.4418 27.1996 16 27.1996H14.4C13.9581 27.1996 13.6 26.8414 13.6 26.3996ZM14.4 31.1996C13.9581 31.1996 13.6 31.5578 13.6 31.9996C13.6 32.4415 13.9581 32.7996 14.4 32.7996H16C16.4418 32.7996 16.8 32.4415 16.8 31.9996C16.8 31.5578 16.4418 31.1996 16 31.1996H14.4ZM13.6 37.9996C13.6 37.5578 13.9581 37.1996 14.4 37.1996H16C16.4418 37.1996 16.8 37.5578 16.8 37.9996C16.8 38.4415 16.4418 38.7996 16 38.7996H14.4C13.9581 38.7996 13.6 38.4415 13.6 37.9996ZM20.4 25.5996C19.9581 25.5996 19.6 25.9578 19.6 26.3996C19.6 26.8414 19.9581 27.1996 20.4 27.1996H32.8C33.2418 27.1996 33.6 26.8414 33.6 26.3996C33.6 25.9578 33.2418 25.5996 32.8 25.5996H20.4ZM19.6 31.9996C19.6 31.5578 19.9581 31.1996 20.4 31.1996H32.8C33.2418 31.1996 33.6 31.5578 33.6 31.9996C33.6 32.4415 33.2418 32.7996 32.8 32.7996H20.4C19.9581 32.7996 19.6 32.4415 19.6 31.9996ZM20.4 37.1996C19.9581 37.1996 19.6 37.5578 19.6 37.9996C19.6 38.4415 19.9581 38.7996 20.4 38.7996H32.8C33.2418 38.7996 33.6 38.4415 33.6 37.9996C33.6 37.5578 33.2418 37.1996 32.8 37.1996H20.4Z" fill="#F9A502"/>
<path d="M26.5652 6.8568C26.8347 6.06336 27.9651 6.06336 28.2346 6.8568C28.365 7.2408 28.7216 7.43984 29.1108 7.43984C29.9284 7.43984 30.2586 8.49352 29.5872 8.96012C29.2815 9.17252 29.154 9.56336 29.2737 9.91584C29.5365 10.6896 28.6618 11.3572 27.9907 10.8908C27.6017 10.6204 27.1981 10.6204 26.809 10.8908C26.138 11.3572 25.2632 10.6896 25.5261 9.91584C25.6458 9.56336 25.5183 9.17252 25.2126 8.96012C24.5412 8.49352 24.8714 7.43984 25.689 7.43984C26.0781 7.43984 26.4347 7.2408 26.5652 6.8568Z" fill="#F9A502"/>
</svg>
