<svg width="24" height="24" viewBox="0 0 24 24" fill="none" xmlns="http://www.w3.org/2000/svg">
<path d="M19 13C19.5523 13 20 13.4477 20 14V18C20 19.6569 18.6569 21 17 21H7C5.34315 21 4 19.6569 4 18V14C4 13.4477 4.44772 13 5 13C5.55228 13 6 13.4477 6 14V18C6 18.5523 6.44772 19 7 19H17C17.5523 19 18 18.5523 18 18V14C18 13.4477 18.4477 13 19 13ZM12 2L12.0194 2.00019C12.0427 2.00063 12.066 2.00189 12.0893 2.00397L12 2C12.0506 2 12.1004 2.00376 12.149 2.01102C12.1659 2.01363 12.1834 2.0167 12.2007 2.02024C12.2227 2.02464 12.2444 2.02983 12.2658 2.03572C12.2815 2.0401 12.2969 2.04473 12.3121 2.04974C12.3318 2.05612 12.3516 2.06332 12.3711 2.0711C12.3888 2.0782 12.4061 2.08568 12.4232 2.09367C12.4439 2.10338 12.4643 2.11379 12.4843 2.12488C12.4964 2.1315 12.5086 2.13861 12.5207 2.146C12.5463 2.16172 12.5711 2.17849 12.5952 2.19631C12.6026 2.20175 12.6098 2.20728 12.617 2.21293C12.6197 2.21507 12.6226 2.21737 12.6254 2.21969L12.7071 2.29289L17.2071 6.79289C17.5976 7.18342 17.5976 7.81658 17.2071 8.20711C16.8166 8.59763 16.1834 8.59763 15.7929 8.20711L13 5.414V14.5C13 15.0523 12.5523 15.5 12 15.5C11.4477 15.5 11 15.0523 11 14.5V5.414L8.20711 8.20711C7.81658 8.59763 7.18342 8.59763 6.79289 8.20711C6.40237 7.81658 6.40237 7.18342 6.79289 6.79289L11.2929 2.29289L11.3746 2.21969C11.3774 2.21737 11.3803 2.21507 11.3833 2.21279L11.2929 2.29289C11.3283 2.2575 11.3657 2.22531 11.4047 2.19633C11.4289 2.17849 11.4537 2.16172 11.4793 2.14607C11.4914 2.13861 11.5036 2.1315 11.5159 2.12467C11.5357 2.11379 11.5561 2.10338 11.5769 2.09365C11.5939 2.08568 11.6112 2.0782 11.6287 2.07123C11.6484 2.06332 11.6682 2.05612 11.6883 2.04955C11.7031 2.04473 11.7185 2.0401 11.734 2.03585C11.7556 2.02983 11.7773 2.02464 11.7992 2.02017C11.8166 2.0167 11.8341 2.01363 11.8515 2.01102C11.8705 2.00811 11.8902 2.00577 11.91 2.004C11.9343 2.00187 11.958 2.0006 11.9816 2.00017C11.9872 2.00006 11.9936 2 12 2Z" fill="black"/>
</svg>
