<svg width="36" height="36" viewBox="0 0 36 36" fill="none" xmlns="http://www.w3.org/2000/svg">
<path d="M17.9999 2.57153C26.5208 2.57153 33.4284 9.47914 33.4284 18.0001C33.4284 26.5211 26.5208 33.4287 17.9999 33.4287C9.4789 33.4287 2.57129 26.5211 2.57129 18.0001C2.57129 9.47914 9.4789 2.57153 17.9999 2.57153ZM17.9999 5.14296C10.8991 5.14296 5.14272 10.8993 5.14272 18.0001C5.14272 25.1009 10.8991 30.8572 17.9999 30.8572C25.1007 30.8572 30.857 25.1009 30.857 18.0001C30.857 10.8993 25.1007 5.14296 17.9999 5.14296ZM23.5156 13.2301C24.0177 12.728 24.8392 12.728 25.3413 13.2301C25.8434 13.7322 25.8434 14.5537 25.3413 15.0558L16.3376 24.0521C15.8355 24.5542 15.0214 24.5542 14.5193 24.0521L10.0193 19.5521C9.51719 19.05 9.51719 18.2359 10.0193 17.7338C10.5214 17.2317 11.3355 17.2317 11.8376 17.7338L15.4284 21.3247L23.5156 13.2301Z" fill="url(#paint0_linear_154_8545)"/>
<defs>
<linearGradient id="paint0_linear_154_8545" x1="2.57129" y1="2.57153" x2="33.4284" y2="33.4287" gradientUnits="userSpaceOnUse">
<stop stop-color="#1151C2"/>
<stop offset="0.973094" stop-color="#8F8CF7"/>
</linearGradient>
</defs>
</svg>
