<svg width="48" height="48" viewBox="0 0 48 48" fill="none" xmlns="http://www.w3.org/2000/svg">
<path d="M43.1936 31.1744C42.1298 30.409 40.0346 29.676 38.6725 29.9485C38.8606 29.2479 38.6984 28.476 38.173 27.9052C37.5827 27.2696 36.7006 27.0685 35.9352 27.3085C35.9482 27.2177 35.9676 27.1204 35.9676 27.0296C35.9871 26.5366 35.8184 26.0631 35.5006 25.6933H35.5979C36.6617 25.635 37.4855 24.7204 37.4271 23.6501C37.3946 23.1312 37.1676 22.6577 36.7849 22.3139C36.4152 21.9831 35.9417 21.8015 35.4487 21.8144C35.7406 21.5096 35.9222 21.1204 35.9741 20.6923C36.0325 20.1798 35.8833 19.6804 35.5655 19.2782C34.9946 18.5582 34.0087 18.3571 33.2044 18.7333C33.5482 17.942 33.3211 16.982 32.6011 16.4306C31.9006 15.8988 30.9471 15.9182 30.266 16.4177C30.4541 15.6004 30.0909 14.7182 29.3255 14.2836C28.56 13.862 27.6325 14.0112 27.0292 14.5885C27.0617 14.2771 27.0163 13.9593 26.8865 13.6544C26.6855 13.1809 26.3092 12.8047 25.8292 12.6101C25.3492 12.409 24.8238 12.4155 24.3438 12.6166C24.039 12.7463 23.7795 12.9474 23.5849 13.2004C23.559 12.3571 22.9817 11.5917 22.1255 11.3712C21.2627 11.1506 20.3806 11.5528 19.959 12.2987C19.8941 11.9679 19.7449 11.6566 19.5179 11.3906C19.1806 11.0015 18.7071 10.7679 18.1946 10.7355C17.6822 10.7031 17.1827 10.8652 16.7936 11.209C16.5276 11.4296 16.333 11.715 16.2227 12.0328C16.0995 11.7215 15.8919 11.4425 15.613 11.2285C15.2044 10.9106 14.6984 10.7744 14.1795 10.8393C13.6671 10.9042 13.213 11.1636 12.8952 11.5788C12.6746 11.8642 12.5384 12.195 12.4995 12.5452C12 11.8252 11.0465 11.5139 10.1903 11.8577C9.32761 12.2015 8.84761 13.1096 9.00977 13.9982C8.69842 13.7582 8.32869 13.6155 7.93302 13.596C7.42059 13.5636 6.92113 13.7323 6.53194 14.076C6.14275 14.4198 5.91572 14.8869 5.88329 15.4058C5.85734 15.8144 5.96113 16.2166 6.17518 16.5539C5.78599 16.4501 5.37086 16.4631 4.98815 16.6123C4.52113 16.7874 4.14491 17.1312 3.93086 17.5788C3.91788 17.5917 3.9114 17.6047 3.90491 17.6177C3.68437 18.0912 3.6714 18.6231 3.85302 19.1031C3.99572 19.4858 4.25518 19.8036 4.58599 20.0306C3.68437 20.1604 2.96437 20.9128 2.92545 21.8533C2.88004 22.7809 3.49626 23.5852 4.35248 23.8123C4.02815 23.9679 3.76221 24.2144 3.56761 24.5193C3.28869 24.9604 3.19788 25.4793 3.31464 25.9787C3.51572 26.8609 4.28113 27.4836 5.18275 27.4901C4.86491 27.769 4.64437 28.1388 4.55356 28.5539C4.44329 29.0598 4.54059 29.5787 4.8195 30.0069C5.18923 30.5647 5.81842 30.8825 6.46059 30.8825C6.81734 30.8825 7.18058 30.7852 7.50491 30.5842C7.57626 30.5323 7.6541 30.4804 7.71896 30.422C7.72545 30.4609 7.73842 30.4998 7.7514 30.5388V30.5452C7.99788 31.369 8.74383 31.9269 9.60653 31.9269C9.82059 31.9269 10.0022 31.9009 10.1514 31.849C10.6509 31.7063 11.0595 31.3755 11.306 30.9215C11.4811 30.6036 11.559 30.2598 11.546 29.9096C11.9027 30.2923 12.4152 30.5258 12.9665 30.5258C13.2455 30.5258 13.5049 30.4674 13.7384 30.3571C14.2119 30.156 14.5752 29.7733 14.7633 29.2933C14.8541 29.0728 14.893 28.8458 14.8995 28.6123C15.2563 29.0469 15.7946 29.3128 16.3914 29.3128C16.5665 29.3128 16.7157 29.2998 16.8519 29.2609C17.5655 29.0858 18.0909 28.5279 18.266 27.8598C18.5773 28.4825 19.2195 28.9106 19.9655 28.9301H19.9979C20.7633 28.9301 21.4314 28.4696 21.7492 27.8079C21.9438 28.5215 22.5406 29.0923 23.319 29.2155H23.3319C23.4227 29.222 23.5265 29.235 23.6173 29.235C24.3049 29.235 24.9146 28.8782 25.2584 28.3269C25.3752 29.0858 25.9395 29.7344 26.7309 29.916C26.8995 29.9615 27.0552 29.9679 27.1719 29.9679C27.8919 29.9679 28.5471 29.5593 28.8779 28.956C29.0855 29.8058 29.8638 30.4415 30.7719 30.4415H30.9211C31.9525 30.3571 32.7373 29.4685 32.7049 28.4371C33.1655 28.8523 33.84 28.9885 34.4433 28.8523C34.2552 29.5463 34.4109 30.3182 34.9298 30.889C35.3384 31.3366 35.9222 31.596 36.5384 31.596C36.8433 31.596 37.1352 31.5247 37.4076 31.4079C37.4076 31.4274 37.4011 31.4533 37.4011 31.4793C37.4595 32.4717 38.0368 32.822 38.7114 33.2371C39.1525 33.5031 39.6455 33.8079 40.1968 34.3528C40.7352 34.8782 40.9687 35.4944 41.1763 36.0328C41.3838 36.5777 41.5655 37.0447 42.0065 37.2133C42.1103 37.2523 42.2141 37.2717 42.3309 37.2717C42.5773 37.2717 42.8628 37.1809 43.2065 36.9993C44.6595 36.2209 45.0292 35.209 45.0746 34.4955C45.159 33.3279 44.4519 32.089 43.1936 31.1744ZM32.6855 25.5571C32.2509 25.9593 32.0433 26.5171 32.0627 27.0685C32.0498 27.0555 32.0368 27.049 32.0238 27.036C31.6282 26.6988 31.1287 26.5366 30.6163 26.5755C30.0973 26.6209 29.6303 26.8609 29.293 27.2501C29.2022 27.3539 29.1244 27.4706 29.0595 27.5874C29.0141 27.3798 28.9298 27.1852 28.813 26.9971C28.5471 26.5755 28.1384 26.2771 27.6519 26.1604C27.639 26.1539 27.6325 26.1539 27.6195 26.1474C26.7957 25.9593 25.959 26.329 25.5309 27.0101C25.4855 26.7052 25.3622 26.4069 25.1741 26.1474C24.8692 25.7323 24.4217 25.4598 23.9092 25.3755C23.3968 25.2977 22.8844 25.4209 22.4692 25.7323C22.2033 25.9269 21.9957 26.1798 21.8595 26.4652C21.6325 25.6609 20.8995 25.0577 20.0238 25.0512C19.5373 25.0382 19.0184 25.2328 18.6487 25.596C18.3892 25.849 18.2076 26.1604 18.1168 26.5106C17.7211 25.7258 16.826 25.2847 15.9244 25.4988C15.4249 25.622 15.0033 25.9333 14.7309 26.3744C14.5492 26.6728 14.4584 27.0101 14.4519 27.3474C13.92 26.7052 12.999 26.4587 12.1882 26.8155C11.7146 27.0166 11.3449 27.3993 11.1568 27.8793C11.0595 28.1388 11.0141 28.4047 11.0271 28.6642C10.8844 28.515 10.7222 28.3917 10.5341 28.2879C10.2487 28.1323 9.93734 28.0544 9.6195 28.0544C9.43788 28.0544 9.24977 28.0804 9.06815 28.1388C8.78923 28.2166 8.54275 28.3593 8.34167 28.5344C8.28977 28.3139 8.20545 28.0998 8.07572 27.9052C7.7968 27.4706 7.36221 27.1658 6.85626 27.062C6.72653 27.036 6.60329 27.0166 6.47356 27.0166C6.99248 26.5625 7.25194 25.849 7.09626 25.129C6.9341 24.409 6.38275 23.8706 5.71464 23.689C6.32437 23.3842 6.75248 22.7679 6.78491 22.035C6.81734 21.3409 6.48004 20.7117 5.94167 20.342C6.59031 20.2512 7.15464 19.836 7.42707 19.2263C7.64113 18.7528 7.66058 18.2274 7.47896 17.7409C7.43356 17.6177 7.37518 17.5074 7.31032 17.3971C7.92004 17.5658 8.6141 17.4101 9.10058 16.9755C9.48977 16.6317 9.7168 16.1582 9.74923 15.6458C9.76221 15.4901 9.74923 15.3344 9.72329 15.1852C10.2487 15.5874 11.053 15.6977 11.6303 15.4512C12.1103 15.2566 12.4865 14.8933 12.6941 14.4133C12.7655 14.2382 12.8173 14.0501 12.8368 13.862C13.2325 14.4328 13.9006 14.7701 14.6725 14.6793C15.1914 14.6144 15.6455 14.355 15.9633 13.9463C16.093 13.7777 16.1968 13.5896 16.2617 13.3885C16.5341 14.0566 17.1633 14.5496 17.9222 14.6015H18.0584C18.7784 14.6015 19.4141 14.2058 19.7514 13.6155C19.8876 14.3225 20.4195 14.9323 21.1655 15.1269H21.1719C21.9633 15.315 22.7157 15.0231 23.1633 14.4523C23.1827 15.1917 23.6368 15.8923 24.3633 16.1906L24.3698 16.1971C25.1092 16.489 25.9265 16.3009 26.4519 15.7885C26.426 16.0285 26.4455 16.275 26.5168 16.5085C26.653 17.0079 26.9838 17.4231 27.4314 17.676C28.0736 18.0328 28.9427 17.9744 29.533 17.5333C29.4811 17.7539 29.4746 17.9874 29.5006 18.2209C29.5719 18.7333 29.8314 19.1874 30.24 19.5052C30.8109 19.9463 31.6282 20.0242 32.2638 19.7193C32.1925 19.8879 32.1406 20.0696 32.1211 20.2642C32.0627 20.7766 32.2119 21.276 32.5298 21.6847C32.8995 22.1517 33.4898 22.4306 34.0865 22.4177C34.0736 22.4306 34.0606 22.4436 34.0476 22.4566C33.6973 22.8458 33.5222 23.3452 33.5546 23.8642C33.5741 24.3052 33.7492 24.7074 34.0152 25.0188C33.5546 25.0188 33.1006 25.1809 32.7503 25.5117C32.7309 25.5247 32.6984 25.5442 32.6855 25.5571Z" fill="#F9A502"/>
</svg>
