<svg width="155" height="155" viewBox="0 0 155 155" fill="none" xmlns="http://www.w3.org/2000/svg">
<g style="mix-blend-mode:screen" opacity="0.4">
<path style="mix-blend-mode:screen" d="M147.23 95.4817C129.982 76.7249 97.628 89.2448 97.7906 114.715C97.8228 122.207 100.841 129.383 106.188 134.68C111.536 139.977 118.779 142.967 126.341 142.999C151.035 143.203 164.197 113.087 147.23 95.4817ZM114.183 104.886C114.279 98.6832 122.034 98.6839 122.129 104.886C122.022 111.084 114.29 111.084 114.183 104.886ZM120.059 130.201C119.738 130.729 119.22 131.112 118.616 131.266C118.013 131.42 117.373 131.333 116.833 131.024C116.294 130.715 115.899 130.209 115.732 129.614C115.566 129.019 115.642 128.383 115.944 127.843L132.622 99.2294C132.778 98.9616 132.986 98.727 133.234 98.5389C133.481 98.3507 133.764 98.2128 134.066 98.1329C134.367 98.053 134.682 98.0328 134.991 98.0733C135.301 98.1138 135.599 98.2143 135.869 98.3691C136.139 98.5238 136.376 98.7298 136.566 98.9753C136.756 99.2207 136.895 99.5008 136.976 99.7996C137.057 100.098 137.077 100.41 137.036 100.716C136.995 101.023 136.894 101.319 136.738 101.586L120.059 130.201ZM134.525 129.258C129.311 129.173 129.309 119.929 134.525 119.83C139.742 119.93 139.739 129.174 134.525 129.258ZM88.2737 80.5382C87.336 80.5251 86.4411 80.1469 85.7826 79.4853C85.1242 78.8237 84.755 77.9319 84.755 77.0028C84.755 76.0737 85.1241 75.1819 85.7825 74.5203C86.441 73.8587 87.3358 73.4804 88.2736 73.4672C89.2114 73.4803 90.1062 73.8586 90.7647 74.5202C91.4232 75.1818 91.7923 76.0735 91.7923 77.0027C91.7924 77.9318 91.4232 78.8236 90.7648 79.4852C90.1063 80.1468 89.2115 80.5251 88.2737 80.5382ZM126.341 81.7168C131.07 81.7068 135.745 82.7119 140.045 84.6631C141.671 73.8701 139.819 62.844 134.752 53.1546C129.685 43.4651 121.661 35.6062 111.824 30.6967C101.986 25.7872 90.8363 24.0774 79.961 25.8107C69.0856 27.5439 59.0393 32.632 51.2525 40.3504C43.4657 48.0688 38.3352 58.0241 36.5915 68.7991C34.8477 79.574 36.5796 90.6193 41.5406 100.362C46.5016 110.106 54.4388 118.05 64.2222 123.064C74.0055 128.079 85.1364 129.908 96.03 128.291C85.7604 107.228 102.707 81.2013 126.341 81.7168ZM133.478 74.6458C134.101 74.6581 134.694 74.9119 135.13 75.3526C135.566 75.7933 135.81 76.3858 135.81 77.0029C135.81 77.62 135.566 78.2124 135.13 78.6531C134.694 79.0938 134.101 79.3475 133.478 79.3598C132.855 79.3479 132.262 79.0944 131.825 78.6536C131.389 78.2129 131.144 77.6201 131.144 77.0027C131.144 76.3853 131.389 75.7926 131.825 75.3518C132.262 74.9111 132.855 74.6576 133.478 74.6458ZM118.561 43.6745C119.008 43.2471 119.607 43.0108 120.229 43.0165C120.851 43.0222 121.445 43.2693 121.885 43.7048C122.324 44.1403 122.574 44.7293 122.58 45.3452C122.585 45.961 122.347 46.5545 121.915 46.9979C121.468 47.4253 120.869 47.6616 120.247 47.656C119.625 47.6503 119.031 47.4031 118.591 46.9676C118.152 46.5322 117.902 45.9431 117.896 45.3273C117.891 44.7114 118.129 44.118 118.561 43.6745ZM43.069 79.3598C42.4463 79.3473 41.8535 79.0935 41.4176 78.6528C40.9817 78.2121 40.7376 77.6197 40.7376 77.0027C40.7376 76.3858 40.9818 75.7934 41.4177 75.3527C41.8536 74.9121 42.4465 74.6583 43.0692 74.6458C43.6918 74.6583 44.2847 74.9122 44.7206 75.3528C45.1565 75.7935 45.4006 76.3859 45.4006 77.0029C45.4005 77.6199 45.1564 78.2123 44.7205 78.6529C44.2846 79.0936 43.6917 79.3473 43.069 79.3598ZM88.2736 29.8624C88.8964 29.8748 89.4894 30.1286 89.9254 30.5693C90.3614 31.01 90.6056 31.6025 90.6056 32.2195C90.6056 32.8366 90.3613 33.4291 89.9253 33.8698C89.4893 34.3104 88.8962 34.5642 88.2734 34.5765C87.6507 34.5641 87.0576 34.3103 86.6216 33.8696C86.1856 33.4289 85.9414 32.8365 85.9414 32.2194C85.9415 31.6023 86.1857 31.0098 86.6217 30.5692C87.0578 30.1285 87.6508 29.8748 88.2736 29.8624ZM57.9865 110.331C57.5388 110.758 56.9399 110.994 56.3185 110.988C55.6971 110.982 55.1029 110.735 54.6635 110.299C54.2241 109.864 53.9746 109.275 53.9687 108.66C53.9628 108.044 54.2009 107.451 54.6319 107.007C55.0796 106.58 55.6785 106.345 56.2999 106.35C56.9213 106.356 57.5156 106.604 57.955 107.039C58.3944 107.474 58.6438 108.063 58.6497 108.679C58.6556 109.294 58.4175 109.887 57.9865 110.331ZM57.9865 46.9978C57.5388 47.4246 56.94 47.6603 56.3187 47.6544C55.6974 47.6484 55.1033 47.4013 54.664 46.966C54.2246 46.5308 53.9752 45.9422 53.9692 45.3267C53.9632 44.7112 54.2011 44.118 54.6319 43.6744C55.0796 43.2477 55.6785 43.0119 56.2997 43.0179C56.921 43.0238 57.5151 43.271 57.9545 43.7062C58.3938 44.1415 58.6433 44.7301 58.6493 45.3455C58.6553 45.961 58.4173 46.5543 57.9865 46.9978ZM88.2736 124.143C87.6514 124.13 87.0591 123.876 86.6237 123.435C86.1883 122.995 85.9445 122.403 85.9445 121.786C85.9445 121.169 86.1884 120.577 86.6238 120.137C87.0592 119.696 87.6515 119.442 88.2737 119.429C88.896 119.442 89.4883 119.696 89.9237 120.137C90.3591 120.577 90.6029 121.17 90.6029 121.786C90.6029 122.403 90.359 122.995 89.9236 123.435C89.4882 123.876 88.8958 124.13 88.2736 124.143ZM88.2736 85.2523C86.4865 85.2436 84.7494 84.6662 83.3187 83.6053C81.8879 82.5444 80.8391 81.0561 80.327 79.3598H64.4817C63.8589 79.3475 63.2659 79.0937 62.8299 78.653C62.3939 78.2123 62.1496 77.6198 62.1497 77.0027C62.1497 76.3856 62.3939 75.7932 62.83 75.3525C63.266 74.9118 63.8591 74.6581 64.4818 74.6458H80.327C80.7268 73.3444 81.4438 72.1605 82.4148 71.1986C83.3857 70.2367 84.5807 69.5264 85.8944 69.1303V44.0045C85.9042 43.3859 86.1592 42.7959 86.6044 42.3618C87.0495 41.9278 87.649 41.6845 88.2735 41.6845C88.8981 41.6845 89.4976 41.9278 89.9427 42.3618C90.3878 42.7959 90.6428 43.3859 90.6527 44.0045V69.1303C92.5517 69.7089 94.1789 70.9415 95.2404 72.6053C96.3018 74.2691 96.7272 76.2542 96.4398 78.2017C96.1525 80.1492 95.1712 81.9306 93.6734 83.2237C92.1756 84.5169 90.2603 85.2364 88.2736 85.2523ZM105.808 140.666C100.097 142.226 94.1984 143.011 88.2741 142.999C-0.0836716 139.387 -0.0987301 14.6277 88.2731 11.007C131.464 10.3692 164.467 53.3472 152.536 94.374C150.27 91.5011 147.536 89.0235 144.446 87.0437C145.066 83.732 145.377 80.3709 145.374 77.0028C145.354 62.0061 139.332 47.6292 128.628 37.0249C117.924 26.4206 103.412 20.4542 88.274 20.4343C12.5345 23.5468 12.5369 130.459 88.2736 133.571C91.6734 133.573 95.0661 133.266 98.409 132.652C98.7657 133.218 99.1704 133.783 99.5986 134.372C101.383 136.729 103.47 138.845 105.808 140.666Z" fill="url(#paint0_linear_2975_4140)"/>
</g>
<defs>
<linearGradient id="paint0_linear_2975_4140" x1="176.639" y1="73.7208" x2="-0.0461697" y2="83.2699" gradientUnits="userSpaceOnUse">
<stop stop-color="#FF7E00"/>
<stop offset="0.13" stop-color="#CE6600"/>
<stop offset="0.31" stop-color="#904700"/>
<stop offset="0.48" stop-color="#5D2D00"/>
<stop offset="0.64" stop-color="#341A00"/>
<stop offset="0.78" stop-color="#170B00"/>
<stop offset="0.91" stop-color="#060300"/>
<stop offset="1"/>
</linearGradient>
</defs>
</svg>
