<svg width="24" height="24" viewBox="0 0 24 24" fill="none" xmlns="http://www.w3.org/2000/svg">
<g clip-path="url(#clip0_196_5086)">
<path d="M20.365 17.0603C19.905 17.0603 20.22 17.0053 14.475 18.7953C14.5142 18.5046 14.4898 18.2089 14.4035 17.9286C14.3172 17.6484 14.171 17.3902 13.9751 17.1719C13.7792 16.9537 13.5383 16.7806 13.2689 16.6646C12.9995 16.5486 12.7082 16.4926 12.415 16.5003C9.2 16.5003 9.78 16.5853 9.275 16.2453C8.50196 15.7316 7.58793 15.4719 6.6603 15.5024C5.73268 15.5329 4.83766 15.852 4.1 16.4153L3.33 17.0003H0.5C0.367392 17.0003 0.240215 17.0529 0.146447 17.1467C0.0526784 17.2405 0 17.3677 0 17.5003L0 23.5003C0 23.6329 0.0526784 23.76 0.146447 23.8538C0.240215 23.9476 0.367392 24.0003 0.5 24.0003H12.065C14.03 24.0003 14.595 23.6303 21.22 21.1403C21.6674 20.9436 22.0336 20.5991 22.2571 20.1645C22.4807 19.73 22.548 19.2317 22.4477 18.7534C22.3475 18.2751 22.0858 17.8458 21.7066 17.5375C21.3274 17.2292 20.8537 17.0607 20.365 17.0603ZM20.865 20.2103C14.405 22.6303 13.87 23.0003 12.065 23.0003H1V18.0003C4.065 18.0003 3.425 18.1853 4.705 17.2103C5.27849 16.7823 5.96938 16.5404 6.68459 16.5171C7.39979 16.4939 8.10493 16.6904 8.705 17.0803C9.535 17.6303 9.045 17.5003 12.4 17.5003C12.666 17.4881 12.9269 17.5765 13.1307 17.7479C13.3345 17.9193 13.4664 18.1611 13.5 18.4253C13.5126 18.5761 13.4908 18.7278 13.4362 18.869C13.3817 19.0102 13.2958 19.1371 13.185 19.2403C12.735 19.5853 13.005 19.5003 8.505 19.5003C8.37239 19.5003 8.24521 19.5529 8.15145 19.6467C8.05768 19.7405 8.005 19.8677 8.005 20.0003C8.005 20.1329 8.05768 20.26 8.15145 20.3538C8.24521 20.4476 8.37239 20.5003 8.505 20.5003C12.73 20.5003 13.005 20.6353 13.73 20.0803L20 18.1253C20.272 18.0329 20.5689 18.0476 20.8304 18.1663C21.092 18.285 21.2985 18.4988 21.408 18.7644C21.5175 19.0299 21.5218 19.3271 21.42 19.5957C21.3182 19.8643 21.118 20.084 20.86 20.2103H20.865Z" fill="white"/>
<path d="M23.5 3H21.5C21.3674 3 21.2402 3.05268 21.1464 3.14645C21.0527 3.24021 21 3.36739 21 3.5V4.5H18.705C18.41 4.2 18.27 4 18 4V3H19C19.3978 3 19.7794 2.84196 20.0607 2.56066C20.342 2.27936 20.5 1.89782 20.5 1.5C20.5 1.10218 20.342 0.720644 20.0607 0.43934C19.7794 0.158035 19.3978 0 19 0L14 0C13.6022 0 13.2206 0.158035 12.9393 0.43934C12.658 0.720644 12.5 1.10218 12.5 1.5C12.5 1.89782 12.658 2.27936 12.9393 2.56066C13.2206 2.84196 13.6022 3 14 3H15C15 4.545 15.06 3.73 14.645 4.145L14.295 4.5H13.5C12.5717 4.5 11.6815 4.86875 11.0251 5.52513C10.3687 6.1815 10 7.07174 10 8V10.5C10 10.6326 10.0527 10.7598 10.1464 10.8536C10.2402 10.9473 10.3674 11 10.5 11H13.5C13.6326 11 13.7598 10.9473 13.8536 10.8536C13.9473 10.7598 14 10.6326 14 10.5V9C14 8.86739 14.0527 8.74021 14.1464 8.64645C14.2402 8.55268 14.3674 8.5 14.5 8.5H21V9.5C21 9.63261 21.0527 9.75979 21.1464 9.85355C21.2402 9.94732 21.3674 10 21.5 10H23.5C23.6326 10 23.7598 9.94732 23.8536 9.85355C23.9473 9.75979 24 9.63261 24 9.5V3.5C24 3.36739 23.9473 3.24021 23.8536 3.14645C23.7598 3.05268 23.6326 3 23.5 3ZM14 1H19C19.1326 1 19.2598 1.05268 19.3536 1.14645C19.4473 1.24021 19.5 1.36739 19.5 1.5C19.5 1.63261 19.4473 1.75979 19.3536 1.85355C19.2598 1.94732 19.1326 2 19 2H14C13.8674 2 13.7402 1.94732 13.6464 1.85355C13.5527 1.75979 13.5 1.63261 13.5 1.5C13.5 1.36739 13.5527 1.24021 13.6464 1.14645C13.7402 1.05268 13.8674 1 14 1ZM16 3H17V4H16V3ZM14.5 7.5C14.1022 7.5 13.7206 7.65804 13.4393 7.93934C13.158 8.22064 13 8.60218 13 9V10H11V8C11 7.33696 11.2634 6.70107 11.7322 6.23223C12.2011 5.76339 12.837 5.5 13.5 5.5C14.865 5.5 14.6 5.605 15.205 5C18.28 5 17.705 4.91 18.145 5.355C18.345 5.55 18.26 5.5 21 5.5V7.5H14.5ZM23 9H22V4H23V9Z" fill="white"/>
<path d="M13.5 14C13.5 12.825 12.47 11.765 12.355 11.645C12.3085 11.5981 12.2532 11.5609 12.1923 11.5355C12.1314 11.5101 12.066 11.4971 12 11.4971C11.934 11.4971 11.8686 11.5101 11.8077 11.5355C11.7468 11.5609 11.6915 11.5981 11.645 11.645C11.53 11.765 10.5 12.825 10.5 14C10.5 14.3978 10.658 14.7793 10.9393 15.0606C11.2206 15.3419 11.6022 15.5 12 15.5C12.3978 15.5 12.7794 15.3419 13.0607 15.0606C13.342 14.7793 13.5 14.3978 13.5 14ZM11.5 14C11.5452 13.5535 11.7189 13.1297 12 12.78C13.37 14.69 11.5 14.865 11.5 14Z" fill="white"/>
</g>
<defs>
<clipPath id="clip0_196_5086">
<rect width="24" height="24" fill="white"/>
</clipPath>
</defs>
</svg>
