<svg width="48" height="48" viewBox="0 0 48 48" fill="none" xmlns="http://www.w3.org/2000/svg">
<path d="M39.712 36.3817C39.4345 36.1117 39.142 35.8717 38.827 35.6767C39.682 33.6218 40.117 31.4469 40.117 29.212C40.1597 23.1543 36.7164 17.3243 31.4173 14.4825C30.7807 15.7074 29.5085 16.4962 28.0949 16.4999H19.9052C18.5206 16.496 17.2166 15.7262 16.5828 14.46C9.2061 18.4095 5.82168 27.9755 9.17322 35.6768C4.92176 38.3239 6.83544 45.0181 11.8581 44.9989C11.858 44.9989 36.1421 44.9989 36.1421 44.9989C40.56 45.0692 42.8922 39.4614 39.712 36.3817ZM21.3151 33.2243C22.2983 33.2411 22.3015 34.7062 21.3151 34.7242H16.9353C16.2901 34.7391 15.9301 33.8879 16.4104 33.4418C16.4103 33.4418 20.2052 29.6394 20.2052 29.6394C21.0565 28.8243 20.2664 27.2338 19.2002 27.2245C18.4031 27.163 17.6704 27.859 17.6853 28.657C17.6761 29.6443 16.1993 29.6438 16.1854 28.6569C16.1579 27.0235 17.6432 25.6057 19.2828 25.7246C21.6259 25.7553 23.0304 29.0181 21.2701 30.7045C21.2701 30.7044 18.7502 33.2243 18.7502 33.2243H21.3151ZM24.795 34.9867C24.5317 35.2198 24.1394 35.7808 23.7376 35.7367C23.0883 35.7577 22.7299 34.9099 23.2051 34.4543C23.2051 34.4543 23.7376 33.9293 23.7376 33.9293C24.4314 33.2403 25.4844 34.2927 24.795 34.9867ZM31.7248 32.2418C31.4087 33.6817 30.0399 34.7363 28.5749 34.7242C27.6209 34.7898 25.1748 33.7538 26.1899 32.5568C26.505 32.2868 26.9774 32.3168 27.2475 32.6243C27.6899 33.1268 28.3424 33.3293 29.0024 33.1718C29.6174 33.0218 30.1198 32.5118 30.2623 31.9043C30.727 30.1467 28.426 29.0013 27.2474 30.322C26.8064 30.8654 25.8507 30.447 25.9425 29.7519C25.9425 29.7519 26.25 26.407 26.25 26.407C26.2875 26.0171 26.61 25.7246 27 25.7246H30.7498C31.7344 25.7447 31.7359 27.2047 30.7498 27.2245H27.6824L27.5774 28.3795C29.8959 27.5532 32.3665 29.8604 31.7248 32.2418Z" fill="#F9A502"/>
<path d="M16.0654 9.79561C16.6579 10.6506 17.3478 11.273 17.9328 11.7005C17.1055 13.1224 18.2699 15.044 19.9053 15.0004C19.9052 15.0004 28.095 15.0004 28.095 15.0004C29.7283 15.0453 30.8969 13.1241 30.0673 11.7005C31.5536 10.6857 32.9209 8.62585 33.2472 6.69068C33.6622 4.84279 32.107 2.95303 30.2173 3.00089C30.2174 3.00086 17.7828 3.00086 17.7828 3.00086C15.8944 2.95397 14.3367 4.84194 14.753 6.69074C14.9854 7.83068 15.4204 8.87311 16.0654 9.79561Z" fill="#F9A502"/>
</svg>
